<svg width="57" height="50" viewBox="0 0 57 50" fill="none" xmlns="http://www.w3.org/2000/svg">
<path d="M35.7136 15.9996C35.7136 15.9996 38.2975 16.4354 38.5058 16.4914C38.714 16.5475 39.5326 16.9353 39.5743 17.1852C39.5959 17.5133 39.5959 17.8425 39.5743 18.1706C39.5743 18.1706 39.4253 18.2907 39.334 18.0504C39.2727 17.8168 39.2463 17.5755 39.2555 17.3342L38.7973 17.158L39.0472 17.6018L39.0889 18.6416C39.0889 18.6416 38.7685 18.6128 38.706 18.3644C38.6667 18.1914 38.6463 18.0147 38.6451 17.8373L38.3119 17.5553L38.5618 17.8934L38.6451 18.6416C38.6451 18.6416 38.4016 18.7217 38.3248 18.5551C38.2685 18.3391 38.2405 18.1166 38.2415 17.8934L37.2995 17.5633L36.6763 17.911L35.5117 17.2605L35.7136 15.9996Z" fill="#FFBE9D"/>
<path d="M26.6659 9.61157C26.6787 9.66284 29.7801 13.9375 29.7801 13.9375L36.0117 15.8762L35.7281 18.217L28.0916 16.6789L25.3811 13.5674L26.6659 9.61157Z" fill="#FF725E"/>
<g opacity="0.2">
<path d="M26.6659 9.61157C26.6787 9.66284 29.7801 13.9375 29.7801 13.9375L36.0117 15.8762L35.7281 18.217L28.0916 16.6789L25.3811 13.5674L26.6659 9.61157Z" fill="black"/>
</g>
<path d="M15.811 15.4901H3.07868C2.80884 15.4901 2.59009 15.7088 2.59009 15.9787V17.4832C2.59009 17.7531 2.80884 17.9719 3.07868 17.9719H15.811C16.0809 17.9719 16.2996 17.7531 16.2996 17.4832V15.9787C16.2996 15.7088 16.0809 15.4901 15.811 15.4901Z" fill="#F5F5F5"/>
<path d="M15.8126 17.9719C15.8126 17.9719 15.8398 17.9719 15.8927 17.9606C15.9945 17.9419 16.0876 17.8908 16.158 17.8148C16.2285 17.7389 16.2725 17.6423 16.2836 17.5393C16.2836 17.3887 16.2836 17.2092 16.2836 17.0105C16.2836 16.8119 16.2836 16.5892 16.2836 16.3472C16.2836 16.2255 16.2836 16.0989 16.2836 15.9675C16.2814 15.9025 16.2662 15.8386 16.2386 15.7796C16.2111 15.7207 16.1719 15.668 16.1234 15.6246C16.0707 15.5801 16.0089 15.5478 15.9423 15.5301C15.8714 15.5146 15.7985 15.5098 15.7261 15.5157H15.2583H14.2411L3.08984 15.5285C3.02747 15.5284 2.96576 15.5413 2.90866 15.5664C2.85157 15.5915 2.80033 15.6283 2.75823 15.6743C2.71662 15.7209 2.68494 15.7754 2.66511 15.8347C2.64528 15.8939 2.63772 15.9565 2.64289 16.0188C2.64289 16.2879 2.64289 16.5555 2.64289 16.8199V17.4207C2.63983 17.482 2.64522 17.5435 2.65891 17.6034C2.68283 17.69 2.73204 17.7675 2.80024 17.826C2.86844 17.8845 2.95254 17.9214 3.04178 17.9318C3.09785 17.9318 3.16673 17.9318 3.23081 17.9318H6.19123L11.2038 17.9414L14.5839 17.9542L15.5034 17.9623L14.5839 17.9703L11.2038 17.9831L6.19123 17.9927H3.2196C3.15392 17.9927 3.09304 17.9927 3.02096 17.9927C2.95124 17.9843 2.88379 17.9625 2.82231 17.9286C2.76104 17.8946 2.70713 17.8487 2.66368 17.7937C2.62024 17.7387 2.58812 17.6757 2.5692 17.6082C2.55194 17.5413 2.54546 17.472 2.54998 17.4031V16.8087C2.54998 16.5443 2.54998 16.2767 2.54998 16.0076C2.5457 15.9349 2.55581 15.8621 2.57973 15.7934C2.60364 15.7246 2.6409 15.6613 2.68935 15.607C2.73892 15.5522 2.7995 15.5084 2.86713 15.4786C2.93476 15.4488 3.00792 15.4336 3.08183 15.434L14.2331 15.4468H15.7181C15.7949 15.4436 15.8719 15.4501 15.9471 15.466C16.0205 15.4859 16.0883 15.522 16.1458 15.5718C16.2 15.6187 16.2437 15.6764 16.2744 15.7413C16.305 15.8061 16.3218 15.8766 16.3236 15.9483C16.3236 16.0797 16.3236 16.2078 16.3236 16.3296C16.3236 16.5715 16.3236 16.7926 16.3236 16.9929C16.3236 17.1932 16.3236 17.3678 16.3156 17.5248C16.2979 17.6577 16.2282 17.7782 16.1218 17.8597C16.0569 17.9083 15.9809 17.9397 15.9007 17.951C15.8726 17.9626 15.8429 17.9697 15.8126 17.9719Z" fill="#263238"/>
<path d="M50.3833 49.6851C53.9968 49.5115 56.7855 46.441 56.6119 42.8269C56.4383 39.2128 53.3683 36.4237 49.7548 36.5973C46.1413 36.7709 43.3526 39.8414 43.5262 43.4555C43.6998 47.0696 46.7698 49.8587 50.3833 49.6851Z" fill="#263238"/>
<path d="M43.5217 43.0305C43.5217 43.0305 43.5217 43.0417 43.5217 43.0481C43.5072 44.7787 44.1779 46.4448 45.3875 47.6825C46.597 48.9202 48.2471 49.6289 49.9774 49.6539C51.7076 49.6788 53.3775 49.018 54.6222 47.8158C55.867 46.6135 56.5855 44.9675 56.6209 43.2371C56.6209 43.2371 56.6209 43.2259 56.6209 43.2195L43.5217 43.0305Z" fill="#263238"/>
<path d="M45.4712 43.0753C45.458 43.985 45.7148 44.8782 46.2091 45.642C46.7035 46.4057 47.4132 47.0056 48.2485 47.366C49.0838 47.7263 50.0071 47.8308 50.9018 47.6662C51.7965 47.5016 52.6222 47.0754 53.2747 46.4415C53.9272 45.8075 54.377 44.9942 54.5673 44.1046C54.7577 43.2149 54.6799 42.2888 54.344 41.4433C54.008 40.5978 53.4289 39.8709 52.6799 39.3546C51.9309 38.8383 51.0457 38.5557 50.1361 38.5427C48.9165 38.5251 47.74 38.9928 46.8651 39.8428C45.9903 40.6928 45.4889 41.8556 45.4712 43.0753Z" fill="#FAFAFA"/>
<path d="M50.1361 38.5427C48.9165 38.5251 47.74 38.9928 46.8651 39.8428C45.9903 40.6928 45.4889 41.8556 45.4712 43.0753L54.668 43.2083C54.6856 41.9885 54.218 40.8118 53.3681 39.9368C52.5182 39.0619 51.3556 38.5604 50.1361 38.5427Z" fill="#E0E0E0"/>
<path d="M47.2686 43.1009C47.2604 43.6551 47.4168 44.1993 47.7178 44.6647C48.0189 45.13 48.4512 45.4956 48.9601 45.7152C49.4689 45.9348 50.0314 45.9986 50.5765 45.8984C51.1216 45.7982 51.6247 45.5387 52.0222 45.1525C52.4198 44.7663 52.6939 44.2709 52.8099 43.7289C52.9259 43.1869 52.8786 42.6227 52.674 42.1075C52.4693 41.5924 52.1165 41.1496 51.6602 40.835C51.2039 40.5205 50.6646 40.3483 50.1105 40.3403C49.3677 40.3296 48.651 40.6144 48.1181 41.1321C47.5851 41.6498 47.2796 42.358 47.2686 43.1009Z" fill="#263238"/>
<path d="M46.9611 33.5357C46.9611 33.5357 53.6669 31.5073 56.4399 38.7942L42.4067 43.1426L46.9611 33.5357Z" fill="#FF725E"/>
<path d="M9.96927 49.6857C13.5828 49.5121 16.3714 46.4416 16.1978 42.8275C16.0243 39.2134 12.9542 36.4243 9.34071 36.5979C5.72719 36.7715 2.93856 39.842 3.11213 43.4561C3.2857 47.0702 6.35574 49.8593 9.96927 49.6857Z" fill="#263238"/>
<path d="M3.1057 43.0305C3.1057 43.0305 3.1057 43.0417 3.1057 43.0481C3.09116 44.7787 3.76191 46.4448 4.97147 47.6825C6.18102 48.9202 7.8311 49.6289 9.56135 49.6539C11.2916 49.6788 12.9614 49.018 14.2062 47.8158C15.451 46.6135 16.1695 44.9675 16.2049 43.2371V43.2163L3.1057 43.0305Z" fill="#263238"/>
<path d="M5.06176 43.0753C5.04855 43.985 5.30536 44.8782 5.79972 45.642C6.29407 46.4057 7.00377 47.0056 7.83906 47.366C8.67435 47.7263 9.59772 47.8308 10.4924 47.6662C11.387 47.5016 12.2128 47.0754 12.8653 46.4415C13.5177 45.8075 13.9676 44.9942 14.1579 44.1046C14.3483 43.2149 14.2705 42.2888 13.9346 41.4433C13.5986 40.5978 13.0195 39.8709 12.2705 39.3546C11.5215 38.8383 10.6362 38.5557 9.72666 38.5427C8.50711 38.5251 7.33053 38.9928 6.45571 39.8428C5.58089 40.6928 5.07948 41.8556 5.06176 43.0753Z" fill="#FAFAFA"/>
<path d="M9.72026 38.5426C8.50181 38.5268 7.32688 38.9952 6.45345 39.8451C5.58002 40.6949 5.07949 41.8567 5.06177 43.0753L14.2586 43.2083C14.2673 42.6038 14.1568 42.0035 13.9333 41.4418C13.7099 40.88 13.3779 40.3679 12.9564 39.9346C12.5349 39.5012 12.0321 39.1553 11.4769 38.9164C10.9216 38.6776 10.3247 38.5506 9.72026 38.5426Z" fill="#E0E0E0"/>
<path d="M6.85284 43.1009C6.84466 43.6551 7.001 44.1993 7.30207 44.6647C7.60315 45.13 8.03545 45.4956 8.54429 45.7152C9.05312 45.9348 9.61565 45.9986 10.1607 45.8984C10.7058 45.7982 11.2089 45.5387 11.6065 45.1525C12.004 44.7663 12.2781 44.2709 12.3941 43.7289C12.5101 43.1869 12.4628 42.6227 12.2582 42.1075C12.0535 41.5924 11.7008 41.1496 11.2445 40.835C10.7882 40.5205 10.2489 40.3483 9.69472 40.3403C8.95188 40.3296 8.2352 40.6144 7.70228 41.1321C7.16935 41.6498 6.86381 42.358 6.85284 43.1009Z" fill="#263238"/>
<path d="M18.9717 40.5117C18.9349 40.531 15.5243 39.9846 15.5243 39.9846C15.3399 40.2254 15.1052 40.4229 14.8365 40.5635C14.5678 40.7041 14.2717 40.7843 13.9688 40.7985C12.495 40.869 11.0548 40.9347 9.80371 40.9908C9.24471 41.0158 8.71839 41.2613 8.34006 41.6736C7.96172 42.086 7.76222 42.6315 7.78524 43.1906C7.80773 43.7214 8.02893 44.2242 8.40493 44.5994C8.78093 44.9746 9.28423 45.1946 9.81492 45.2158L17.0766 45.5026C18.2701 45.5491 19.856 44.8249 20.6009 43.8908L18.9717 40.5117Z" fill="#455A64"/>
<path d="M1.14971 37.6086C1.14971 37.6086 0.838933 31.2238 6.83826 29.8939V29.0752H27.8527V31.0395C27.8527 31.0395 24.769 34.755 25.7702 37.8393C26.7714 40.9235 27.0918 41.2392 27.0918 41.2392H39.052C39.9958 39.9126 40.5219 38.3342 40.5627 36.7065C40.6267 33.9988 39.5022 29.37 38.6611 26.4107C37.9018 23.711 37.4212 21.4615 37.4212 21.4615L41.0096 20.2646C41.0096 20.2646 47.6497 28.9566 47.9205 29.4373C48.1912 29.918 49.1139 31.0651 48.8977 33.5614C48.6814 36.0576 42.7077 43.7578 41.141 44.6262C39.5743 45.4946 38.1581 45.5491 36.7468 45.7654C35.5229 45.9545 26.4686 45.8295 24.0994 45.7926C23.276 45.7875 22.4688 45.5635 21.7605 45.1438C21.0524 44.7144 20.5206 44.003 19.9327 42.8366L18.6783 40.3948L1.14971 37.6086Z" fill="#FF725E"/>
<path d="M2.75822 37.1696L0.111792 41.3161C0.0332361 41.431 -0.005765 41.5684 0.000689512 41.7075C0.00714403 41.8465 0.0586997 41.9797 0.147563 42.0869C0.236427 42.194 0.357767 42.2693 0.493225 42.3014C0.628683 42.3335 0.770895 42.3205 0.898354 42.2646C1.22768 42.1174 1.52861 41.9134 1.78744 41.6621C2.99692 40.5102 5.15155 37.4756 5.15155 37.4756L2.75822 37.1696Z" fill="#455A64"/>
<path d="M21.7398 37.9162C21.7398 37.9162 21.7398 37.8954 21.7558 37.8553L21.8087 37.6807C21.8724 37.4565 21.9189 37.2278 21.948 36.9965C22.0367 36.1407 21.8951 35.2766 21.5379 34.4939C21.2977 33.9537 20.9679 33.458 20.5623 33.0278C20.0966 32.5366 19.5559 32.1223 18.9604 31.8005C18.3004 31.4441 17.5941 31.181 16.8618 31.0187C16.0723 30.8483 15.2665 30.7651 14.4589 30.7703C13.6548 30.7762 12.8521 30.8356 12.0559 30.9482C11.2806 31.0523 10.5373 31.1805 9.83563 31.3407C8.58994 31.6053 7.38928 32.0495 6.27128 32.6593C5.52049 33.076 4.83456 33.6001 4.23519 34.2151C4.02373 34.433 3.87155 34.614 3.77062 34.7374L3.65689 34.88C3.64473 34.897 3.63077 34.9125 3.61523 34.9265C3.79198 34.6649 3.9914 34.4193 4.21116 34.1926C4.80539 33.566 5.49007 33.0319 6.24244 32.6081C7.36241 31.9872 8.56776 31.5348 9.81962 31.2654C10.5213 31.1052 11.2614 30.9722 12.0447 30.8665C12.8472 30.7528 13.6564 30.6929 14.4669 30.687C15.2789 30.6816 16.0891 30.766 16.8826 30.9386C17.6222 31.1064 18.3349 31.376 19.0004 31.7397C19.6043 32.066 20.1521 32.4869 20.6232 32.9862C21.0317 33.4237 21.3626 33.9276 21.602 34.4762C21.9578 35.2695 22.0917 36.1444 21.9897 37.0077C21.956 37.24 21.9024 37.4688 21.8295 37.6919C21.8039 37.7656 21.7846 37.8217 21.7686 37.8649C21.7605 37.8828 21.7509 37.9 21.7398 37.9162Z" fill="#263238"/>
<path d="M20.5302 36.487C20.5206 36.487 20.5639 36.386 20.6087 36.2034C20.6688 35.9405 20.6769 35.6683 20.6328 35.4023C20.5704 35.0111 20.438 34.6345 20.2419 34.2903C20.1309 34.0844 20.0011 33.8892 19.8542 33.7071C19.7004 33.5091 19.5259 33.3281 19.3336 33.1672C18.9587 32.8585 18.5369 32.6119 18.084 32.4366C17.7135 32.2912 17.3292 32.1839 16.937 32.1161C16.6719 32.0714 16.4045 32.0409 16.1361 32.0248C16.0374 32.0235 15.939 32.016 15.8413 32.0024C15.8668 31.9986 15.8927 31.9986 15.9182 32.0024C15.9679 32.0024 16.0416 32.0024 16.1377 32.0024C16.4058 32.0063 16.6734 32.0283 16.9387 32.0681C17.3371 32.1253 17.7282 32.2257 18.1049 32.3677C18.5694 32.5426 19.0022 32.7921 19.3864 33.1063C19.5825 33.2715 19.7608 33.4568 19.9183 33.6591C20.0656 33.8463 20.1958 34.0463 20.3076 34.2567C20.5059 34.6093 20.6353 34.9965 20.6888 35.3975C20.7286 35.6682 20.7117 35.9443 20.6392 36.2082C20.6202 36.2794 20.5945 36.3486 20.5623 36.4149C20.555 36.4403 20.5442 36.4646 20.5302 36.487Z" fill="#F5F5F5"/>
<g opacity="0.4">
<path d="M16.4148 30.8889C17.5459 31.0955 18.6226 31.5318 19.5787 32.1707C20.5399 32.809 21.2802 33.7291 21.6981 34.8047C22.1178 35.8846 22.0553 37.3154 21.6131 38.2094L23.0982 38.3328C23.598 36.6649 23.0549 34.6189 21.8534 33.3131C21.166 32.5517 20.3271 31.9422 19.3906 31.5237C18.4541 31.1051 17.4405 30.8867 16.4148 30.8825" fill="black"/>
</g>
<path d="M15.9407 17.8469H2.95041C2.19131 17.8469 1.57593 18.4624 1.57593 19.2216V27.7053C1.57593 28.4645 2.19131 29.08 2.95041 29.08H15.9407C16.6998 29.08 17.3152 28.4645 17.3152 27.7053V19.2216C17.3152 18.4624 16.6998 17.8469 15.9407 17.8469Z" fill="#455A64"/>
<path d="M17.3151 20.3528C17.3151 20.3768 13.7763 20.3944 9.4126 20.3944C5.04887 20.3944 1.50854 20.3768 1.50854 20.3528C1.50854 20.3287 5.04567 20.3111 9.4126 20.3111C13.7795 20.3111 17.3151 20.3303 17.3151 20.3528Z" fill="#263238"/>
<path d="M27.8431 29.8234C27.8431 29.8458 23.119 29.8651 17.2942 29.8651C11.4695 29.8651 6.74536 29.8458 6.74536 29.8234C6.74536 29.801 11.4679 29.7817 17.2942 29.7817C23.1206 29.7817 27.8431 29.801 27.8431 29.8234Z" fill="#263238"/>
<path d="M27.8528 29.08C28.0669 28.8087 28.1992 28.4818 28.2341 28.1379C28.2661 27.6108 28.0259 26.9507 27.4572 26.9507H20.2003C19.6356 26.9507 19.0941 27.175 18.6949 27.5744C18.2956 27.9737 18.0713 28.5153 18.0713 29.08H27.8528Z" fill="#455A64"/>
<path d="M37.4212 21.4615L36.1589 18.8291C35.9904 18.4677 35.9627 18.0564 36.0812 17.6757C36.1997 17.295 36.4559 16.9721 36.7997 16.7702L40.5739 14.5191C40.7708 14.4007 40.9962 14.3381 41.2259 14.3381H42.0413L42.3617 19.659L41.1057 20.1445L41.9067 21.4391L37.4212 21.4615Z" fill="#FF725E"/>
<path d="M42.0525 14.5367C42.0525 14.5367 43.3437 14.8332 43.5055 16.8231C43.6673 18.813 42.3665 19.4347 42.3665 19.4347L42.0525 14.5367Z" fill="#EBEBEB"/>
<path d="M37.8618 17.7973C37.8618 17.7973 35.2522 19.0342 34.9335 19.2393C34.7124 19.3802 34.5234 19.627 34.6964 20.0612C34.9911 20.7998 36.2118 20.1044 36.2118 20.1044L38.642 18.89C38.642 18.89 39.5759 18.4494 39.2299 17.8966C38.8438 17.2781 37.8618 17.7973 37.8618 17.7973Z" fill="#263238"/>
<path d="M34.1678 17.347C34.1678 17.347 36.6204 17.7668 36.8286 17.8277C37.0369 17.8886 37.8539 18.2715 37.8955 18.5215C37.9171 18.8496 37.9171 19.1787 37.8955 19.5068C37.8955 19.5068 37.7482 19.627 37.6552 19.3867C37.5949 19.1524 37.5684 18.9107 37.5767 18.6689L37.1186 18.4926L37.3685 18.9364L37.4101 19.9779C37.4101 19.9779 37.0897 19.949 37.0289 19.6991C36.9895 19.5266 36.9691 19.3504 36.968 19.1736L36.6332 18.89L36.8831 19.228L36.968 19.9779C36.968 19.9779 36.7245 20.0564 36.6476 19.8898C36.5913 19.6737 36.5633 19.4513 36.5643 19.228L35.6224 18.8996L34.9992 19.2473L34.0188 18.7025L34.1678 17.347Z" fill="#FFBE9D"/>
<path d="M37.9869 13.9311C37.9869 14.9245 37.5303 15.7288 36.9681 15.7288C36.4058 15.7288 35.9492 14.9277 35.9492 13.9311C35.9492 12.9345 36.4042 12.1334 36.9681 12.1334C37.5319 12.1334 37.9869 12.9345 37.9869 13.9311Z" fill="#263238"/>
<path d="M37.1345 15.1664L37.6952 17.1083C37.7975 17.0567 37.8792 16.9717 37.9267 16.8674C37.9742 16.7631 37.9846 16.6457 37.9563 16.5347C37.8154 15.8698 37.7353 15.3971 37.5815 14.8139C37.5622 14.7562 37.1345 15.1664 37.1345 15.1664Z" fill="#263238"/>
<g opacity="0.4">
<path d="M26.0477 38.6612C25.9932 38.5009 25.9356 38.3407 25.8875 38.1693C25.8395 37.9978 25.7786 37.8488 25.7369 37.6886C25.6723 37.4483 25.6252 37.2036 25.596 36.9564C24.6508 40.8017 26.0942 43.5142 28.5708 43.7049C32.1912 43.9837 36.6046 44.1856 38.3892 43.7177C41.6428 42.8638 42.8362 40.1496 43.1214 39.7026C43.4065 39.2556 45.9937 34.5243 44.4029 29.9692C42.8122 25.4141 40.0536 20.577 40.0536 20.577L37.4216 21.4614C37.4216 21.4614 37.9022 23.7045 38.6663 26.4027C39.5074 29.3619 40.6319 33.9907 40.5678 36.6985C40.5271 38.3261 40.001 39.9045 39.0572 41.2311H27.0986C27.0986 41.2311 26.8423 40.9747 26.0525 38.6676" fill="black"/>
</g>
<path d="M0.672454 36.612L0.757357 35.6987L22.5888 38.2142C22.8806 38.2485 23.1623 38.3421 23.4166 38.4893C23.6709 38.6364 23.8924 38.834 24.0676 39.0698C24.2429 39.3057 24.368 39.5749 24.4355 39.8608C24.5029 40.1468 24.5113 40.4436 24.4599 40.7329L24.3622 41.2856L1.7746 38.0027C1.44699 37.9579 1.14938 37.7881 0.943982 37.529C0.738584 37.2698 0.641295 36.9412 0.672454 36.612Z" fill="#FF725E"/>
<g opacity="0.6">
<path d="M0.672454 36.612L0.757357 35.6987L22.5888 38.2142C22.8806 38.2485 23.1623 38.3421 23.4166 38.4893C23.6709 38.6364 23.8924 38.834 24.0676 39.0698C24.2429 39.3057 24.368 39.5749 24.4355 39.8608C24.5029 40.1468 24.5113 40.4436 24.4599 40.7329L24.3622 41.2856L1.7746 38.0027C1.44699 37.9579 1.14938 37.7881 0.943982 37.529C0.738584 37.2698 0.641295 36.9412 0.672454 36.612Z" fill="black"/>
</g>
<g opacity="0.3">
<path d="M43.1208 42.7196C43.1208 42.7196 47.9267 37.4323 48.9183 33.2762C49.4166 33.2733 49.9142 33.3102 50.4065 33.3867C50.4065 33.3867 47.5647 41.1142 43.1208 42.7196Z" fill="black"/>
</g>
<path d="M48.8481 31.4144C48.8605 31.4579 48.8691 31.5024 48.8737 31.5474C48.8865 31.6355 48.9122 31.7653 48.9282 31.9335C48.9751 32.4139 48.9627 32.8982 48.8913 33.3755C48.7785 34.0805 48.5626 34.765 48.2506 35.4071C47.8699 36.1889 47.4452 36.9485 46.9786 37.6823C46.1412 39.0214 45.2007 40.2931 44.1656 41.4859C43.7747 41.949 43.4511 42.3175 43.2268 42.5706L42.9673 42.8606C42.9378 42.8951 42.9063 42.9277 42.8728 42.9583C42.8966 42.9201 42.9239 42.8841 42.9545 42.851L43.2028 42.5498L44.1207 41.4491C45.1395 40.2472 46.071 38.9739 46.9081 37.639C47.3752 36.9077 47.803 36.152 48.1897 35.3751C48.4976 34.7392 48.7134 34.0627 48.8305 33.3659C48.9041 32.8955 48.925 32.4183 48.893 31.9432C48.8817 31.7749 48.8609 31.6451 48.8545 31.5554C48.8477 31.5088 48.8455 31.4615 48.8481 31.4144Z" fill="#263238"/>
<path d="M40.5404 42.6811C40.2652 42.4705 40.0075 42.238 39.7699 41.9858C39.5133 41.7533 39.2755 41.501 39.0586 41.2311C39.5908 41.6737 40.0864 42.1587 40.5404 42.6811Z" fill="#263238"/>
<path d="M26.2766 42.5193C26.354 42.2724 26.4738 42.0409 26.6306 41.8352C26.7643 41.6138 26.935 41.4171 27.1353 41.2536C27.1529 41.2712 26.9334 41.534 26.6995 41.8817C26.4656 42.2293 26.299 42.529 26.2766 42.5193Z" fill="#263238"/>
<path d="M17.043 45.5715C17.3058 45.3318 17.5272 45.0503 17.6982 44.7384C17.8775 44.3978 17.9865 44.0245 18.0186 43.6409C18.0671 43.1731 17.9854 42.7011 17.7824 42.277C17.5794 41.8528 17.2631 41.4931 16.8684 41.2376C16.5502 41.0213 16.1917 40.8715 15.8143 40.797C15.4645 40.7338 15.1067 40.7289 14.7554 40.7825C14.778 40.7728 14.8016 40.7658 14.8259 40.7617C14.8954 40.7435 14.966 40.7296 15.0373 40.72C15.2994 40.685 15.5654 40.6914 15.8255 40.7393C16.2135 40.8078 16.5833 40.9556 16.9116 41.1735C17.3221 41.4342 17.6508 41.8053 17.8602 42.2442C18.0695 42.6831 18.1511 43.1722 18.0954 43.6553C18.0587 44.049 17.9409 44.4309 17.7494 44.7768C17.6235 45.0094 17.4613 45.2203 17.2688 45.4017C17.2185 45.4516 17.165 45.4981 17.1086 45.5411C17.0881 45.5539 17.066 45.5641 17.043 45.5715Z" fill="#263238"/>
<path d="M9.06674 43.8973C9.01178 43.6447 8.98545 43.3867 8.98824 43.1282C8.96062 42.8704 8.96062 42.6105 8.98824 42.3527C9.06824 42.8634 9.09295 43.3813 9.06193 43.8973H9.06674Z" fill="#263238"/>
<path d="M9.64992 43.8988C9.53003 43.3913 9.46398 42.8725 9.45288 42.3511C9.52586 42.6019 9.57257 42.8596 9.59225 43.1201C9.63866 43.377 9.65799 43.6379 9.64992 43.8988Z" fill="#263238"/>
<path d="M18.6543 29.08C18.6543 29.1024 15.9998 29.1216 12.727 29.1216C9.45425 29.1216 6.7998 29.1024 6.7998 29.08C6.7998 29.0576 9.45425 29.0383 12.727 29.0383C15.9998 29.0383 18.6543 29.056 18.6543 29.08Z" fill="#263238"/>
<path d="M10.0583 29.072C10.0342 29.072 10.0166 26.0278 10.0166 22.2818C10.0166 18.5358 10.0278 15.498 10.0583 15.498C10.0887 15.498 10.0999 18.5422 10.0999 22.2898C10.0999 26.0374 10.0807 29.072 10.0583 29.072Z" fill="#263238"/>
<path d="M8.42592 29.0608C8.40349 29.0608 8.51723 26.0166 8.68063 22.2738C8.84403 18.531 9.00102 15.4884 9.01704 15.4901C9.03306 15.4917 8.92733 18.5342 8.76393 22.277C8.60053 26.0198 8.45635 29.0624 8.42592 29.0608Z" fill="#263238"/>
<path d="M4.75589 47.5903C4.73012 47.5686 4.70651 47.5445 4.6854 47.5182C4.64375 47.4701 4.57487 47.4012 4.49958 47.3035C4.27813 47.0314 4.08036 46.7409 3.90845 46.4351C3.32859 45.4227 3.02579 44.2752 3.03057 43.1085C3.03535 41.9417 3.34754 40.7968 3.93569 39.7891C4.10939 39.4845 4.30933 39.1955 4.53322 38.9256C4.61011 38.8278 4.679 38.7653 4.72225 38.7109C4.7655 38.6564 4.79113 38.6388 4.79274 38.642C4.77686 38.6709 4.75749 38.6978 4.73506 38.7221C4.69662 38.7749 4.63093 38.8454 4.55885 38.9464C3.73709 39.9933 3.24201 41.2593 3.13545 42.586C3.0289 43.9128 3.31559 45.2415 3.95972 46.4063C4.12557 46.7124 4.31462 47.0054 4.52521 47.2827C4.59569 47.3836 4.65977 47.4557 4.69822 47.5086C4.73667 47.5615 4.75909 47.5871 4.75589 47.5903Z" fill="#455A64"/>
<path d="M27.7055 35.3831L27.6558 35.476L26.6882 37.2881L25.3362 38.5891L28.0387 42.1876L30.2894 41.8143C30.2894 41.8143 30.0379 41.3 28.9069 41.2007L28.4792 39.0505L30.0668 36.5895" fill="#455A64"/>
<path d="M25.3394 38.5939L28.0419 42.1925L30.2926 41.8191L29.9834 41.5227L28.1364 41.7246L25.6277 38.3167L25.3394 38.5939Z" fill="#E0E0E0"/>
<path d="M28.7308 40.2169C28.718 40.2426 28.5706 40.1897 28.4104 40.225C28.2502 40.2602 28.1204 40.3515 28.0996 40.3323C28.0788 40.3131 28.1797 40.1625 28.3912 40.1256C28.6026 40.0888 28.7484 40.1961 28.7308 40.2169Z" fill="#263238"/>
<path d="M28.6106 39.6915C28.5913 39.7107 28.468 39.5953 28.2902 39.5889C28.1123 39.5825 27.9698 39.6899 27.9554 39.669C27.9409 39.6482 27.9666 39.6194 28.0242 39.5729C28.1022 39.516 28.1969 39.4867 28.2934 39.4896C28.3899 39.4921 28.4827 39.5277 28.5561 39.5905C28.5993 39.6354 28.6106 39.6786 28.6106 39.6915Z" fill="#263238"/>
<path d="M28.5064 38.9945C28.4839 39.0121 28.3846 38.8951 28.2196 38.8663C28.0546 38.8375 27.9216 38.9128 27.8992 38.8887C27.8768 38.8647 27.9136 38.8423 27.9729 38.8086C28.0511 38.7672 28.141 38.7532 28.2281 38.7689C28.3153 38.7846 28.3946 38.829 28.4535 38.8951C28.508 38.9464 28.5176 38.9881 28.5064 38.9945Z" fill="#263238"/>
<path d="M29.0192 38.3616C28.9951 38.3744 28.9102 38.2574 28.7549 38.1902C28.5995 38.1229 28.4585 38.1325 28.4521 38.1052C28.4457 38.078 28.6123 38.0123 28.7965 38.1052C28.9807 38.1982 29.0464 38.3536 29.0192 38.3616Z" fill="#263238"/>
<path d="M29.2369 37.8505C29.2257 37.8585 29.1376 37.7816 29.0014 37.647L28.7707 37.4083C28.7185 37.3616 28.6732 37.3076 28.6362 37.2481C28.6254 37.2266 28.619 37.2033 28.6174 37.1793C28.6157 37.1554 28.6188 37.1314 28.6266 37.1087C28.6357 37.0828 28.6522 37.0601 28.6742 37.0436C28.6961 37.027 28.7225 37.0174 28.7499 37.0157C28.8319 37.0169 28.9117 37.0425 28.979 37.0895C29.0377 37.127 29.0915 37.1717 29.1392 37.2224C29.2188 37.3101 29.2774 37.4148 29.3106 37.5285C29.3528 37.6311 29.3528 37.7463 29.3106 37.8489C29.2943 37.7499 29.2718 37.6519 29.2433 37.5557C29.2042 37.4571 29.146 37.3672 29.0719 37.2913C29.0282 37.248 28.9792 37.2103 28.9261 37.1792C28.8752 37.1459 28.8169 37.1255 28.7563 37.1199C28.7479 37.12 28.7397 37.1227 28.7329 37.1276C28.726 37.1324 28.7208 37.1392 28.7179 37.1471C28.7092 37.1682 28.7092 37.1918 28.7179 37.2128C28.7491 37.2644 28.7868 37.3118 28.83 37.3538L29.0495 37.6086C29.1245 37.6787 29.1877 37.7604 29.2369 37.8505Z" fill="#263238"/>
<path d="M29.3283 37.9034C29.317 37.9034 29.3058 37.7848 29.4052 37.6294C29.4727 37.5268 29.5716 37.4488 29.687 37.4069C29.8025 37.3651 29.9284 37.3616 30.0459 37.3971C30.0588 37.4055 30.0698 37.4166 30.078 37.4296C30.0863 37.4425 30.0918 37.4571 30.094 37.4724C30.0961 37.4985 30.0905 37.5247 30.078 37.5477C30.06 37.5797 30.0367 37.6084 30.0091 37.6326C29.9645 37.6757 29.9163 37.7148 29.8649 37.7496C29.7784 37.8078 29.6832 37.8521 29.583 37.8809C29.4935 37.9172 29.3949 37.9245 29.301 37.9018C29.301 37.8857 29.4052 37.8761 29.5605 37.8136C29.65 37.7782 29.7345 37.7313 29.8121 37.6742C29.8578 37.6405 29.9007 37.603 29.9402 37.5621C29.9597 37.545 29.9764 37.525 29.9899 37.5028C29.9979 37.4804 29.9899 37.4868 29.9899 37.482C29.9681 37.4726 29.9447 37.4677 29.921 37.4676C29.8927 37.4651 29.8643 37.4651 29.8361 37.4676C29.7811 37.4724 29.7271 37.4854 29.6759 37.506C29.5893 37.5397 29.5127 37.5949 29.4532 37.6662C29.4063 37.7424 29.3645 37.8216 29.3283 37.9034Z" fill="#263238"/>
<path d="M27.124 38.227C27.1328 38.2799 27.1257 38.3342 27.1036 38.383C27.0816 38.4318 27.0455 38.473 27.0001 38.5013C26.9546 38.5297 26.9017 38.5439 26.8482 38.5422C26.7946 38.5404 26.7428 38.5228 26.6992 38.4916C26.6557 38.4604 26.6224 38.417 26.6035 38.3668C26.5846 38.3167 26.5811 38.262 26.5933 38.2099C26.6055 38.1577 26.6329 38.1103 26.672 38.0737C26.7112 38.0371 26.7603 38.013 26.8132 38.0043C26.8838 37.9932 26.9561 38.0103 27.0142 38.0519C27.0724 38.0936 27.1118 38.1565 27.124 38.227Z" fill="#E0E0E0"/>
<path d="M35.9075 37.1134L36.63 41.8047L42.4723 40.9363C42.3538 40.3836 39.1659 39.7122 39.1659 39.7122L38.8262 36.6873L35.9075 37.1134Z" fill="#455A64"/>
<path d="M37.3221 39.7283C37.2683 39.7535 37.2258 39.7978 37.2027 39.8525C37.1796 39.9072 37.1777 39.9686 37.1971 40.0247C37.2209 40.079 37.2643 40.1223 37.3188 40.1458C37.3732 40.1693 37.4345 40.1713 37.4903 40.1513C37.5482 40.124 37.5938 40.0758 37.6178 40.0164C37.6419 39.9571 37.6427 39.8908 37.62 39.8308C37.5899 39.776 37.5395 39.7352 37.4797 39.7169C37.4199 39.6987 37.3553 39.7045 37.2997 39.7331" fill="#E0E0E0"/>
<path d="M36.6299 41.8047L36.5754 41.3241L42.1967 40.6688C42.1967 40.6688 42.4739 40.7441 42.4723 40.9315L36.6299 41.8047Z" fill="#E0E0E0"/>
<path d="M39.2556 39.669C39.2556 39.6978 39.1194 39.7315 38.9913 39.8436C38.8631 39.9558 38.8086 40.0872 38.7798 40.0807C38.751 40.0743 38.7702 39.9013 38.9256 39.7683C39.081 39.6353 39.2588 39.6417 39.2556 39.669Z" fill="#263238"/>
<path d="M39.906 39.8308C39.9172 39.858 39.8003 39.9237 39.7218 40.0599C39.6433 40.1961 39.6337 40.3259 39.6048 40.3291C39.576 40.3323 39.5343 40.1689 39.6353 40.0087C39.7362 39.8484 39.9012 39.8036 39.906 39.8308Z" fill="#263238"/>
<path d="M40.3641 40.5117C40.3385 40.523 40.2776 40.3852 40.3273 40.2185C40.3769 40.0519 40.5019 39.9686 40.5179 39.991C40.5339 40.0135 40.4634 40.1096 40.4234 40.2474C40.3833 40.3852 40.3913 40.5053 40.3641 40.5117Z" fill="#263238"/>
<path d="M39.1017 38.9881C39.1017 39.0153 38.9576 38.9961 38.7974 39.0297C38.6372 39.0634 38.5202 39.1355 38.501 39.1131C38.4818 39.0906 38.5891 38.9705 38.7765 38.932C38.964 38.8936 39.1129 38.9624 39.1017 38.9881Z" fill="#263238"/>
<path d="M38.8632 38.3151C38.771 38.3553 38.6697 38.3697 38.57 38.3568C38.4617 38.3538 38.3541 38.3376 38.2496 38.3087C38.1858 38.2935 38.1232 38.2736 38.0622 38.2494C38.0266 38.2367 37.9935 38.2177 37.9645 38.1933C37.9424 38.1763 37.9269 38.1522 37.9205 38.1251C37.9141 38.098 37.9172 38.0695 37.9292 38.0443C37.9405 38.0222 37.9569 38.003 37.9769 37.9883C37.9969 37.9735 38.0201 37.9637 38.0446 37.9594C38.0812 37.9538 38.1185 37.9538 38.1551 37.9594C38.2203 37.9642 38.2847 37.976 38.3473 37.9947C38.4526 38.0245 38.5525 38.0705 38.6437 38.1309C38.8039 38.2366 38.86 38.3359 38.8504 38.344C38.8407 38.352 38.759 38.2751 38.6069 38.1917C38.5175 38.1435 38.4222 38.1074 38.3233 38.0844C38.2657 38.0693 38.2066 38.0601 38.1471 38.0572C38.083 38.0572 38.0302 38.0572 38.0189 38.0876C38.0077 38.118 38.0189 38.102 38.0302 38.1196C38.0522 38.1363 38.0765 38.1498 38.1022 38.1597C38.1571 38.1845 38.2133 38.2064 38.2704 38.2254C38.368 38.2566 38.4683 38.2786 38.57 38.2911C38.6682 38.2921 38.7661 38.3001 38.8632 38.3151Z" fill="#263238"/>
<path d="M38.8295 38.3616C38.8199 38.3616 38.7478 38.2735 38.7093 38.0908C38.6919 37.9847 38.6919 37.8765 38.7093 37.7704C38.7197 37.7061 38.7358 37.6428 38.7574 37.5813C38.767 37.541 38.7868 37.5038 38.8148 37.4732C38.8429 37.4426 38.8782 37.4198 38.9176 37.4067C38.9436 37.4034 38.9701 37.4075 38.9939 37.4185C39.0177 37.4296 39.0379 37.4472 39.0522 37.4692C39.0723 37.5016 39.088 37.5367 39.0986 37.5733C39.1183 37.6372 39.128 37.7036 39.1275 37.7704C39.1275 37.8822 39.0999 37.9922 39.0474 38.0908C38.956 38.2511 38.8423 38.3103 38.8391 38.3007C38.8359 38.2911 38.9176 38.219 38.9833 38.0604C39.0215 37.9692 39.039 37.8707 39.0345 37.772C39.033 37.7147 39.0227 37.658 39.0041 37.6038C38.9865 37.5429 38.956 37.4964 38.9336 37.506C38.9112 37.5156 38.8615 37.5637 38.8455 37.6166C38.8238 37.6716 38.8072 37.7284 38.7958 37.7864C38.7777 37.8852 38.7734 37.9861 38.783 38.086C38.7974 38.2495 38.8439 38.3552 38.8295 38.3616Z" fill="#263238"/>
<path d="M31.3116 26.0935L26.3022 37.0109L29.6103 38.9977L36.5371 25.8611" fill="#263238"/>
<path d="M39.5727 39.246L35.9795 39.8228L33.8281 26.9827L23.1991 27.7533C22.918 27.7729 22.6355 27.7464 22.3629 27.6748C19.3785 26.8561 19.7822 23.0493 20.0705 22.4388L34.7781 22.0174C35.5486 21.995 36.3003 22.2578 36.8892 22.7554C37.478 23.253 37.8626 23.9504 37.9692 24.714L39.5727 39.246Z" fill="#263238"/>
<path d="M19.9216 23.0413L19.9745 17.613C19.9745 17.613 19.2744 14.0881 19.0662 12.6958C18.7458 10.5424 18.3036 9.51861 21.8311 7.9885L22.6033 7.69049L23.7967 7.70651C25.2193 7.81386 26.7187 9.10043 26.754 9.9496L28.13 22.1857L19.9216 23.0413Z" fill="#FF725E"/>
<path d="M20.1425 9.24945C20.1425 9.24945 19.1461 11.3932 19.3416 13.3463L23.0533 16.9096C23.8847 17.8357 24.926 18.2298 26.2572 18.3099L33.937 19.1495L34.1501 17.1403L26.8483 15.0703C26.5568 15.0158 26.411 14.713 26.1883 14.5175L20.1425 9.24945Z" fill="#FF725E"/>
<path d="M19.542 9.86788C19.5851 9.82663 19.635 9.79304 19.6894 9.76854C19.8475 9.69887 20.0147 9.65194 20.186 9.62915C20.4607 9.58407 20.741 9.58407 21.0158 9.62915C21.1007 9.64455 21.1828 9.67264 21.2593 9.71246C21.3375 9.76157 21.413 9.81506 21.4852 9.87268C21.6325 9.98804 21.7815 10.121 21.9337 10.2652C22.2413 10.552 22.5328 10.9157 22.8741 11.2842C23.2153 11.6527 23.5885 12.0485 23.9954 12.4635C24.4023 12.8784 24.8397 13.3126 25.3074 13.7612C25.5429 13.9856 25.788 14.2131 26.0427 14.4358C26.1725 14.5415 26.3006 14.6665 26.424 14.7835C26.5402 14.9037 26.687 14.9901 26.8485 15.0334L34.1647 17.1002L34.1983 17.1099V17.1451C34.1839 17.2877 34.1663 17.4399 34.1502 17.5953C34.0942 18.1289 34.0381 18.6576 33.99 19.1543V19.1959H33.9484L30.6932 18.8338L29.1553 18.6656L27.6831 18.5166C27.2025 18.4637 26.7396 18.4093 26.2894 18.3436C25.8497 18.2896 25.4169 18.1891 24.9983 18.044C24.6124 17.897 24.2472 17.7004 23.9121 17.4591C23.5917 17.2332 23.2906 16.9977 23.0134 16.7654C21.9161 15.8297 21.1103 14.9917 20.5512 14.4214C20.2741 14.1346 20.061 13.9086 19.9184 13.7548L19.7583 13.5786L19.7054 13.5161C19.7054 13.5161 19.7262 13.5337 19.7647 13.5722C19.8031 13.6106 19.8592 13.6699 19.9249 13.7436L20.5656 14.4005C21.1311 14.9629 21.9433 15.7945 23.0423 16.7221C23.3194 16.9512 23.6158 17.1852 23.9378 17.4079C24.2707 17.6442 24.6325 17.8369 25.0143 17.9815C25.4301 18.1233 25.8596 18.2211 26.2958 18.2731C26.746 18.3372 27.2106 18.3916 27.6879 18.4429L29.1601 18.5871L30.698 18.7553L33.95 19.1094L33.9035 19.1463C33.9564 18.6496 34.0125 18.1209 34.0637 17.5857C34.0813 17.4255 34.0974 17.2781 34.1118 17.1355L34.1422 17.1804L26.8373 15.1055C26.659 15.0612 26.4968 14.9673 26.3695 14.8347C26.2398 14.7114 26.1228 14.596 25.9899 14.4854C25.732 14.2611 25.4901 14.032 25.2546 13.8077C24.7868 13.3575 24.3511 12.9201 23.9458 12.5035C23.5405 12.0869 23.1688 11.6896 22.8244 11.3163C22.48 10.943 22.198 10.5809 21.8937 10.2941C21.7537 10.1551 21.606 10.0241 21.4515 9.90152C21.3818 9.84288 21.3079 9.78933 21.2305 9.7413C21.1579 9.70184 21.0795 9.67425 20.9982 9.65959C20.7279 9.61007 20.4513 9.60574 20.1796 9.64677C20.0095 9.66586 19.8429 9.70846 19.6846 9.77335C19.6347 9.80118 19.587 9.83278 19.542 9.86788Z" fill="#263238"/>
<path d="M21.4596 2.98159L21.8312 8.26888C21.8608 8.68458 22.0468 9.0736 22.3518 9.35754C22.6569 9.64149 23.0581 9.79923 23.4748 9.79899C23.7001 9.79903 23.9231 9.75282 24.1298 9.66323C24.3366 9.57363 24.5228 9.44255 24.6768 9.27809C24.8309 9.11364 24.9496 8.91931 25.0255 8.70714C25.1015 8.49497 25.1331 8.26946 25.1184 8.04457C25.0848 7.54148 25.0559 7.12971 25.0559 7.12971C25.0559 7.12971 26.3375 6.93104 26.3503 5.65087C26.3599 4.91225 26.2318 3.23634 26.1229 1.95137C26.087 1.53163 25.8947 1.14072 25.5839 0.85634C25.2732 0.571961 24.8668 0.414929 24.4456 0.416454H23.6719C23.3568 0.435591 23.0487 0.517642 22.7658 0.657766C22.4829 0.797889 22.2309 0.993249 22.0247 1.23233C21.8186 1.4714 21.6623 1.74935 21.5652 2.04978C21.4682 2.35022 21.4322 2.66705 21.4596 2.98159Z" fill="#FFBE9D"/>
<path d="M25.0575 7.10888C24.4671 7.12 23.8867 6.95549 23.3899 6.63623C23.3899 6.63623 23.784 7.5559 25.0607 7.43734L25.0575 7.10888Z" fill="#EB996E"/>
<path d="M25.836 3.59367C25.8364 3.64129 25.8182 3.68721 25.7853 3.72163C25.7524 3.75605 25.7073 3.77625 25.6597 3.77792C25.6368 3.78012 25.6136 3.77768 25.5915 3.77077C25.5695 3.76386 25.5491 3.75261 25.5314 3.73768C25.5138 3.72274 25.4994 3.70443 25.489 3.68383C25.4785 3.66322 25.4723 3.64074 25.4707 3.6177C25.4703 3.56991 25.4884 3.52382 25.5213 3.48914C25.5541 3.45446 25.5992 3.43392 25.6469 3.43184C25.6934 3.42831 25.7394 3.44335 25.7749 3.47369C25.8103 3.50402 25.8323 3.54716 25.836 3.59367Z" fill="#263238"/>
<path d="M25.9032 3.23318C25.8792 3.25721 25.743 3.15467 25.5443 3.15467C25.3457 3.15467 25.2047 3.25401 25.1823 3.22997C25.1599 3.20594 25.1951 3.1755 25.2592 3.13064C25.3436 3.07132 25.4444 3.03995 25.5476 3.04092C25.6501 3.04068 25.75 3.07324 25.8327 3.13384C25.8872 3.17871 25.9128 3.22196 25.9032 3.23318Z" fill="#263238"/>
<path d="M23.9905 3.59367C23.9914 3.64141 23.9733 3.68757 23.9403 3.72208C23.9073 3.75659 23.862 3.77666 23.8143 3.77792C23.7913 3.78012 23.7681 3.77768 23.7461 3.77077C23.724 3.76386 23.7036 3.75261 23.686 3.73768C23.6684 3.72274 23.6539 3.70443 23.6435 3.68383C23.6331 3.66322 23.6269 3.64074 23.6253 3.6177C23.6248 3.56991 23.6429 3.52382 23.6758 3.48914C23.7087 3.45446 23.7537 3.43392 23.8015 3.43184C23.848 3.42831 23.894 3.44335 23.9294 3.47369C23.9649 3.50402 23.9868 3.54716 23.9905 3.59367Z" fill="#263238"/>
<path d="M23.9649 3.26998C23.9424 3.29402 23.8047 3.19148 23.606 3.19148C23.4074 3.19148 23.2664 3.29081 23.2456 3.26678C23.2248 3.24275 23.2568 3.2123 23.3209 3.16744C23.4053 3.10813 23.5061 3.07675 23.6092 3.07772C23.7116 3.07702 23.8115 3.10901 23.8944 3.16905C23.9649 3.21551 23.9825 3.25877 23.9649 3.26998Z" fill="#263238"/>
<path d="M24.6841 4.72803C24.7881 4.69556 24.8957 4.67619 25.0045 4.67035C25.0541 4.67035 25.1022 4.65433 25.1102 4.62069C25.1155 4.56868 25.1037 4.51637 25.0766 4.47168L24.926 4.09036C24.7878 3.76674 24.6764 3.43236 24.5928 3.09058C24.7554 3.40251 24.8936 3.72659 25.0061 4.05991L25.147 4.44444C25.1791 4.50487 25.1887 4.57467 25.1743 4.64152C25.1669 4.65933 25.1556 4.67524 25.1412 4.68801C25.1267 4.70078 25.1096 4.71009 25.091 4.71522C25.0632 4.72238 25.0347 4.72614 25.0061 4.72643C24.8992 4.7405 24.7911 4.74104 24.6841 4.72803Z" fill="#263238"/>
<path d="M24.1059 4.86417C24.1379 4.86417 24.1379 5.07566 24.3205 5.22627C24.5032 5.37687 24.7306 5.35444 24.7322 5.38649C24.7338 5.41853 24.681 5.42654 24.5849 5.42975C24.46 5.43117 24.3387 5.38864 24.242 5.30958C24.1514 5.23255 24.094 5.12349 24.0818 5.00516C24.0674 4.92345 24.0914 4.86256 24.1059 4.86417Z" fill="#263238"/>
<path d="M24.0209 2.49937C24.0017 2.55224 23.8062 2.52821 23.5756 2.55545C23.3449 2.58269 23.1574 2.64678 23.127 2.59871C23.0966 2.55064 23.1462 2.52501 23.2215 2.47374C23.3217 2.40987 23.4351 2.36987 23.5532 2.35681C23.6712 2.34375 23.7907 2.35799 23.9024 2.39843C23.9873 2.43208 24.0305 2.47374 24.0209 2.49937Z" fill="#263238"/>
<path d="M25.8295 2.66438C25.7958 2.70924 25.6596 2.66438 25.4979 2.66438C25.3361 2.66438 25.1967 2.69322 25.1646 2.64676C25.1326 2.60029 25.1727 2.57946 25.2335 2.53781C25.3137 2.48522 25.4085 2.45942 25.5043 2.4641C25.5995 2.4661 25.6918 2.49744 25.7686 2.55383C25.8263 2.59709 25.8455 2.64195 25.8295 2.66438Z" fill="#263238"/>
<path d="M21.8904 3.94295C21.868 3.93334 21.0109 3.68179 21.0398 4.5566C21.0686 5.4314 21.9385 5.22312 21.9401 5.19748C21.9417 5.17185 21.8904 3.94295 21.8904 3.94295Z" fill="#FFBE9D"/>
<path d="M21.6613 4.87542C21.6613 4.87542 21.6469 4.88664 21.6213 4.89945C21.5846 4.91337 21.5442 4.91337 21.5075 4.89945C21.4502 4.86543 21.403 4.8168 21.3706 4.75853C21.3382 4.70026 21.3219 4.63444 21.3233 4.5678C21.3186 4.49292 21.3307 4.41795 21.3585 4.34829C21.3658 4.3206 21.3796 4.29506 21.3989 4.27386C21.4181 4.25266 21.4422 4.23642 21.4691 4.22652C21.4866 4.22159 21.5053 4.22289 21.5219 4.23019C21.5386 4.2375 21.5522 4.25036 21.5604 4.26658C21.5732 4.29061 21.5684 4.30824 21.5732 4.30984C21.578 4.31144 21.5908 4.29382 21.5828 4.25857C21.5775 4.23659 21.5644 4.21726 21.546 4.20409C21.5338 4.19547 21.52 4.18934 21.5054 4.18604C21.4909 4.18274 21.4758 4.18234 21.4611 4.18487C21.4243 4.19205 21.39 4.2089 21.3619 4.23367C21.3337 4.25845 21.3127 4.29027 21.3009 4.32586C21.2658 4.40258 21.2504 4.48683 21.256 4.571C21.2538 4.64895 21.2749 4.72578 21.3166 4.7917C21.3582 4.85762 21.4186 4.90963 21.4899 4.94111C21.5134 4.94733 21.5381 4.94812 21.5619 4.9434C21.5858 4.93868 21.6083 4.92858 21.6277 4.91387C21.6613 4.89625 21.6645 4.87702 21.6613 4.87542Z" fill="#EB996E"/>
<path d="M21.4018 3.91248C21.4851 3.90709 21.5682 3.92435 21.6424 3.96244C21.7165 4.00053 21.779 4.05801 21.8232 4.12878C21.8792 4.25375 21.892 4.39475 21.9481 4.51972C21.9723 4.58395 22.0165 4.6387 22.0742 4.67591C22.1319 4.71312 22.2 4.73082 22.2685 4.72641C22.3139 4.71216 22.3548 4.68612 22.3869 4.65094C22.4189 4.61575 22.4411 4.57269 22.4511 4.52613C22.4695 4.43304 22.4695 4.33723 22.4511 4.24414C22.3999 3.83558 22.315 3.43182 22.2989 3.02005C22.2647 2.60693 22.3545 2.19299 22.5568 1.83121C22.6594 1.652 22.8086 1.50391 22.9886 1.40264C23.1685 1.30137 23.3725 1.25071 23.5789 1.25602C23.8512 1.27845 24.0995 1.41624 24.3703 1.4579C24.531 1.47894 24.6944 1.46319 24.8481 1.41185C25.0019 1.3605 25.1419 1.27489 25.2577 1.16149C25.3088 1.11846 25.3623 1.07834 25.4179 1.04133C25.4145 0.944604 25.3827 0.851021 25.3266 0.772153C24.79 0.275468 23.8256 0.131271 23.1175 0.315525C22.7579 0.404161 22.4219 0.570027 22.1328 0.801608C21.8437 1.03319 21.6085 1.32493 21.4435 1.65657C21.1391 2.31989 21.2288 3.24116 21.397 3.91248" fill="#263238"/>
<path d="M26.1373 1.75271C26.1373 1.75271 22.7828 0.672815 21.3314 3.57602C21.2194 3.2109 21.1464 2.83496 21.1135 2.45447C21.1135 2.19491 21.2737 0.645578 22.8629 0.158506C22.8629 0.164915 25.2642 -0.751547 26.1373 1.75271Z" fill="#FF725E"/>
<path d="M23.2536 1.82483C23.3132 1.92118 23.3943 2.00234 23.4907 2.06192C23.587 2.12149 23.6959 2.15784 23.8087 2.1681C23.9215 2.17836 24.0352 2.16224 24.1407 2.12101C24.2462 2.07979 24.3406 2.0146 24.4166 1.93058C24.4497 2.01401 24.5081 2.08497 24.5837 2.13347C24.6592 2.18198 24.748 2.20559 24.8376 2.201C24.9273 2.1964 25.0132 2.16382 25.0834 2.10784C25.1535 2.05186 25.2044 1.9753 25.2288 1.88892C25.3184 1.98934 25.4274 2.07056 25.5492 2.12765C25.612 2.15435 25.6814 2.16113 25.7482 2.14709C25.8149 2.13305 25.8758 2.09886 25.9225 2.04914C25.9607 1.99111 25.979 1.92222 25.9747 1.85286C25.9703 1.7835 25.9436 1.71743 25.8984 1.66461C25.8076 1.5594 25.6904 1.48031 25.5588 1.43549C25.1613 1.26079 24.7247 1.19445 24.2933 1.24323C23.8596 1.29533 23.4624 1.51146 23.1831 1.84726" fill="#263238"/>
<g opacity="0.4">
<path d="M26.1373 1.7527C25.8575 1.45998 25.4749 1.2876 25.0704 1.27203C24.0803 1.22877 22.2285 1.78474 21.3314 3.57921C21.2194 3.2141 21.1464 2.83816 21.1135 2.45767C21.1135 2.19811 21.2737 0.648773 22.8629 0.161701C22.8629 0.164906 25.2642 -0.751557 26.1373 1.7527Z" fill="black"/>
</g>
<path d="M21.4707 3.23637C21.9794 2.47872 22.6461 1.84028 23.4251 1.36499C24.1972 0.88433 25.4724 0.40367 26.3503 0.172951C26.6107 0.0868624 26.8866 0.0578999 27.1593 0.0880346C27.2951 0.105231 27.4233 0.160339 27.5293 0.247048C27.6352 0.333757 27.7146 0.44856 27.7584 0.57831C27.8417 0.909967 27.2538 1.42107 26.9766 1.62135C26.7062 1.80223 26.4259 1.96804 26.1372 2.11803C26.1372 2.11803 26.1452 1.50278 25.1616 1.37621C23.824 1.20477 21.4707 3.23637 21.4707 3.23637Z" fill="#FF725E"/>
<g opacity="0.3">
<path d="M20.2903 14.1394C20.6363 14.9742 20.9855 16.0044 21.4869 16.7558C21.9884 17.5072 22.658 18.1754 23.491 18.5182C24.5387 18.9572 25.777 19.0277 26.8183 18.5791C26.9032 18.5423 27.0698 18.4958 27.0537 18.4045C27.0537 18.4045 26.7093 18.3644 26.602 18.3468C24.4986 17.9975 24.2695 17.7412 23.2619 16.9401C22.6339 16.445 21.2418 14.9437 20.2903 14.1394Z" fill="black"/>
</g>
<path d="M26.9797 20.2182C26.9584 20.2867 26.9288 20.3524 26.8916 20.4137C26.7982 20.587 26.6842 20.7484 26.552 20.8943C26.1063 21.3617 25.5455 21.7037 24.926 21.8861C24.3086 22.0619 23.6711 22.1572 23.0293 22.1697C22.7842 22.1793 22.5856 22.1809 22.4494 22.1809C22.3782 22.1838 22.3069 22.1806 22.2363 22.1713C22.3057 22.1553 22.3766 22.1472 22.4478 22.1473L23.0261 22.1104C23.661 22.0811 24.2904 21.979 24.902 21.806C25.5109 21.6248 26.0648 21.2944 26.5136 20.8447C26.6885 20.6511 26.8446 20.4414 26.9797 20.2182Z" fill="#263238"/>
<path d="M36.042 40.2057C36.0351 40.19 36.0308 40.1732 36.0292 40.156C36.0292 40.1192 36.0132 40.0695 36.0003 40.0086C35.9763 39.8741 35.9411 39.6882 35.8978 39.4415C35.8097 38.9416 35.6864 38.2286 35.5326 37.349C35.233 35.5769 34.8197 33.1368 34.3631 30.4419C34.1597 29.221 33.9659 28.0546 33.788 26.9891L33.8297 27.0227L29.2305 27.3544L27.9105 27.4441L27.558 27.4649H27.4683H27.4363H27.4667L27.558 27.4537L27.9089 27.4217L29.2273 27.3095L33.8233 26.9426H33.8585V26.9779C34.0379 28.0433 34.235 29.2098 34.44 30.429C34.887 33.1256 35.2907 35.5673 35.5854 37.341C35.7264 38.2222 35.8418 38.9432 35.9234 39.4367L36.01 40.0086C36.0196 40.0695 36.026 40.1192 36.0308 40.156C36.0365 40.1721 36.0403 40.1888 36.042 40.2057Z" fill="#455A64"/>
<path d="M34.9064 25.8387C34.9208 25.858 34.6404 26.0983 34.3232 26.4219C34.0061 26.7456 33.769 27.0292 33.7498 27.0132C34.0451 26.5421 34.4399 26.1413 34.9064 25.8387Z" fill="#455A64"/>
<path d="M25.0862 8.1551C25.0862 8.1551 25.0958 8.17273 25.1054 8.20798C25.1213 8.26012 25.1315 8.31385 25.1358 8.3682C25.1545 8.56591 25.1283 8.7653 25.0589 8.9514C24.9554 9.22954 24.7714 9.47051 24.5303 9.64356C24.2293 9.84965 23.8671 9.94687 23.5034 9.91914C23.1412 9.89452 22.7942 9.76417 22.5054 9.54422C22.2726 9.36532 22.0795 9.13998 21.9383 8.88251C21.8426 8.71103 21.7694 8.52794 21.7205 8.33776C21.7044 8.27046 21.6932 8.21759 21.6884 8.17754C21.6836 8.13748 21.6884 8.12146 21.6884 8.12146C21.7627 8.37418 21.8642 8.61808 21.9912 8.84886C22.1361 9.09314 22.3271 9.30698 22.5535 9.47853C22.8334 9.68583 23.1671 9.8082 23.5146 9.83102C23.8602 9.85752 24.2047 9.76786 24.4934 9.57626C24.724 9.41321 24.903 9.18746 25.0093 8.92577C25.0819 8.74856 25.1163 8.55802 25.1102 8.3666C25.099 8.23201 25.0862 8.15831 25.0862 8.1551Z" fill="#263238"/>
<path d="M27.3467 15.152C27.3284 15.1002 27.3166 15.0464 27.3114 14.9918C27.2938 14.8652 27.273 14.7114 27.2473 14.5335C27.1945 14.125 27.1256 13.5994 27.0503 13.0178C26.975 12.4362 26.9206 11.8963 26.8901 11.4989C26.8725 11.3051 26.8613 11.1465 26.8549 11.0375C26.8472 10.9812 26.8472 10.924 26.8549 10.8677C26.8716 10.9198 26.8829 10.9735 26.8885 11.0279C26.9061 11.1545 26.927 11.3067 26.951 11.4861C27.0023 11.8947 27.0679 12.4202 27.14 13.0018C27.2121 13.5834 27.2746 14.1234 27.313 14.5191C27.3307 14.7146 27.3435 14.8716 27.3515 14.9821C27.3565 15.0388 27.3549 15.0958 27.3467 15.152Z" fill="#263238"/>
</svg>
