<svg width="230" height="230" viewBox="0 0 230 230" fill="none" xmlns="http://www.w3.org/2000/svg">
<path d="M214.24 173.599C227.033 146.142 227.893 109.558 219.061 80.2193C211.94 56.6805 196.206 36.6919 174.998 24.2419C152.32 10.9341 125.29 6.97351 100.938 15.3731C94.5347 17.5811 88.3017 19.6051 82.2665 23.2345C57.5277 38.1109 62.3025 74.7545 53.6223 87.5241C46.3175 98.2513 32.3519 95.0911 23.5475 103.311C-0.183931 125.497 -0.24373 181.576 27.1677 199.102C56.2489 217.7 182.556 241.61 214.24 173.599Z" fill="#0F73F7"/>
<path opacity="0.8" d="M214.24 173.599C227.033 146.142 227.893 109.558 219.061 80.2193C211.94 56.6805 196.206 36.6919 174.998 24.2419C152.32 10.9341 125.29 6.97351 100.938 15.3731C94.5347 17.5811 88.3017 19.6051 82.2665 23.2345C57.5277 38.1109 62.3025 74.7545 53.6223 87.5241C46.3175 98.2513 32.3519 95.0911 23.5475 103.311C-0.183931 125.497 -0.24373 181.576 27.1677 199.102C56.2489 217.7 182.556 241.61 214.24 173.599Z" fill="white"/>
<path d="M200.684 35.1256C200.684 35.1256 195.389 27.0066 188.683 23.46C181.976 19.9134 175.26 22.77 172.799 26.3028C170.338 29.8356 172.09 34.0676 168.916 34.7714C165.742 35.4752 163.622 32.3012 160.443 34.7714C157.265 37.2416 157.269 40.7514 155.503 41.124C153.736 41.4966 151.266 37.95 148.796 40.7744C146.326 43.5988 144.559 45.7148 144.559 45.7148C144.559 45.7148 142.798 43.5988 140.323 46.069L137.853 48.5392H216.917C216.917 48.5392 217.626 41.8324 213.743 38.3042C209.861 34.776 207.391 39.008 204.916 38.6538C202.441 38.2996 200.684 35.1256 200.684 35.1256Z" stroke="#031731" stroke-width="0.46" stroke-linecap="round" stroke-linejoin="round"/>
<path d="M207.74 48.539C207.74 48.539 203.858 36.5376 193.623 34.4216C183.388 32.3056 183.388 41.8322 181.621 43.6216C179.855 45.411 177.385 42.9132 174.56 43.9712C171.736 45.0292 169.96 48.2078 169.96 48.2078" stroke="#031731" stroke-width="0.46" stroke-linecap="round" stroke-linejoin="round"/>
<path d="M52.3251 47.017C52.3251 47.017 49.0591 42.0076 44.9237 39.8318C40.7883 37.656 36.6437 39.3718 35.1303 41.5752C33.6169 43.7786 34.6703 46.3638 32.7337 46.7962C30.7971 47.2286 29.4677 45.2736 27.5081 46.7962C25.5485 48.3188 25.5485 50.4762 24.4629 50.7154C23.3773 50.9546 21.8501 48.7558 20.3229 50.4992C18.7957 52.2426 17.7101 53.5444 17.7101 53.5444C17.7101 53.5444 16.6199 52.238 15.0973 53.7652L13.5747 55.2878H62.3347C62.3347 55.2878 62.7717 51.1478 60.3751 48.9766C57.9785 46.8054 56.4559 49.409 54.9333 49.1928C53.4107 48.9766 52.3251 47.017 52.3251 47.017Z" stroke="#031731" stroke-width="0.46" stroke-linecap="round" stroke-linejoin="round"/>
<path d="M56.6811 55.2873C56.6811 55.2873 54.2799 47.8859 47.9733 46.5795C41.6667 45.2731 41.6575 51.1519 40.5719 52.2375C39.4863 53.3231 37.9591 51.8051 36.2157 52.4583C34.4723 53.1115 33.3867 55.0711 33.3867 55.0711" stroke="#031731" stroke-width="0.46" stroke-linecap="round" stroke-linejoin="round"/>
<path d="M107.815 161C107.815 161 104.553 155.995 100.413 153.815C96.2732 151.634 92.1333 153.382 90.6199 155.558C89.1065 157.734 90.1828 160.347 88.2232 160.784C86.2636 161.221 84.9573 159.257 83.0023 160.784C81.0473 162.311 81.0426 164.464 79.9524 164.703C78.8622 164.942 77.3396 162.743 75.8124 164.482C74.2852 166.221 73.1997 167.532 73.1997 167.532C73.1997 167.532 72.1094 166.226 70.5868 167.748L69.0688 169.28H117.829C117.829 169.28 118.289 165.14 115.869 162.969C113.45 160.798 111.955 163.406 110.427 163.185C108.9 162.964 107.815 161 107.815 161Z" stroke="#031731" stroke-width="0.46" stroke-linecap="round" stroke-linejoin="round"/>
<path d="M112.171 169.28C112.171 169.28 109.774 161.879 103.463 160.572C97.1519 159.266 97.1519 165.14 96.0617 166.221C94.9715 167.302 93.4489 165.761 91.7055 166.437C89.9621 167.113 88.8765 169.05 88.8765 169.05" stroke="#031731" stroke-width="0.46" stroke-linecap="round" stroke-linejoin="round"/>
<path d="M6.6748 223.877H222.962" stroke="#031731" stroke-width="0.46" stroke-linecap="round" stroke-linejoin="round"/>
<path d="M75.0033 68.5955H47.1963V223.878H75.0033V68.5955Z" fill="#031731" stroke="#031731" stroke-width="0.46" stroke-linecap="round" stroke-linejoin="round"/>
<path d="M76.3783 68.5955H48.5713V223.878H76.3783V68.5955Z" fill="#0F73F7" stroke="#031731" stroke-width="0.46" stroke-linecap="round" stroke-linejoin="round"/>
<path d="M139.578 67.6707H40.374V77.0179H139.578V67.6707Z" fill="#031731" stroke="#031731" stroke-width="0.46" stroke-linecap="round" stroke-linejoin="round"/>
<path d="M139.583 67.6707H76.4155V77.0179H139.583V67.6707Z" fill="white" stroke="#031731" stroke-width="0.46" stroke-linecap="round" stroke-linejoin="round"/>
<path d="M122.893 67.583H95.0864V104.043H122.893V67.583Z" fill="#031731" stroke="#031731" stroke-width="0.46" stroke-linecap="round" stroke-linejoin="round"/>
<path d="M124.269 67.583H96.4619V104.043H124.269V67.583Z" fill="#0F73F7" stroke="#031731" stroke-width="0.46" stroke-linecap="round" stroke-linejoin="round"/>
<path d="M197.046 177.049H97.8423V186.397H197.046V177.049Z" fill="#031731" stroke="#031731" stroke-width="0.46" stroke-linecap="round" stroke-linejoin="round"/>
<path d="M197.05 177.049H133.883V186.397H197.05V177.049Z" fill="white" stroke="#031731" stroke-width="0.46" stroke-linecap="round" stroke-linejoin="round"/>
<path d="M179.437 177.049H151.63V213.509H179.437V177.049Z" fill="#031731" stroke="#031731" stroke-width="0.46" stroke-linecap="round" stroke-linejoin="round"/>
<path d="M180.812 177.049H153.005V213.509H180.812V177.049Z" fill="#0F73F7" stroke="#031731" stroke-width="0.46" stroke-linecap="round" stroke-linejoin="round"/>
<path d="M158.732 104.13H59.5288V113.478H158.732V104.13Z" fill="#031731" stroke="#031731" stroke-width="0.46" stroke-linecap="round" stroke-linejoin="round"/>
<path d="M158.737 104.13H95.5698V113.478H158.737V104.13Z" fill="white" stroke="#031731" stroke-width="0.46" stroke-linecap="round" stroke-linejoin="round"/>
<path d="M141.74 104.13H113.933V140.59H141.74V104.13Z" fill="#031731" stroke="#031731" stroke-width="0.46" stroke-linecap="round" stroke-linejoin="round"/>
<path d="M143.12 104.13H115.313V140.59H143.12V104.13Z" fill="#0F73F7" stroke="#031731" stroke-width="0.46" stroke-linecap="round" stroke-linejoin="round"/>
<path d="M177.892 140.59H78.688V149.937H177.892V140.59Z" fill="#031731" stroke="#031731" stroke-width="0.46" stroke-linecap="round" stroke-linejoin="round"/>
<path d="M177.896 140.59H114.729V149.937H177.896V140.59Z" fill="white" stroke="#031731" stroke-width="0.46" stroke-linecap="round" stroke-linejoin="round"/>
<path d="M160.591 140.59H132.784V177.049H160.591V140.59Z" fill="#031731" stroke="#031731" stroke-width="0.46" stroke-linecap="round" stroke-linejoin="round"/>
<path d="M161.966 140.59H134.159V177.049H161.966V140.59Z" fill="#0F73F7" stroke="#031731" stroke-width="0.46" stroke-linecap="round" stroke-linejoin="round"/>
<path d="M48.5713 222.534V223.877H170.462V222.534H48.5713Z" fill="#031731" stroke="#031731" stroke-width="0.46" stroke-linecap="round" stroke-linejoin="round"/>
<path d="M216.205 213.509H117.001V222.856H216.205V213.509Z" fill="#031731" stroke="#031731" stroke-width="0.46" stroke-linecap="round" stroke-linejoin="round"/>
<path d="M216.209 213.509H153.042V222.856H216.209V213.509Z" fill="white" stroke="#031731" stroke-width="0.46" stroke-linecap="round" stroke-linejoin="round"/>
<path d="M198.283 213.509H170.476V223.877H198.283V213.509Z" fill="#031731" stroke="#031731" stroke-width="0.46" stroke-linecap="round" stroke-linejoin="round"/>
<path d="M199.663 213.509H171.856V223.877H199.663V213.509Z" fill="#0F73F7" stroke="#031731" stroke-width="0.46" stroke-linecap="round" stroke-linejoin="round"/>
<path d="M182.569 123.676L184.51 123.943L184.97 121.896L183.167 121.316C183.166 120.656 183.033 120.002 182.776 119.393L184.133 118.101L182.822 116.459L181.313 117.461C180.771 117.029 180.144 116.716 179.473 116.541L179.312 114.738H177.238L177.081 116.514C176.412 116.68 175.786 116.984 175.241 117.406L173.723 116.399L172.417 118.041L173.742 119.306C173.467 119.92 173.322 120.584 173.314 121.256L171.511 121.836L171.971 123.883L173.871 123.621C174.173 124.189 174.58 124.695 175.071 125.111L174.377 126.951L176.267 127.871L177.275 126.174C177.891 126.293 178.525 126.293 179.142 126.174L180.168 127.894L182.059 126.974L181.364 125.134C181.856 124.73 182.265 124.235 182.569 123.676ZM175.559 121.298C175.559 120.768 175.716 120.251 176.01 119.811C176.304 119.37 176.722 119.027 177.211 118.824C177.701 118.622 178.239 118.569 178.758 118.672C179.278 118.775 179.755 119.03 180.129 119.405C180.503 119.779 180.758 120.256 180.862 120.776C180.965 121.295 180.912 121.833 180.709 122.322C180.507 122.812 180.164 123.23 179.723 123.524C179.283 123.818 178.765 123.975 178.236 123.975C177.526 123.974 176.846 123.691 176.344 123.19C175.842 122.688 175.56 122.008 175.559 121.298Z" fill="#031731"/>
<path d="M195.068 120.626L197.009 120.893L197.469 118.846L195.666 118.266C195.666 117.604 195.535 116.949 195.279 116.339L196.632 115.046L195.325 113.409L193.816 114.407C193.273 113.976 192.647 113.663 191.976 113.487L191.82 111.684H189.722L189.566 113.464C188.889 113.625 188.254 113.927 187.703 114.352L186.19 113.344L184.879 114.986L186.208 116.251C185.934 116.866 185.788 117.529 185.78 118.202L184 118.768L184.46 120.815L186.364 120.552C186.663 121.122 187.071 121.627 187.565 122.038L186.866 123.878L188.756 124.798L189.768 123.096C190.385 123.216 191.019 123.216 191.636 123.096L192.662 124.821L194.552 123.901L193.858 122.061C194.349 121.664 194.759 121.177 195.068 120.626ZM188.057 118.252C188.056 117.723 188.213 117.205 188.506 116.764C188.8 116.323 189.218 115.979 189.707 115.776C190.196 115.572 190.734 115.519 191.254 115.621C191.774 115.724 192.251 115.979 192.626 116.353C193.001 116.727 193.256 117.204 193.36 117.724C193.463 118.243 193.411 118.782 193.208 119.271C193.006 119.761 192.663 120.179 192.222 120.473C191.782 120.768 191.264 120.925 190.734 120.925C190.383 120.926 190.035 120.857 189.71 120.723C189.385 120.589 189.09 120.392 188.842 120.144C188.593 119.896 188.396 119.601 188.261 119.276C188.126 118.952 188.057 118.604 188.057 118.252Z" fill="#031731"/>
<path d="M191.553 76.5305H163.314V108.284H191.553V76.5305Z" fill="white" stroke="#031731" stroke-width="0.46" stroke-linecap="round" stroke-linejoin="round"/>
<path d="M191.553 76.5305H163.314V78.8121H191.553V76.5305Z" fill="#0F73F7" stroke="#031731" stroke-width="0.46" stroke-linecap="round" stroke-linejoin="round"/>
<path d="M166.759 80.9651H173.157" stroke="#031731" stroke-width="0.46" stroke-linecap="round" stroke-linejoin="round"/>
<path d="M168.517 82.7175H172.643" stroke="#031731" stroke-width="0.46" stroke-linecap="round" stroke-linejoin="round"/>
<path d="M166.759 99.0059H173.157" stroke="#031731" stroke-width="0.46" stroke-linecap="round" stroke-linejoin="round"/>
<path d="M168.517 100.759H172.643" stroke="#031731" stroke-width="0.46" stroke-linecap="round" stroke-linejoin="round"/>
<path d="M170.375 102.41H178.006" stroke="#031731" stroke-width="0.46" stroke-linecap="round" stroke-linejoin="round"/>
<path d="M170.375 104.062H178.006" stroke="#031731" stroke-width="0.46" stroke-linecap="round" stroke-linejoin="round"/>
<path d="M170.375 105.708H178.006" stroke="#031731" stroke-width="0.46" stroke-linecap="round" stroke-linejoin="round"/>
<path d="M186.355 84.5715H188.936" stroke="#031731" stroke-width="0.46" stroke-linecap="round" stroke-linejoin="round"/>
<path d="M180.684 84.5715H184.709" stroke="#031731" stroke-width="0.46" stroke-linecap="round" stroke-linejoin="round"/>
<path d="M173.981 84.5715H179.036" stroke="#031731" stroke-width="0.46" stroke-linecap="round" stroke-linejoin="round"/>
<path d="M171.92 84.5715H173.158" stroke="#031731" stroke-width="0.46" stroke-linecap="round" stroke-linejoin="round"/>
<path d="M174.501 86.1167H171.92" stroke="#031731" stroke-width="0.46" stroke-linecap="round" stroke-linejoin="round"/>
<path d="M180.168 86.1167H176.148" stroke="#031731" stroke-width="0.46" stroke-linecap="round" stroke-linejoin="round"/>
<path d="M186.87 86.1167H181.819" stroke="#031731" stroke-width="0.46" stroke-linecap="round" stroke-linejoin="round"/>
<path d="M188.936 86.1167H187.699" stroke="#031731" stroke-width="0.46" stroke-linecap="round" stroke-linejoin="round"/>
<path d="M186.355 87.7686H188.936" stroke="#031731" stroke-width="0.46" stroke-linecap="round" stroke-linejoin="round"/>
<path d="M180.684 87.7686H184.709" stroke="#031731" stroke-width="0.46" stroke-linecap="round" stroke-linejoin="round"/>
<path d="M173.981 87.7686H179.036" stroke="#031731" stroke-width="0.46" stroke-linecap="round" stroke-linejoin="round"/>
<path d="M171.92 87.7686H173.158" stroke="#031731" stroke-width="0.46" stroke-linecap="round" stroke-linejoin="round"/>
<path d="M174.501 89.3137H171.92" stroke="#031731" stroke-width="0.46" stroke-linecap="round" stroke-linejoin="round"/>
<path d="M180.168 89.3137H176.148" stroke="#031731" stroke-width="0.46" stroke-linecap="round" stroke-linejoin="round"/>
<path d="M186.87 89.3137H181.819" stroke="#031731" stroke-width="0.46" stroke-linecap="round" stroke-linejoin="round"/>
<path d="M188.936 89.3137H187.699" stroke="#031731" stroke-width="0.46" stroke-linecap="round" stroke-linejoin="round"/>
<path d="M186.355 90.7583H188.936" stroke="#031731" stroke-width="0.46" stroke-linecap="round" stroke-linejoin="round"/>
<path d="M180.684 90.7583H184.709" stroke="#031731" stroke-width="0.46" stroke-linecap="round" stroke-linejoin="round"/>
<path d="M173.981 90.7583H179.036" stroke="#031731" stroke-width="0.46" stroke-linecap="round" stroke-linejoin="round"/>
<path d="M171.92 90.7583H173.158" stroke="#031731" stroke-width="0.46" stroke-linecap="round" stroke-linejoin="round"/>
<path d="M174.501 92.304H171.92" stroke="#031731" stroke-width="0.46" stroke-linecap="round" stroke-linejoin="round"/>
<path d="M180.168 92.304H176.148" stroke="#031731" stroke-width="0.46" stroke-linecap="round" stroke-linejoin="round"/>
<path d="M186.87 92.304H181.819" stroke="#031731" stroke-width="0.46" stroke-linecap="round" stroke-linejoin="round"/>
<path d="M188.936 92.304H187.699" stroke="#031731" stroke-width="0.46" stroke-linecap="round" stroke-linejoin="round"/>
<path d="M186.355 93.9553H188.936" stroke="#031731" stroke-width="0.46" stroke-linecap="round" stroke-linejoin="round"/>
<path d="M180.684 93.9553H184.709" stroke="#031731" stroke-width="0.46" stroke-linecap="round" stroke-linejoin="round"/>
<path d="M173.981 93.9553H179.036" stroke="#031731" stroke-width="0.46" stroke-linecap="round" stroke-linejoin="round"/>
<path d="M171.92 93.9553H173.158" stroke="#031731" stroke-width="0.46" stroke-linecap="round" stroke-linejoin="round"/>
<path d="M174.501 95.501H171.92" stroke="#031731" stroke-width="0.46" stroke-linecap="round" stroke-linejoin="round"/>
<path d="M180.168 95.501H176.148" stroke="#031731" stroke-width="0.46" stroke-linecap="round" stroke-linejoin="round"/>
<path d="M186.87 95.501H181.819" stroke="#031731" stroke-width="0.46" stroke-linecap="round" stroke-linejoin="round"/>
<path d="M188.936 95.501H187.699" stroke="#031731" stroke-width="0.46" stroke-linecap="round" stroke-linejoin="round"/>
<path d="M145.645 66.6958V103.514H111.131" stroke="#031731" stroke-width="0.92" stroke-linecap="round" stroke-linejoin="round"/>
<path d="M121.481 73.6143V103.514" stroke="#031731" stroke-width="0.92" stroke-linecap="round" stroke-linejoin="round"/>
<path d="M136.662 76.7603L145.277 87.0367H121.491L114.002 76.7603" stroke="#031731" stroke-width="0.92" stroke-linecap="round" stroke-linejoin="round"/>
<path d="M110.253 80.1138H140.512L151.451 60.4028H121.196L110.253 80.1138Z" fill="#9FC7FC" stroke="#031731" stroke-width="0.46" stroke-linecap="round" stroke-linejoin="round"/>
<path d="M122.792 62.7856L115.865 75.5782H138.304L145.457 62.574L122.792 62.7856Z" fill="white" stroke="#031731" stroke-width="0.46" stroke-linecap="round" stroke-linejoin="round"/>
<path d="M117.631 72.8459H130.245L128.349 75.5001" fill="white"/>
<path d="M117.631 72.8459H130.245L128.349 75.5001" stroke="#031731" stroke-width="0.46" stroke-linecap="round" stroke-linejoin="round"/>
<path d="M110.253 80.1137L109.43 79.0925H139.261L140.512 80.1137H110.253Z" fill="white" stroke="#031731" stroke-width="0.46" stroke-linecap="round" stroke-linejoin="round"/>
<path d="M110.271 9.81201H89.2168V37.2556H110.271V9.81201Z" fill="#9FC7FC" stroke="#031731" stroke-width="0.46" stroke-linecap="round" stroke-linejoin="round"/>
<path d="M109.213 11.1968H90.2798V35.8758H109.213V11.1968Z" fill="white" stroke="#031731" stroke-width="0.46" stroke-linecap="round" stroke-linejoin="round"/>
<path d="M102.502 8.4413H101.716V7.4707H97.7779V8.4413H96.9913C96.6659 8.44007 96.3533 8.56752 96.1215 8.79587C95.8897 9.02422 95.7575 9.33494 95.7539 9.6603V12.0615H103.744V9.6603C103.739 9.33453 103.606 9.0238 103.374 8.79558C103.141 8.56736 102.828 8.44006 102.502 8.4413Z" fill="#031731" stroke="#031731" stroke-width="0.46" stroke-linecap="round" stroke-linejoin="round"/>
<path d="M95.1051 16.9651H91.7563V20.3139H95.1051V16.9651Z" fill="white" stroke="#031731" stroke-width="0.46" stroke-linecap="round" stroke-linejoin="round"/>
<path d="M95.1051 22.9177H91.7563V26.2665H95.1051V22.9177Z" fill="white" stroke="#031731" stroke-width="0.46" stroke-linecap="round" stroke-linejoin="round"/>
<path d="M95.1051 28.8699H91.7563V32.2187H95.1051V28.8699Z" fill="white" stroke="#031731" stroke-width="0.46" stroke-linecap="round" stroke-linejoin="round"/>
<path d="M96.7153 18.4556H107.01" stroke="#031731" stroke-width="0.46" stroke-linecap="round" stroke-linejoin="round"/>
<path d="M96.7153 24.9048H107.01" stroke="#031731" stroke-width="0.46" stroke-linecap="round" stroke-linejoin="round"/>
<path d="M96.7153 30.9812H107.01" stroke="#031731" stroke-width="0.46" stroke-linecap="round" stroke-linejoin="round"/>
<path d="M92.7222 17.9632L93.4628 19.15L96.1308 16.137" fill="white"/>
<path d="M92.7222 17.9632L93.4628 19.15L96.1308 16.137" stroke="#031731" stroke-width="0.46" stroke-linecap="round" stroke-linejoin="round"/>
<path d="M92.7222 23.9849L93.4628 25.1717L96.1308 22.1587" fill="white"/>
<path d="M92.7222 23.9849L93.4628 25.1717L96.1308 22.1587" stroke="#031731" stroke-width="0.46" stroke-linecap="round" stroke-linejoin="round"/>
<path d="M92.7222 30.0061L93.4628 31.1929L96.1308 28.1799" fill="white"/>
<path d="M92.7222 30.0061L93.4628 31.1929L96.1308 28.1799" stroke="#031731" stroke-width="0.46" stroke-linecap="round" stroke-linejoin="round"/>
<path d="M88.8628 26.9148H82.9702" stroke="#031731" stroke-width="0.46" stroke-linecap="round" stroke-linejoin="round"/>
<path d="M205.91 165.49L207.525 175.821L207.134 184.635H205.703L204.88 176.737L205.91 165.49Z" fill="white" stroke="#031731" stroke-width="0.46" stroke-linecap="round" stroke-linejoin="round"/>
<path d="M204.493 179.828H193.435L192.837 209.926H195.519L198.964 187.045L202.41 209.926H205.091L204.493 179.828Z" fill="#031731" stroke="#031731" stroke-width="0.46" stroke-linecap="round" stroke-linejoin="round"/>
<path d="M200.938 163.544L198.978 163.958L197.019 163.544L192.097 165.49L193.435 179.828H204.517L205.855 165.49L200.938 163.544Z" fill="white" stroke="#031731" stroke-width="0.46" stroke-linecap="round" stroke-linejoin="round"/>
<path d="M197.754 166.52L198.555 168.498L197.925 177.035L198.932 178.889L200.114 176.953L199.144 168.585L199.985 166.856L198.886 165.255L197.754 166.52Z" fill="#031731" stroke="#031731" stroke-width="0.46" stroke-linecap="round" stroke-linejoin="round"/>
<path d="M200.882 163.544L198.918 166.024L197.078 163.544V161.309H200.882V163.544Z" fill="#031731" stroke="#031731" stroke-width="0.46" stroke-linecap="round" stroke-linejoin="round"/>
<path d="M196.384 158.976C196.384 158.976 195.924 158.323 195.813 158.893C195.703 159.464 196.503 160.489 196.503 160.489L196.384 158.976Z" fill="white" stroke="#031731" stroke-width="0.46" stroke-linecap="round" stroke-linejoin="round"/>
<path d="M201.517 158.976C201.517 158.976 201.977 158.323 202.092 158.893C202.207 159.464 201.402 160.489 201.402 160.489L201.517 158.976Z" fill="white" stroke="#031731" stroke-width="0.46" stroke-linecap="round" stroke-linejoin="round"/>
<path d="M200.758 162.619L200.367 163.121C200.212 163.32 200.014 163.481 199.788 163.592C199.562 163.702 199.313 163.76 199.061 163.76C198.828 163.761 198.599 163.712 198.386 163.618C198.174 163.523 197.984 163.385 197.828 163.213L197.34 162.665C196.803 162.068 196.507 161.293 196.508 160.49V157.826C196.507 157.502 196.571 157.18 196.695 156.88C196.819 156.58 197 156.308 197.23 156.078C197.459 155.849 197.732 155.667 198.032 155.543C198.332 155.419 198.653 155.355 198.978 155.356C199.303 155.355 199.624 155.419 199.925 155.543C200.225 155.667 200.498 155.848 200.728 156.078C200.958 156.307 201.14 156.58 201.264 156.88C201.389 157.18 201.453 157.501 201.453 157.826V160.618C201.451 161.344 201.207 162.049 200.758 162.619Z" fill="white" stroke="#031731" stroke-width="0.46" stroke-linecap="round" stroke-linejoin="round"/>
<path d="M198.32 160.839C198.32 160.839 198.15 161.193 198.32 161.34C198.64 161.519 199.017 161.564 199.369 161.465C199.737 161.354 199.535 160.77 199.535 160.77" stroke="#031731" stroke-width="0.23" stroke-linecap="round" stroke-linejoin="round"/>
<path d="M198.32 162.15C198.742 162.29 199.199 162.277 199.612 162.114" stroke="#031731" stroke-width="0.23" stroke-linecap="round" stroke-linejoin="round"/>
<path d="M198.371 159.091C198.198 159.007 198.006 158.973 197.815 158.993C197.624 159.012 197.442 159.085 197.29 159.201" stroke="#031731" stroke-width="0.23" stroke-linecap="round" stroke-linejoin="round"/>
<path d="M199.369 159.16C199.554 159.073 199.76 159.041 199.963 159.067C200.166 159.093 200.357 159.176 200.515 159.307" stroke="#031731" stroke-width="0.23" stroke-linecap="round" stroke-linejoin="round"/>
<path d="M198.159 159.882C198.152 159.927 198.132 159.97 198.102 160.004C198.071 160.038 198.032 160.063 197.988 160.076C197.944 160.088 197.897 160.088 197.853 160.074C197.809 160.061 197.77 160.035 197.741 160C197.711 159.965 197.692 159.923 197.686 159.877C197.68 159.832 197.687 159.786 197.706 159.744C197.725 159.703 197.756 159.668 197.795 159.643C197.834 159.619 197.879 159.606 197.925 159.606C197.992 159.612 198.055 159.644 198.099 159.696C198.142 159.748 198.164 159.815 198.159 159.882Z" fill="#031731"/>
<path d="M200.261 159.882C200.254 159.927 200.234 159.97 200.204 160.004C200.173 160.038 200.134 160.063 200.09 160.076C200.046 160.088 199.999 160.088 199.955 160.074C199.911 160.061 199.872 160.035 199.843 160C199.813 159.965 199.794 159.923 199.788 159.877C199.782 159.832 199.789 159.786 199.808 159.744C199.827 159.703 199.858 159.668 199.897 159.643C199.936 159.619 199.981 159.606 200.027 159.606C200.094 159.612 200.157 159.644 200.201 159.696C200.245 159.748 200.266 159.815 200.261 159.882Z" fill="#031731"/>
<path d="M201.448 157.826C201.42 157.189 201.148 156.587 200.687 156.145C200.227 155.704 199.613 155.458 198.975 155.458C198.338 155.458 197.724 155.704 197.264 156.145C196.803 156.587 196.53 157.189 196.503 157.826V158.746L196.673 158.976C196.673 158.976 196.958 158.976 196.958 158.773V157.711C197.583 157.793 198.215 157.793 198.84 157.711C199.556 157.675 200.236 157.385 200.758 156.892C200.758 156.892 200.556 157.752 200.758 158.079C200.96 158.405 201.218 158.893 201.218 158.893L201.384 159.427L201.457 158.967L201.448 157.826Z" fill="#031731" stroke="#031731" stroke-width="0.46" stroke-linecap="round" stroke-linejoin="round"/>
<path d="M196.871 163.194L196.347 163.838L196.94 167.5L198.918 166.023L201.075 167.44L201.425 163.838L200.91 163.323L198.886 165.255L196.871 163.194Z" fill="white" stroke="#031731" stroke-width="0.46" stroke-linecap="round" stroke-linejoin="round"/>
<path d="M192.837 209.926C192.837 209.926 191.701 213.44 191.871 213.495C192.041 213.55 195.698 213.495 195.698 213.495L195.519 209.926H192.837Z" fill="white" stroke="#031731" stroke-width="0.46" stroke-linecap="round" stroke-linejoin="round"/>
<path d="M205.161 209.926C205.161 209.926 206.297 213.44 206.127 213.495C205.957 213.55 202.304 213.495 202.304 213.495L202.479 209.926H205.161Z" fill="white" stroke="#031731" stroke-width="0.46" stroke-linecap="round" stroke-linejoin="round"/>
<path d="M207.106 184.635L207.313 187.078C206.949 187.255 206.574 187.409 206.191 187.538C206.053 187.538 205.823 187.165 205.823 187.165C205.741 187.17 205.66 187.157 205.585 187.126C205.51 187.094 205.444 187.046 205.39 186.984C205.337 186.923 205.299 186.85 205.279 186.771C205.259 186.692 205.258 186.61 205.275 186.53L205.68 184.653L207.106 184.635Z" fill="white" stroke="#031731" stroke-width="0.46" stroke-linecap="round" stroke-linejoin="round"/>
<path d="M192.096 165.49L182.97 180.918L183.356 182.924L192.483 172.243L192.096 165.49Z" fill="white" stroke="#031731" stroke-width="0.46" stroke-linecap="round" stroke-linejoin="round"/>
<path d="M181.76 180.651C181.76 180.651 180.495 182.252 180.56 182.786C180.624 183.319 182.096 185.454 182.16 185.187C182.225 184.92 181.76 180.651 181.76 180.651Z" fill="white" stroke="#031731" stroke-width="0.46" stroke-linecap="round" stroke-linejoin="round"/>
<path d="M188.862 162.435H182.018V198.242H188.862V162.435Z" fill="white" stroke="#031731" stroke-width="0.46" stroke-linecap="round" stroke-linejoin="round"/>
<path d="M189.649 149.96L189.709 156.704L185.541 159.441L181.465 156.57L181.787 149.716C180.328 150.532 179.175 151.803 178.507 153.336C177.839 154.868 177.691 156.578 178.087 158.202C178.483 159.827 179.401 161.276 180.7 162.33C181.998 163.383 183.607 163.981 185.278 164.033C186.949 164.085 188.591 163.587 189.953 162.617C191.314 161.646 192.32 160.256 192.816 158.659C193.312 157.062 193.271 155.347 192.699 153.776C192.127 152.205 191.055 150.864 189.649 149.96Z" fill="white" stroke="#031731" stroke-width="0.46" stroke-linecap="round" stroke-linejoin="round"/>
<path d="M189.787 210.68V210.096L189.695 203.789L185.527 201.052L181.452 203.927L181.567 210.229V210.772C180.405 210.1 179.446 209.127 178.792 207.956C178.138 206.784 177.812 205.457 177.85 204.116C177.85 202.09 178.655 200.146 180.088 198.713C181.521 197.28 183.464 196.475 185.491 196.475C187.517 196.475 189.461 197.28 190.893 198.713C192.326 200.146 193.131 202.09 193.131 204.116C193.161 205.402 192.872 206.674 192.288 207.82C191.704 208.966 190.845 209.949 189.787 210.68Z" fill="white" stroke="#031731" stroke-width="0.46" stroke-linecap="round" stroke-linejoin="round"/>
<path d="M185.781 169.754H185.095C184.45 169.754 183.927 170.277 183.927 170.922V190.546C183.927 191.191 184.45 191.714 185.095 191.714H185.781C186.426 191.714 186.949 191.191 186.949 190.546V170.922C186.949 170.277 186.426 169.754 185.781 169.754Z" fill="white" stroke="#031731" stroke-width="0.345" stroke-linecap="round" stroke-linejoin="round"/>
<path d="M124.904 129.333L124.803 129.811L123.97 137.388L119.973 136.408L118.482 138.11L125.497 140.658L125.865 139.269L124.904 129.333Z" fill="white" stroke="#031731" stroke-width="0.46" stroke-linecap="round" stroke-linejoin="round"/>
<path d="M136.491 143.524H125.548L124.955 173.323H127.609L131.017 150.673L134.431 173.323H137.085L136.491 143.524Z" fill="#031731" stroke="#031731" stroke-width="0.46" stroke-linecap="round" stroke-linejoin="round"/>
<path d="M132.972 127.402L131.031 127.811L129.09 127.402L124.904 129.334L125.548 143.525H136.514L137.163 129.334L132.972 127.402Z" fill="white" stroke="#031731" stroke-width="0.46" stroke-linecap="round" stroke-linejoin="round"/>
<path d="M129.821 130.35L130.612 132.31L129.987 140.76L130.99 142.595L132.158 140.677L131.197 132.392L132.029 130.686L130.944 129.099L129.821 130.35Z" fill="#031731" stroke="#031731" stroke-width="0.46" stroke-linecap="round" stroke-linejoin="round"/>
<path d="M128.948 127.056L128.428 127.696L129.012 131.321L130.976 129.858L133.106 131.261L133.46 127.696L132.95 127.185L130.944 129.099L128.948 127.056Z" fill="white" stroke="#031731" stroke-width="0.46" stroke-linecap="round" stroke-linejoin="round"/>
<path d="M124.954 173.318C124.954 173.318 123.827 176.796 123.997 176.851C124.168 176.906 127.783 176.851 127.783 176.851L127.608 173.318H124.954Z" fill="white" stroke="#031731" stroke-width="0.46" stroke-linecap="round" stroke-linejoin="round"/>
<path d="M137.131 173.318C137.131 173.318 138.258 176.796 138.088 176.851C137.917 176.906 134.302 176.851 134.302 176.851L134.477 173.318H137.131Z" fill="white" stroke="#031731" stroke-width="0.46" stroke-linecap="round" stroke-linejoin="round"/>
<path d="M132.917 127.401L130.976 129.858L129.154 127.401V125.189H132.917V127.401Z" fill="#031731" stroke="#031731" stroke-width="0.46" stroke-linecap="round" stroke-linejoin="round"/>
<path d="M128.464 122.884C128.464 122.884 128.004 122.236 127.898 122.801C127.792 123.367 128.579 124.379 128.579 124.379L128.464 122.884Z" fill="#9FC7FC" stroke="#031731" stroke-width="0.46" stroke-linecap="round" stroke-linejoin="round"/>
<path d="M133.547 122.884C133.547 122.884 134.007 122.236 134.113 122.801C134.219 123.367 133.432 124.379 133.432 124.379L133.547 122.884Z" fill="#9FC7FC" stroke="#031731" stroke-width="0.46" stroke-linecap="round" stroke-linejoin="round"/>
<path d="M132.797 126.5L132.406 126.996C132.253 127.192 132.056 127.351 131.832 127.46C131.609 127.569 131.363 127.626 131.114 127.627C130.884 127.626 130.657 127.578 130.447 127.484C130.237 127.391 130.049 127.254 129.895 127.084L129.407 126.546C128.874 125.954 128.579 125.185 128.579 124.388V121.757C128.579 121.107 128.837 120.483 129.297 120.023C129.757 119.563 130.381 119.305 131.031 119.305C131.68 119.306 132.303 119.565 132.762 120.025C133.22 120.485 133.478 121.108 133.478 121.757V124.517C133.479 125.235 133.239 125.933 132.797 126.5Z" fill="#9FC7FC" stroke="#031731" stroke-width="0.46" stroke-linecap="round" stroke-linejoin="round"/>
<path d="M130.479 124.623C130.479 124.623 130.304 124.977 130.479 125.124C130.638 125.213 130.813 125.27 130.993 125.291C131.174 125.313 131.357 125.298 131.532 125.248C131.9 125.138 131.693 124.554 131.693 124.554" stroke="#031731" stroke-width="0.23" stroke-linecap="round" stroke-linejoin="round"/>
<path d="M130.479 125.934C130.899 126.074 131.355 126.061 131.767 125.897" stroke="#031731" stroke-width="0.23" stroke-linecap="round" stroke-linejoin="round"/>
<path d="M130.525 122.875C130.352 122.793 130.16 122.759 129.969 122.779C129.778 122.798 129.597 122.87 129.444 122.985" stroke="#031731" stroke-width="0.23" stroke-linecap="round" stroke-linejoin="round"/>
<path d="M131.528 122.962C131.712 122.875 131.918 122.843 132.12 122.869C132.322 122.895 132.512 122.979 132.669 123.11" stroke="#031731" stroke-width="0.23" stroke-linecap="round" stroke-linejoin="round"/>
<path d="M130.313 123.666C130.318 123.734 130.297 123.801 130.253 123.852C130.209 123.904 130.146 123.936 130.079 123.942C130.014 123.93 129.956 123.896 129.914 123.846C129.872 123.795 129.849 123.732 129.849 123.666C129.849 123.6 129.872 123.537 129.914 123.487C129.956 123.436 130.014 123.402 130.079 123.39C130.146 123.396 130.209 123.428 130.253 123.48C130.297 123.532 130.318 123.599 130.313 123.666Z" fill="#031731"/>
<path d="M132.42 123.666C132.413 123.711 132.393 123.753 132.363 123.788C132.333 123.822 132.293 123.847 132.25 123.859C132.206 123.872 132.159 123.872 132.116 123.859C132.072 123.846 132.033 123.82 132.003 123.786C131.973 123.752 131.954 123.709 131.947 123.664C131.94 123.619 131.947 123.573 131.965 123.531C131.984 123.49 132.014 123.454 132.052 123.429C132.091 123.404 132.135 123.391 132.181 123.39C132.215 123.392 132.248 123.401 132.278 123.417C132.308 123.432 132.335 123.453 132.358 123.478C132.38 123.504 132.397 123.534 132.408 123.566C132.418 123.598 132.422 123.632 132.42 123.666Z" fill="#031731"/>
<path d="M98.8126 115.607C97.0247 117.481 95.8327 119.843 95.3874 122.395C94.9421 124.947 95.2634 127.573 96.3108 129.942C97.3582 132.311 99.0846 134.316 101.272 135.704C103.459 137.092 106.008 137.8 108.598 137.739C111.187 137.678 113.7 136.85 115.819 135.361C117.939 133.871 119.568 131.787 120.503 129.371C121.437 126.955 121.634 124.317 121.069 121.789C120.504 119.261 119.202 116.958 117.328 115.17C116.083 113.982 114.617 113.052 113.014 112.431C111.41 111.81 109.699 111.511 107.98 111.552C106.26 111.593 104.566 111.972 102.993 112.667C101.42 113.363 99.9993 114.362 98.8126 115.607ZM115.653 131.67C114.264 133.127 112.473 134.139 110.508 134.578C108.543 135.017 106.492 134.864 104.615 134.138C102.737 133.411 101.117 132.145 99.9591 130.497C98.8013 128.85 98.1579 126.897 98.1103 124.884C98.0627 122.871 98.613 120.89 99.6916 119.19C100.77 117.49 102.329 116.148 104.17 115.333C106.011 114.519 108.053 114.269 110.036 114.615C112.02 114.961 113.856 115.887 115.313 117.277C116.28 118.199 117.057 119.303 117.597 120.526C118.138 121.749 118.433 123.066 118.464 124.403C118.496 125.739 118.264 127.069 117.782 128.316C117.299 129.563 116.576 130.703 115.653 131.67Z" fill="#031731" stroke="#031731" stroke-width="0.46" stroke-linecap="round" stroke-linejoin="round"/>
<path d="M134.398 149.702C134.15 149.962 133.852 150.169 133.521 150.31C133.191 150.452 132.835 150.525 132.475 150.525C132.116 150.525 131.76 150.452 131.43 150.31C131.099 150.169 130.801 149.962 130.553 149.702L116.55 134.959L118.827 132.572L134.214 145.866C134.486 146.101 134.707 146.389 134.863 146.712C135.02 147.035 135.11 147.386 135.127 147.745C135.145 148.103 135.089 148.462 134.964 148.798C134.838 149.135 134.646 149.442 134.398 149.702Z" fill="#9FC7FC" stroke="#031731" stroke-width="0.46" stroke-linecap="round" stroke-linejoin="round"/>
<path d="M137.163 129.333L136.049 138.662L127.719 143.736L128.174 145.102L138.428 142.029L139.394 140.359L137.163 129.333Z" fill="white" stroke="#031731" stroke-width="0.46" stroke-linecap="round" stroke-linejoin="round"/>
<path d="M127.719 143.736L126.472 143.432C126.472 143.432 125.479 144.2 125.364 144.55C125.318 144.688 125.33 144.839 125.395 144.969C125.461 145.099 125.575 145.198 125.713 145.245C125.713 145.245 126.408 146.059 126.698 146.059C126.987 146.059 128.174 145.102 128.174 145.102L127.719 143.736Z" fill="#9FC7FC" stroke="#031731" stroke-width="0.46" stroke-linecap="round" stroke-linejoin="round"/>
<path d="M119.488 136.98L117.854 135.536L116.851 136.67L118.486 138.114L119.488 136.98Z" fill="#9FC7FC" stroke="#031731" stroke-width="0.46" stroke-linecap="round" stroke-linejoin="round"/>
<path d="M163.852 107.005H152.867L152.273 136.91H154.937L158.359 114.177L161.786 136.91H164.45L163.852 107.005Z" fill="#031731" stroke="#031731" stroke-width="0.46" stroke-linecap="round" stroke-linejoin="round"/>
<path d="M160.319 90.8228L158.373 89.8108L156.427 90.8228L151.538 92.7594L152.867 107.006H163.875L165.209 92.7594L160.319 90.8228Z" fill="white" stroke="#031731" stroke-width="0.46" stroke-linecap="round" stroke-linejoin="round"/>
<path d="M155.797 86.2822C155.797 86.2822 155.337 85.6335 155.227 86.2039C155.116 86.7743 155.912 87.7864 155.912 87.7864L155.797 86.2822Z" fill="white" stroke="#031731" stroke-width="0.46" stroke-linecap="round" stroke-linejoin="round"/>
<path d="M160.899 86.2822C160.899 86.2822 161.359 85.6335 161.464 86.2039C161.57 86.7743 160.784 87.7864 160.784 87.7864L160.899 86.2822Z" fill="white" stroke="#031731" stroke-width="0.46" stroke-linecap="round" stroke-linejoin="round"/>
<path d="M160.83 85.1415C160.803 84.5078 160.532 83.9092 160.073 83.4705C159.615 83.0318 159.006 82.7869 158.371 82.7869C157.737 82.7869 157.127 83.0318 156.669 83.4705C156.211 83.9092 155.94 84.5078 155.913 85.1415V87.7865C155.914 88.4439 156.114 89.0855 156.488 89.6265V90.8271L158.328 90.5511L160.278 90.8271V89.7369C160.644 89.2015 160.839 88.5682 160.839 87.9199L160.83 85.1415Z" fill="white" stroke="#031731" stroke-width="0.46" stroke-linecap="round" stroke-linejoin="round"/>
<path d="M152.26 136.91C152.26 136.91 151.128 140.397 151.298 140.452C151.468 140.507 155.098 140.452 155.098 140.452L154.923 136.91H152.26Z" fill="white" stroke="#031731" stroke-width="0.46" stroke-linecap="round" stroke-linejoin="round"/>
<path d="M164.496 136.91C164.496 136.91 165.623 140.397 165.458 140.452C165.292 140.507 161.653 140.452 161.653 140.452L161.833 136.91H164.496Z" fill="white" stroke="#031731" stroke-width="0.46" stroke-linecap="round" stroke-linejoin="round"/>
<path d="M155.158 91.2779L156.538 89.8151L159.993 89.7737L161.451 91.2319C159.354 91.1279 157.253 91.1433 155.158 91.2779Z" fill="white" stroke="#031731" stroke-width="0.46" stroke-linecap="round" stroke-linejoin="round"/>
<path d="M158.374 82.6851C158.051 82.6845 157.731 82.7475 157.432 82.8707C157.134 82.9939 156.862 83.1747 156.634 83.4029C156.405 83.6311 156.224 83.9021 156.1 84.2004C155.976 84.4987 155.913 84.8185 155.913 85.1415V87.7865C155.913 87.8877 155.913 87.9889 155.936 88.0901L156.934 89.3873H159.731L160.83 87.9153V85.1553C160.832 84.8315 160.77 84.5106 160.647 84.211C160.524 83.9114 160.344 83.639 160.115 83.4094C159.887 83.1798 159.616 82.9977 159.317 82.8734C159.018 82.749 158.697 82.6851 158.374 82.6851Z" fill="#031731" stroke="#031731" stroke-width="0.46" stroke-linecap="round" stroke-linejoin="round"/>
<path d="M151.538 92.7593C151.538 92.7593 146.28 101.403 146.133 101.66C145.985 101.918 150.958 107.488 150.958 107.488L151.418 105.786L150.148 101.186L152.048 99.2085L151.538 92.7593Z" fill="white" stroke="#031731" stroke-width="0.46" stroke-linecap="round" stroke-linejoin="round"/>
<path d="M151.437 105.768L153.18 107.051L152.38 109.204L151.372 109.025L151.34 108.611L150.958 107.47L151.437 105.768Z" fill="white" stroke="#031731" stroke-width="0.46" stroke-linecap="round" stroke-linejoin="round"/>
<path d="M165.209 92.7591L168.033 95.3581L171.34 89.7737L173.286 90.3579L169.004 101.683L164.647 98.9875L165.209 92.7591Z" fill="white" stroke="#031731" stroke-width="0.46" stroke-linecap="round" stroke-linejoin="round"/>
<path d="M171.341 89.7737L172.118 87.5381L174.161 85.5923L174.648 86.2271L173.783 87.4737L174.648 88.1499L174.598 89.3505L173.287 90.3579L171.341 89.7737Z" fill="white" stroke="#031731" stroke-width="0.46" stroke-linecap="round" stroke-linejoin="round"/>
<path d="M94.4522 56.1985L94.3464 56.6769L92.856 63.6551L90.1558 63.2181L90.2984 64.8971L95.0456 67.5283L95.4136 66.1391L94.4522 56.1985Z" fill="white" stroke="#031731" stroke-width="0.46" stroke-linecap="round" stroke-linejoin="round"/>
<path d="M106.711 56.1985L108.919 64.1657H111.187L110.529 66.0655L106.145 66.6497L106.711 56.1985Z" fill="white" stroke="#031731" stroke-width="0.46" stroke-linecap="round" stroke-linejoin="round"/>
<path d="M106.039 70.394H95.0958L94.5024 100.188H97.1566L100.57 77.5378L103.978 100.188H106.633L106.039 70.394Z" fill="#031731" stroke="#031731" stroke-width="0.46" stroke-linecap="round" stroke-linejoin="round"/>
<path d="M102.52 54.2712L100.579 54.6806L98.6377 54.2712L94.4517 56.1986L95.0957 70.3942H106.062L106.711 56.1986L102.52 54.2712Z" fill="white" stroke="#031731" stroke-width="0.46" stroke-linecap="round" stroke-linejoin="round"/>
<path d="M99.3691 57.2197L100.16 59.1793L99.5347 67.6295L100.538 69.4649L101.701 67.5467L100.745 59.2621L101.577 57.5509L100.492 55.9685L99.3691 57.2197Z" fill="#031731" stroke="#031731" stroke-width="0.46" stroke-linecap="round" stroke-linejoin="round"/>
<path d="M98.4954 53.9263L97.9756 54.5611L98.5598 58.1905L100.524 56.7277L102.654 58.1307L103.008 54.5611L102.497 54.0505L100.492 55.9687L98.4954 53.9263Z" fill="white" stroke="#031731" stroke-width="0.46" stroke-linecap="round" stroke-linejoin="round"/>
<path d="M94.5026 100.188C94.5026 100.188 93.3756 103.666 93.5458 103.721C93.716 103.776 97.3316 103.721 97.3316 103.721L97.1568 100.188H94.5026Z" fill="white" stroke="#031731" stroke-width="0.46" stroke-linecap="round" stroke-linejoin="round"/>
<path d="M106.679 100.188C106.679 100.188 107.806 103.666 107.635 103.721C107.465 103.776 103.85 103.721 103.85 103.721L104.024 100.188H106.679Z" fill="white" stroke="#031731" stroke-width="0.46" stroke-linecap="round" stroke-linejoin="round"/>
<path d="M102.465 54.271L100.524 56.7274L98.7021 54.271V52.0583H102.465V54.271Z" fill="#031731" stroke="#031731" stroke-width="0.46" stroke-linecap="round" stroke-linejoin="round"/>
<path d="M98.0126 49.7491C98.0126 49.7491 97.5526 49.1051 97.4468 49.6709C97.341 50.2367 98.1276 51.2487 98.1276 51.2487L98.0126 49.7491Z" fill="#9FC7FC" stroke="#031731" stroke-width="0.46" stroke-linecap="round" stroke-linejoin="round"/>
<path d="M103.095 49.7491C103.095 49.7491 103.555 49.1051 103.661 49.6709C103.767 50.2367 102.98 51.2487 102.98 51.2487L103.095 49.7491Z" fill="#9FC7FC" stroke="#031731" stroke-width="0.46" stroke-linecap="round" stroke-linejoin="round"/>
<path d="M102.346 53.3605L101.955 53.8619C101.801 54.0578 101.605 54.2163 101.381 54.3255C101.157 54.4347 100.911 54.4916 100.662 54.4921C100.432 54.4916 100.205 54.4431 99.9951 54.3496C99.7852 54.2562 99.5971 54.1198 99.443 53.9493L98.9554 53.4065C98.4231 52.8157 98.1281 52.0489 98.1274 51.2537V48.6179C98.1287 47.9684 98.3875 47.3459 98.8472 46.8871C99.3069 46.4283 99.9298 46.1707 100.579 46.1707C101.228 46.1707 101.851 46.4285 102.31 46.8874C102.769 47.3464 103.026 47.9688 103.026 48.6179V51.3779C103.027 52.0962 102.787 52.794 102.346 53.3605Z" fill="#9FC7FC" stroke="#031731" stroke-width="0.46" stroke-linecap="round" stroke-linejoin="round"/>
<path d="M99.1621 50.9221C99.2896 51.0146 99.442 51.0667 99.5995 51.0717C99.7569 51.0766 99.9123 51.0341 100.045 50.9497" stroke="#031731" stroke-width="0.23" stroke-linecap="round" stroke-linejoin="round"/>
<path d="M101.2 50.9773C101.316 51.0657 101.457 51.1136 101.603 51.1136C101.748 51.1136 101.89 51.0657 102.005 50.9773" stroke="#031731" stroke-width="0.23" stroke-linecap="round" stroke-linejoin="round"/>
<path d="M100.027 51.9802C100.027 51.9802 99.8521 52.339 100.027 52.4862C100.347 52.6635 100.724 52.7065 101.076 52.6058C101.444 52.4954 101.237 51.9158 101.237 51.9158" stroke="#031731" stroke-width="0.23" stroke-linecap="round" stroke-linejoin="round"/>
<path d="M100.027 53.1945C100.448 53.3346 100.904 53.3216 101.315 53.1577" stroke="#031731" stroke-width="0.23" stroke-linecap="round" stroke-linejoin="round"/>
<path d="M100.073 50.3703C99.9005 50.2867 99.7079 50.2527 99.517 50.2722C99.3261 50.2917 99.1444 50.3639 98.9922 50.4807" stroke="#031731" stroke-width="0.23" stroke-linecap="round" stroke-linejoin="round"/>
<path d="M101.076 50.4575C101.26 50.3705 101.465 50.3382 101.668 50.3642C101.87 50.3903 102.06 50.4738 102.216 50.6047" stroke="#031731" stroke-width="0.23" stroke-linecap="round" stroke-linejoin="round"/>
<path d="M100.579 46.1661C99.9298 46.1661 99.3069 46.4237 98.8472 46.8825C98.3875 47.3414 98.1287 47.9638 98.1274 48.6133V49.7495H98.5414V48.4477L99.604 47.5001L100.667 47.6887L101.729 47.5001L102.792 48.4477V49.7495H103.04V48.6133C103.04 48.2907 102.976 47.9714 102.853 47.6736C102.729 47.3757 102.547 47.1054 102.319 46.8779C102.09 46.6505 101.818 46.4705 101.52 46.3484C101.221 46.2262 100.902 46.1642 100.579 46.1661Z" fill="#031731" stroke="#031731" stroke-width="0.46" stroke-linecap="round" stroke-linejoin="round"/>
<path d="M89.2402 58.687C89.2402 58.687 95.7676 61.7184 99.3832 62.3026C102.999 62.8868 112.668 59.2712 112.668 59.2712L110.106 70.693C110.106 70.693 103.114 71.8568 99.7328 72.073C96.3518 72.2892 89.944 69.9754 89.944 69.9754C89.944 69.9754 89.8152 60.5546 89.2402 58.687Z" fill="white" stroke="#031731" stroke-width="0.46" stroke-linecap="round" stroke-linejoin="round"/>
<path d="M100.795 64.1196L100.303 70.969" stroke="#031731" stroke-width="0.23" stroke-linecap="round" stroke-linejoin="round"/>
<path d="M111.067 63.0203C111.067 63.0203 109.6 64.7315 107.764 66.9349" stroke="#031731" stroke-width="0.23" stroke-linecap="round" stroke-linejoin="round"/>
<path d="M90.1597 63.218C90.1597 63.218 92.3585 64.8556 93.3383 66.9348" stroke="#031731" stroke-width="0.23" stroke-linecap="round" stroke-linejoin="round"/>
<path d="M111.844 63.218C111.844 63.218 112.429 63.3652 112.429 63.8758C112.429 64.3864 112.355 65.8446 111.771 66.0654C111.187 66.2862 110.892 66.2126 111.039 65.1914C111.187 64.1702 110.892 63.4388 111.844 63.218Z" fill="#9FC7FC" stroke="#031731" stroke-width="0.46" stroke-linecap="round" stroke-linejoin="round"/>
<path d="M89.4973 63.218C89.4973 63.218 88.9131 63.3652 88.9131 63.8758C88.9131 64.3864 88.9867 65.8446 89.5709 66.0654C90.1551 66.2862 90.4449 66.2126 90.2977 65.1914C90.1505 64.1702 90.4449 63.4388 89.4973 63.218Z" fill="#9FC7FC" stroke="#031731" stroke-width="0.46" stroke-linecap="round" stroke-linejoin="round"/>
<path d="M72.0728 18.0691C72.0728 18.615 72.2346 19.1486 72.5379 19.6025C72.8412 20.0563 73.2722 20.4101 73.7765 20.619C74.2809 20.8279 74.8358 20.8825 75.3712 20.776C75.9066 20.6696 76.3984 20.4067 76.7844 20.0207C77.1704 19.6347 77.4332 19.1429 77.5397 18.6075C77.6462 18.0721 77.5916 17.5172 77.3827 17.0129C77.1738 16.5086 76.82 16.0775 76.3661 15.7742C75.9123 15.471 75.3786 15.3091 74.8328 15.3091C74.1008 15.3091 73.3987 15.5999 72.8811 16.1175C72.3635 16.6351 72.0728 17.3371 72.0728 18.0691Z" fill="#031731" stroke="#031731" stroke-width="0.46" stroke-linecap="round" stroke-linejoin="round"/>
<path d="M79.8746 46.3041L79.7366 51.2767L79.6032 64.0739H77.6574L76.2866 51.4147L75.937 46.2351L79.8746 46.3041Z" fill="white" stroke="#031731" stroke-width="0.46" stroke-linecap="round" stroke-linejoin="round"/>
<path d="M79.6031 64.0737C79.6031 64.0737 80.4265 67.5053 80.3069 67.5605C80.1873 67.6157 77.5469 67.5605 77.5469 67.5605L77.6757 64.0737H79.6031Z" fill="white" stroke="#031731" stroke-width="0.46" stroke-linecap="round" stroke-linejoin="round"/>
<path d="M80.3069 67.5604C80.1827 67.6156 77.5469 67.5604 77.5469 67.5604L77.5929 66.2678H80.1183C80.2336 66.6894 80.297 67.1235 80.3069 67.5604Z" fill="#031731" stroke="#031731" stroke-width="0.46" stroke-linecap="round" stroke-linejoin="round"/>
<path d="M69.7222 46.3041L69.8602 51.2767L69.9936 64.0739H71.9394L73.3148 51.4147L73.6598 46.2351L69.7222 46.3041Z" fill="white" stroke="#031731" stroke-width="0.46" stroke-linecap="round" stroke-linejoin="round"/>
<path d="M69.9937 64.0737C69.9937 64.0737 69.1703 67.5053 69.2945 67.5605C69.4187 67.6157 72.0545 67.5605 72.0545 67.5605L71.9257 64.0737H69.9937Z" fill="white" stroke="#031731" stroke-width="0.46" stroke-linecap="round" stroke-linejoin="round"/>
<path d="M69.2944 67.5604C69.414 67.6156 72.0544 67.5604 72.0544 67.5604L72.0084 66.2678H69.483C69.3663 66.6891 69.3029 67.1234 69.2944 67.5604Z" fill="#031731" stroke="#031731" stroke-width="0.46" stroke-linecap="round" stroke-linejoin="round"/>
<path d="M70.7848 28.548L68.793 21.74L72.933 19.8402L74.8466 19.1824L76.7602 19.8402L80.9002 21.74L78.9084 28.5204L78.9728 29.6382L80.2424 33.2446C80.4675 33.8829 80.5826 34.5549 80.5828 35.2318V38.7186L74.8834 40.2228L69.184 38.7278V35.241C69.1848 34.5645 69.2983 33.8929 69.5198 33.2538L70.794 29.6474L70.7848 28.548Z" fill="white" stroke="#031731" stroke-width="0.46" stroke-linecap="round" stroke-linejoin="round"/>
<path d="M72.2706 20.1394L72.9284 19.8404L72.9928 19.8542L72.9836 19.8404L73.416 16.5928H76.36L76.6958 19.8404L76.659 19.891L76.9074 19.9048L77.3168 20.0934L77.7078 23.0374H71.9624L72.2706 20.1394Z" fill="white" stroke="#031731" stroke-width="0.46" stroke-linecap="round" stroke-linejoin="round"/>
<path d="M77.3764 14.3202C77.3764 14.3202 77.8134 13.6808 77.933 14.2374C78.0526 14.794 77.2798 15.7968 77.2798 15.7968L77.3764 14.3202Z" fill="#9FC7FC" stroke="#031731" stroke-width="0.46" stroke-linecap="round" stroke-linejoin="round"/>
<path d="M72.3628 14.3202C72.3628 14.3202 71.9028 13.6808 71.8016 14.2374C71.7004 14.794 72.4778 15.7968 72.4778 15.7968L72.3628 14.3202Z" fill="#9FC7FC" stroke="#031731" stroke-width="0.46" stroke-linecap="round" stroke-linejoin="round"/>
<path d="M73.103 17.8759L73.4894 18.3681C73.6404 18.562 73.8337 18.7187 74.0545 18.8264C74.2754 18.934 74.5179 18.9897 74.7636 18.9891C74.99 18.9893 75.2138 18.9419 75.4207 18.85C75.6275 18.758 75.8127 18.6236 75.9642 18.4555L76.4472 17.9403C76.9818 17.3543 77.2787 16.59 77.2798 15.7967V13.1977C77.2798 12.5572 77.0254 11.943 76.5725 11.4901C76.1196 11.0372 75.5053 10.7827 74.8648 10.7827C74.2243 10.7827 73.6101 11.0372 73.1572 11.4901C72.7043 11.943 72.4498 12.5572 72.4498 13.1977V15.9209C72.4433 16.6272 72.6732 17.3154 73.103 17.8759Z" fill="white" stroke="#031731" stroke-width="0.46" stroke-linecap="round" stroke-linejoin="round"/>
<path d="M74.1201 17.0435C74.3243 17.1562 74.5538 17.2154 74.7871 17.2154C75.0204 17.2154 75.2499 17.1562 75.4541 17.0435" fill="white"/>
<path d="M74.1201 17.0435C74.3243 17.1562 74.5538 17.2154 74.7871 17.2154C75.0204 17.2154 75.2499 17.1562 75.4541 17.0435" stroke="#031731" stroke-width="0.23" stroke-linecap="round" stroke-linejoin="round"/>
<path d="M75.049 15.8291C75.049 15.8291 75.1134 16.3903 74.9248 16.4225C74.7362 16.4547 74.52 16.1005 74.52 16.1005" fill="white"/>
<path d="M75.049 15.8291C75.049 15.8291 75.1134 16.3903 74.9248 16.4225C74.7362 16.4547 74.52 16.1005 74.52 16.1005" stroke="#031731" stroke-width="0.23" stroke-linecap="round" stroke-linejoin="round"/>
<path d="M73.3701 15.2676C73.5136 15.3853 73.692 15.4523 73.8775 15.4581C74.0631 15.4639 74.2453 15.4083 74.3959 15.2998" fill="white"/>
<path d="M73.3701 15.2676C73.5136 15.3853 73.692 15.4523 73.8775 15.4581C74.0631 15.4639 74.2453 15.4083 74.3959 15.2998" stroke="#031731" stroke-width="0.23" stroke-linecap="round" stroke-linejoin="round"/>
<path d="M75.3296 15.2676C75.4731 15.3853 75.6515 15.4523 75.837 15.4581C76.0225 15.4639 76.2048 15.4083 76.3554 15.2998" fill="white"/>
<path d="M75.3296 15.2676C75.4731 15.3853 75.6515 15.4523 75.837 15.4581C76.0225 15.4639 76.2048 15.4083 76.3554 15.2998" stroke="#031731" stroke-width="0.23" stroke-linecap="round" stroke-linejoin="round"/>
<path d="M74.4601 14.8675C74.2589 14.7328 74.0271 14.6508 73.7859 14.6291C73.5448 14.6074 73.3021 14.6467 73.0801 14.7433" fill="white"/>
<path d="M74.4601 14.8675C74.2589 14.7328 74.0271 14.6508 73.7859 14.6291C73.5448 14.6074 73.3021 14.6467 73.0801 14.7433" stroke="#031731" stroke-width="0.23" stroke-linecap="round" stroke-linejoin="round"/>
<path d="M75.2974 14.8356C75.49 14.7524 75.6984 14.7122 75.9081 14.7178C76.1178 14.7234 76.3238 14.7745 76.5118 14.8678" fill="white"/>
<path d="M75.2974 14.8356C75.49 14.7524 75.6984 14.7122 75.9081 14.7178C76.1178 14.7234 76.3238 14.7745 76.5118 14.8678" stroke="#031731" stroke-width="0.23" stroke-linecap="round" stroke-linejoin="round"/>
<path d="M74.847 10.7828C75.1656 10.7804 75.4817 10.841 75.7768 10.9613C76.0719 11.0816 76.3403 11.2591 76.5665 11.4836C76.7927 11.7081 76.9723 11.9751 77.0948 12.2693C77.2173 12.5635 77.2804 12.8791 77.2804 13.1978V14.2604C76.7468 14.0672 74.4238 13.1794 73.3888 11.9374L72.4688 14.1408V13.1978C72.4687 12.5636 72.7181 11.9549 73.163 11.503C73.608 11.0511 74.2129 10.7924 74.847 10.7828Z" fill="#031731" stroke="#031731" stroke-width="0.46" stroke-linecap="round" stroke-linejoin="round"/>
<path d="M69.1841 35.2411C69.1849 34.5647 69.2984 33.8931 69.5199 33.2539L70.6607 30.0339H79.1201L80.2609 33.2539C80.486 33.8923 80.6011 34.5642 80.6013 35.2411L80.5737 46.7871H69.2209L69.1841 35.2411Z" fill="#031731" stroke="#031731" stroke-width="0.46" stroke-linecap="round" stroke-linejoin="round"/>
<path d="M82.4042 28.2212C82.4042 28.2212 82.8044 29.9922 82.717 30.4752C82.6296 30.9582 82.1466 31.5884 81.6912 31.5608C81.2358 31.5332 80.1318 29.7208 80.1318 29.7208L80.3066 28.672L82.4042 28.2212Z" fill="white" stroke="#031731" stroke-width="0.46" stroke-linecap="round" stroke-linejoin="round"/>
<path d="M80.9229 28.6492L82.1189 29.2794" stroke="#031731" stroke-width="0.46" stroke-linecap="round" stroke-linejoin="round"/>
<path d="M80.8906 21.7446L82.9698 28.1524L79.6256 28.9206L79.437 26.7586L80.8906 21.7446Z" fill="white" stroke="#031731" stroke-width="0.46" stroke-linecap="round" stroke-linejoin="round"/>
<path d="M67.16 28.4238C67.16 28.4238 66.8748 30.0476 67.1048 30.503C67.3348 30.9584 68.4848 31.4736 69.161 31.3908C69.8372 31.308 70.081 29.0908 70.081 29.0908L67.16 28.4238Z" fill="white" stroke="#031731" stroke-width="0.46" stroke-linecap="round" stroke-linejoin="round"/>
<path d="M68.8251 21.7446L67.0679 28.1524L70.3937 29.0678L70.2787 26.7586L68.8251 21.7446Z" fill="white" stroke="#031731" stroke-width="0.46" stroke-linecap="round" stroke-linejoin="round"/>
<path d="M68.2822 29.2473L72.9052 27.1083C72.9052 27.1083 73.931 25.8847 74.1012 25.9123C74.2714 25.9399 76.1298 27.8811 75.9412 27.9639C75.7464 28.0874 75.5185 28.1484 75.288 28.1387L74.2898 27.8213C74.0402 28.0183 73.7721 28.1909 73.4894 28.3365C73.3448 28.4004 73.1874 28.4303 73.0294 28.4239C73.0294 28.4239 70.2464 31.1839 69.906 31.3127C69.5656 31.4415 68.4846 31.9521 67.7578 31.3127C67.5542 31.1401 67.4122 30.906 67.353 30.6457" fill="white"/>
<path d="M68.2822 29.2473L72.9052 27.1083C72.9052 27.1083 73.931 25.8847 74.1012 25.9123C74.2714 25.9399 76.1298 27.8811 75.9412 27.9639C75.7464 28.0874 75.5185 28.1484 75.288 28.1387L74.2898 27.8213C74.0402 28.0183 73.7721 28.1909 73.4894 28.3365C73.3448 28.4004 73.1874 28.4303 73.0294 28.4239C73.0294 28.4239 70.2464 31.1839 69.906 31.3127C69.5656 31.4415 68.4846 31.9521 67.7578 31.3127C67.5542 31.1401 67.4122 30.906 67.353 30.6457" stroke="#031731" stroke-width="0.46" stroke-linecap="round" stroke-linejoin="round"/>
<path d="M73.1311 31.0267L79.2046 31.9951L80.3983 24.5089L74.3249 23.5404L73.1311 31.0267Z" fill="#0F73F7" stroke="#031731" stroke-width="0.46" stroke-linecap="round" stroke-linejoin="round"/>
<path d="M78.8347 23.7317L78.6047 24.9001L75.8125 24.4401L76.0425 23.2947L78.8347 23.7317Z" fill="white" stroke="#031731" stroke-width="0.46" stroke-linecap="round" stroke-linejoin="round"/>
<path d="M80.7716 28.6721C80.6842 28.0373 80.5278 27.3335 80.5278 27.2921C80.1782 27.1633 79.088 27.2507 78.9546 27.4439C78.8536 27.7107 78.7947 27.9916 78.7798 28.2765L79.7596 28.5249C79.8576 28.9297 79.9821 29.3277 80.1322 29.7163C80.2656 29.9325 80.5278 29.9095 80.767 29.7163C80.7978 29.6798 80.8171 29.6349 80.8222 29.5875" fill="white"/>
<path d="M80.7716 28.6721C80.6842 28.0373 80.5278 27.3335 80.5278 27.2921C80.1782 27.1633 79.088 27.2507 78.9546 27.4439C78.8536 27.7107 78.7947 27.9916 78.7798 28.2765L79.7596 28.5249C79.8576 28.9297 79.9821 29.3277 80.1322 29.7163C80.2656 29.9325 80.5278 29.9095 80.767 29.7163C80.7978 29.6798 80.8171 29.6349 80.8222 29.5875" stroke="#031731" stroke-width="0.46" stroke-linecap="round" stroke-linejoin="round"/>
<path d="M59.2621 183.13C57.6199 183.618 53.8203 183.08 53.8203 183.08C53.8203 183.08 54.9473 180.688 55.0393 180.545C56.0927 178.903 59.0965 176.35 61.2125 176.906C61.5602 177.01 61.8824 177.185 62.1582 177.421C62.4339 177.656 62.6571 177.947 62.8132 178.275C62.9693 178.602 63.0549 178.959 63.0644 179.321C63.074 179.684 63.0072 180.044 62.8685 180.38C62.3257 181.801 60.6605 182.716 59.2621 183.13Z" fill="#031731"/>
<path d="M23.8142 181.543C23.7774 181.543 23.437 178.926 23.437 178.756C23.4094 176.805 24.5042 173.019 26.5742 172.316C26.9212 172.209 27.2868 172.176 27.6472 172.22C28.0075 172.264 28.3546 172.384 28.6657 172.571C28.9768 172.758 29.2451 173.008 29.453 173.306C29.6609 173.604 29.8038 173.942 29.8724 174.298C30.2174 175.802 29.3342 177.486 28.3958 178.599C27.2964 179.915 23.8188 181.543 23.8142 181.543Z" fill="#031731"/>
<path d="M15.6907 174.496C16.8361 175.14 19.5409 175.416 20.2125 175.481C20.5483 175.941 20.8979 176.433 21.2751 176.99C21.9329 177.969 22.6551 179.083 23.3819 180.348C23.5705 180.688 23.7637 181.056 23.9569 181.41C23.4969 180.881 22.8805 180.159 22.8115 180.095C21.5511 178.935 18.4323 177.427 16.7579 178.374C16.4824 178.537 16.2443 178.756 16.0593 179.017C15.8743 179.279 15.7466 179.576 15.6845 179.89C15.6224 180.204 15.6273 180.527 15.6989 180.839C15.7706 181.151 15.9073 181.445 16.1001 181.7C16.8821 182.809 18.5059 183.213 19.7801 183.255C21.0543 183.296 23.7039 182.266 24.2697 182.036C24.6837 182.827 25.0885 183.65 25.4657 184.534C26.1704 186.13 26.7307 187.787 27.1401 189.483L27.0389 189.525C26.6847 188.982 25.9165 187.864 25.8429 187.781C24.7159 186.484 21.7811 184.649 20.0147 185.403C19.7262 185.536 19.4688 185.729 19.2593 185.968C19.0497 186.207 18.8926 186.487 18.7981 186.79C18.7036 187.094 18.6738 187.414 18.7106 187.729C18.7474 188.045 18.8501 188.349 19.0119 188.623C19.6697 189.814 21.2337 190.394 22.5033 190.578C23.9661 190.785 27.1033 189.86 27.2045 189.824C27.5607 191.52 27.808 193.238 27.9451 194.966C28.0509 196.245 28.1061 197.542 28.1475 198.849C27.9083 198.462 26.9009 197.009 26.8135 196.894C25.6911 195.601 22.7517 193.761 20.9853 194.516C20.7001 194.653 20.4462 194.847 20.2395 195.086C20.0328 195.326 19.8778 195.606 19.7841 195.908C19.6904 196.21 19.66 196.528 19.695 196.843C19.7299 197.157 19.8294 197.461 19.9871 197.736C20.6449 198.922 22.2089 199.507 23.4785 199.686C24.9045 199.893 27.8991 199.014 28.1521 198.941C28.1521 199.534 28.1935 200.128 28.2073 200.721C28.2579 202.658 28.2947 204.603 28.3959 206.517C28.4281 207.184 28.4879 207.837 28.5431 208.49C28.1659 207.925 27.4621 206.903 27.3931 206.821C26.2661 205.528 23.3313 203.688 21.5649 204.442C21.2768 204.576 21.0199 204.769 20.8108 205.008C20.6017 205.247 20.4451 205.527 20.351 205.831C20.2569 206.134 20.2275 206.454 20.2647 206.769C20.3019 207.085 20.4048 207.389 20.5667 207.662C21.2199 208.849 22.7885 209.433 24.0535 209.613C25.3185 209.792 27.8623 209.116 28.5753 208.914C28.6719 210.004 28.7961 211.08 28.9709 212.134C29.0537 212.594 29.1089 213.054 29.2147 213.486L29.5045 214.783C29.7299 215.657 29.9369 216.476 30.1715 217.286C30.2865 217.7 30.4015 218.081 30.5211 218.482C30.2267 217.847 29.7437 216.853 29.6885 216.77C28.7685 215.317 26.1465 213.054 24.2881 213.55C23.9818 213.639 23.6974 213.79 23.4534 213.995C23.2094 214.201 23.0114 214.455 22.8721 214.742C22.7329 215.028 22.6555 215.341 22.6451 215.66C22.6346 215.978 22.6913 216.296 22.8115 216.591C23.2715 217.865 24.7389 218.679 25.9625 219.052C27.3149 219.461 30.3095 219.075 30.6729 219.024C30.9673 219.995 31.2571 220.943 31.5469 221.821C31.7815 222.539 32.0069 223.201 32.2369 223.854H33.4973C33.2167 223.105 32.9223 222.304 32.6233 221.453C32.3243 220.602 32.0621 219.825 31.7815 218.96C32.1173 218.827 34.7209 217.764 35.7789 216.77C36.5924 217.295 37.4374 217.77 38.3089 218.192C38.0191 219.167 37.7385 220.115 37.4947 221.007C37.2187 222.019 36.9719 222.968 36.7541 223.854H37.9961C38.1801 223.049 38.3779 222.203 38.6079 221.292C38.8103 220.483 39.0357 219.627 39.2795 218.748C39.6475 218.827 42.6007 219.42 43.9761 219.103C45.2227 218.817 46.7361 218.109 47.2927 216.872C47.4298 216.584 47.5059 216.272 47.516 215.954C47.5262 215.636 47.4703 215.319 47.3519 215.024C47.2334 214.729 47.055 214.461 46.8278 214.239C46.6007 214.016 46.3298 213.843 46.0323 213.73C44.1923 213.123 41.4323 215.197 40.4157 216.582C40.3513 216.669 39.7027 217.805 39.3807 218.39C39.5325 217.861 39.6751 217.332 39.8407 216.784C40.0707 215.993 40.3375 215.165 40.5951 214.36C40.7423 213.946 40.8941 213.532 41.0551 213.109C41.2161 212.686 41.3863 212.295 41.5565 211.876C41.8095 211.273 42.1039 210.662 42.3983 210.036C43.1895 210.321 45.5263 211.108 46.7637 211.016C48.0011 210.924 49.6433 210.45 50.3839 209.314C50.5665 209.052 50.692 208.755 50.752 208.441C50.8121 208.128 50.8055 207.805 50.7326 207.495C50.6597 207.184 50.5221 206.892 50.3289 206.638C50.1357 206.384 49.8911 206.173 49.6111 206.02C47.8999 205.142 44.8455 206.775 43.6311 207.984C43.5897 208.026 43.3597 208.311 43.0929 208.647C43.3965 208.063 43.6955 207.474 44.0129 206.89C44.9329 205.229 45.9403 203.568 46.9339 201.903C47.1455 201.554 47.3433 201.204 47.5503 200.854C48.2173 201.098 50.7381 201.972 52.0353 201.88C53.3325 201.788 54.9149 201.314 55.6555 200.174C55.8381 199.912 55.9636 199.615 56.0236 199.301C56.0837 198.988 56.0771 198.665 56.0042 198.354C55.9313 198.044 55.7937 197.752 55.6005 197.498C55.4073 197.244 55.1627 197.033 54.8827 196.88C53.1715 196.001 50.1171 197.634 48.9027 198.849C48.8567 198.89 48.5853 199.231 48.2817 199.612C48.8107 198.692 49.3259 197.772 49.8043 196.852C50.6379 195.281 51.3648 193.655 51.9801 191.986C52.2147 192.073 55.1541 193.159 56.5801 193.053C57.8589 192.961 59.4597 192.487 60.2003 191.351C60.3829 191.089 60.5084 190.792 60.5684 190.478C60.6285 190.165 60.6219 189.842 60.549 189.532C60.4761 189.221 60.3385 188.929 60.1453 188.675C59.9521 188.421 59.7075 188.21 59.4275 188.057C57.7163 187.179 54.6619 188.812 53.4475 190.021C53.3601 190.109 52.3803 191.342 52.0675 191.792C52.0675 191.792 52.0675 191.756 52.0675 191.733C52.6475 190.067 53.08 188.354 53.3601 186.613C53.602 185.059 53.7556 183.492 53.8201 181.921C53.8891 180.463 53.8661 179.129 53.8201 177.942C53.8201 177.302 53.7649 176.718 53.7281 176.171L53.7603 176.198C53.7879 176.198 54.5929 174.027 54.6297 173.898C55.0345 172.229 54.8321 168.769 53.1945 167.767C52.9165 167.611 52.6092 167.514 52.292 167.484C51.9749 167.453 51.6547 167.488 51.352 167.588C51.0492 167.687 50.7705 167.849 50.5333 168.062C50.2962 168.274 50.1059 168.534 49.9745 168.825C49.3857 170.048 49.8181 171.663 50.4023 172.799C50.9865 173.935 53.1071 175.692 53.6223 176.116C53.6453 176.681 53.6683 177.289 53.6775 177.956C53.6775 179.138 53.6775 180.472 53.5763 181.921C53.5487 182.307 53.5073 182.721 53.4705 183.121C53.3877 182.431 53.2635 181.484 53.2451 181.396C52.8311 179.731 51.0601 176.75 49.1465 176.617C48.8273 176.603 48.5086 176.656 48.2113 176.773C47.9141 176.89 47.6449 177.069 47.4213 177.297C47.1977 177.526 47.0248 177.799 46.9139 178.098C46.803 178.398 46.7565 178.718 46.7775 179.037C46.8189 180.394 47.9459 181.626 48.9901 182.367C50.0343 183.108 52.8127 183.706 53.4107 183.825C53.3187 184.713 53.2037 185.624 53.0289 186.585C52.7295 188.308 52.2785 190.001 51.6811 191.645L51.5753 191.622C51.5753 190.978 51.5523 189.621 51.5385 189.506C51.3131 187.809 49.8779 184.653 47.9873 184.308C47.6725 184.264 47.352 184.285 47.0458 184.371C46.7397 184.457 46.4547 184.605 46.2087 184.806C45.9628 185.008 45.7613 185.258 45.6169 185.541C45.4725 185.824 45.3884 186.134 45.3699 186.452C45.2641 187.804 46.2485 189.157 47.2099 190.008C48.3139 190.987 51.4281 191.935 51.5477 191.972C50.9101 193.584 50.1679 195.153 49.3259 196.668C48.7095 197.791 48.0379 198.909 47.3571 200.017C47.3571 199.557 47.3571 197.782 47.3203 197.653C47.0949 195.955 45.6643 192.8 43.7737 192.455C43.4601 192.41 43.1404 192.43 42.835 192.514C42.5295 192.599 42.2447 192.745 41.9985 192.945C41.7523 193.144 41.55 193.392 41.4043 193.674C41.2586 193.955 41.1726 194.264 41.1517 194.58C41.0413 195.932 42.0257 197.285 42.9917 198.136C44.0727 199.093 47.0535 200.017 47.3019 200.091C46.9937 200.597 46.6855 201.103 46.3819 201.604C45.3561 203.251 44.3165 204.893 43.3413 206.545C43.0009 207.12 42.6927 207.695 42.3753 208.27C42.3753 207.593 42.3753 206.351 42.3385 206.246C42.1131 204.544 40.6779 201.393 38.7873 201.048C38.4719 200.999 38.1497 201.017 37.8418 201.101C37.5339 201.185 37.2472 201.333 37.0002 201.535C36.7533 201.737 36.5517 201.989 36.4087 202.275C36.2656 202.56 36.1843 202.872 36.1699 203.191C36.0641 204.544 37.0485 205.896 38.0099 206.747C38.9713 207.598 41.4599 208.431 42.1499 208.656C41.6301 209.617 41.1379 210.583 40.7009 211.559C40.5215 211.982 40.3099 212.405 40.1581 212.824C40.0063 213.242 39.8407 213.652 39.6981 214.061C39.4037 214.917 39.1277 215.712 38.8747 216.517C38.7413 216.927 38.6309 217.313 38.5067 217.709C38.6079 217.019 38.7551 215.924 38.7551 215.823C38.7919 214.107 37.8351 210.763 36.0365 210.146C35.7333 210.049 35.4129 210.016 35.0962 210.051C34.7795 210.085 34.4736 210.186 34.1984 210.346C33.9233 210.507 33.685 210.724 33.4993 210.983C33.3135 211.241 33.1843 211.536 33.1201 211.848C33.0833 212.013 33.0602 212.181 33.0511 212.35C32.2053 213.599 31.6924 215.043 31.5607 216.545C31.5607 216.655 31.6389 217.962 31.6941 218.624C31.5285 218.1 31.3583 217.58 31.1927 217.033C30.9489 216.246 30.7327 215.409 30.4843 214.595C30.3785 214.171 30.2773 213.739 30.1669 213.307C30.0565 212.874 29.9967 212.442 29.9047 212C29.7851 211.356 29.6931 210.685 29.6011 210.013C30.4153 209.811 32.8211 209.18 33.7825 208.421C34.7439 207.662 35.8709 206.361 35.8617 205.004C35.8667 204.686 35.8051 204.372 35.681 204.079C35.5569 203.787 35.3731 203.525 35.1412 203.308C34.9094 203.091 34.6347 202.926 34.335 202.821C34.0352 202.717 33.717 202.677 33.4007 202.704C31.4871 202.915 29.8403 205.96 29.4953 207.644C29.4953 207.699 29.4493 208.058 29.4125 208.49C29.3435 207.833 29.2699 207.175 29.2193 206.508C29.0813 204.613 28.9985 202.676 28.9111 200.735C28.8881 200.33 28.8651 199.93 28.8467 199.525C29.5321 199.359 32.1219 198.697 33.1523 197.906C34.1827 197.115 35.2407 195.84 35.2269 194.483C35.2319 194.166 35.1703 193.851 35.0462 193.559C34.9221 193.267 34.7383 193.004 34.5064 192.788C34.2746 192.571 33.9999 192.405 33.7002 192.301C33.4004 192.197 33.0822 192.157 32.7659 192.183C30.8569 192.395 29.2055 195.44 28.8651 197.124C28.8651 197.184 28.8099 197.616 28.7685 198.099C28.7041 197.05 28.6259 195.997 28.5155 194.962C28.3315 193.164 28.0257 191.382 27.6001 189.626C27.8439 189.571 30.8937 188.858 32.0391 187.974C33.0557 187.192 34.1275 185.914 34.1137 184.557C34.1187 184.239 34.0571 183.924 33.933 183.632C33.8089 183.34 33.6251 183.078 33.3932 182.861C33.1614 182.644 32.8867 182.479 32.587 182.374C32.2872 182.27 31.969 182.23 31.6527 182.257C29.7437 182.468 28.0969 185.518 27.7519 187.197C27.7519 187.317 27.5909 188.885 27.5587 189.446V189.387C27.1101 187.675 26.5081 186.008 25.7601 184.405C25.1048 182.975 24.366 181.585 23.5475 180.242C22.8023 178.986 22.0433 177.887 21.3671 176.916C20.9945 176.396 20.6449 175.922 20.3137 175.49H20.3551C20.3873 175.49 19.8491 173.222 19.7985 173.084C19.2189 171.47 17.1443 168.696 15.1985 168.765C14.88 168.785 14.5692 168.871 14.2865 169.019C14.0037 169.167 13.7553 169.373 13.5574 169.624C13.3595 169.874 13.2166 170.163 13.138 170.473C13.0593 170.782 13.0467 171.104 13.1009 171.419C13.3401 172.762 14.5729 173.88 15.6907 174.496Z" fill="#031731"/>
</svg>
