<svg width="37" height="35" viewBox="0 0 37 35" fill="none" xmlns="http://www.w3.org/2000/svg">
<path d="M24.5108 33.3032H2.51341C1.12475 33.3032 0 32.1784 0 30.7897V5.1777C0 4.6813 0.201073 4.19746 0.552951 3.84558L3.29257 1.10592C3.64293 0.754781 4.0592 0.476321 4.51749 0.286534C4.97578 0.0967472 5.46704 -0.000627532 5.96307 3.04307e-06H29.2247C30.2301 3.04307e-06 31.1852 0.395871 31.8952 1.10592L34.6348 3.84558C34.9867 4.19746 35.1878 4.6813 35.1878 5.1777V17.459L24.5108 33.3032Z" fill="#CB8252"/>
<path d="M35.0181 4.39853H0.175954C0.263924 4.19746 0.389579 4.00895 0.552951 3.84558L3.29257 1.10592C3.64293 0.754781 4.0592 0.476321 4.51749 0.286534C4.97578 0.0967472 5.46704 -0.000627532 5.96307 3.04307e-06H29.2247C30.2301 3.04307e-06 31.1852 0.395871 31.8952 1.10592L34.6348 3.84558C34.7982 4.00895 34.9239 4.19746 35.0181 4.39853Z" fill="#A56A43"/>
<path d="M21.3641 4.39893V15.7094L17.594 13.196L13.8238 15.7094V4.39893H21.3641Z" fill="#F0C419"/>
<path d="M13.8238 4.39893L15.0806 0H20.1074L21.3641 4.39893H13.8238Z" fill="#F29C1F"/>
<path d="M13.8238 21.9926H3.77014C3.07608 21.9926 2.51344 22.5552 2.51344 23.2493V29.5329C2.51344 30.227 3.07608 30.7896 3.77014 30.7896H13.8238C14.5178 30.7896 15.0805 30.227 15.0805 29.5329V23.2493C15.0805 22.5552 14.5178 21.9926 13.8238 21.9926Z" fill="#F0C419"/>
<path d="M12.5671 27.0194H5.02687C4.86022 27.0194 4.70039 26.9531 4.58256 26.8353C4.46472 26.7175 4.39851 26.5576 4.39851 26.391C4.39851 26.2243 4.46472 26.0645 4.58256 25.9467C4.70039 25.8288 4.86022 25.7626 5.02687 25.7626H12.5671C12.7338 25.7626 12.8936 25.8288 13.0114 25.9467C13.1293 26.0645 13.1955 26.2243 13.1955 26.391C13.1955 26.5576 13.1293 26.7175 13.0114 26.8353C12.8936 26.9531 12.7338 27.0194 12.5671 27.0194Z" fill="#F9EAB0"/>
<path d="M36.4445 20.9923C36.4445 26.5652 30.7258 32.5466 28.5103 34.6547C28.2777 34.8764 27.9688 35 27.6475 35C27.3263 35 27.0173 34.8764 26.7848 34.6547C24.5692 32.5459 18.8506 26.5652 18.8506 20.9923C18.8506 16.1338 22.7891 12.1952 27.6475 12.1952C32.506 12.1952 36.4445 16.1338 36.4445 20.9923Z" fill="#0F73F7"/>
<path d="M27.7632 26.1064C30.5394 26.1064 32.79 23.8558 32.79 21.0795C32.79 18.3032 30.5394 16.0526 27.7632 16.0526C24.9869 16.0526 22.7363 18.3032 22.7363 21.0795C22.7363 23.8558 24.9869 26.1064 27.7632 26.1064Z" fill="#F6EDDF"/>
</svg>
