<svg width="176" height="130" viewBox="0 0 176 130" fill="none" xmlns="http://www.w3.org/2000/svg">
<path d="M147.495 12.1033C148.91 13.2029 150.16 14.4063 151.403 15.699C151.799 16.0731 152.195 16.4477 152.603 16.8335C155.787 19.887 158.4 23.0862 160.71 26.8671C160.886 27.1537 161.063 27.4399 161.244 27.7349C166.912 37.1399 169.269 47.6304 169.203 58.5393C169.206 59.1308 169.21 59.7227 169.213 60.3323C169.185 73.9946 164.285 87.3828 155.126 97.5984C153.872 98.8241 152.61 100.034 151.315 101.215C150.226 102.29 150.787 103.943 151.649 105.206C153.31 107.641 155.528 109.208 158.383 110.628C158.738 110.746 159.096 110.848 159.457 110.934C164.473 112.142 168.621 115.533 168.621 120.692C168.621 125.935 164.437 130.459 159.218 129.963C152.25 129.3 146.001 127.227 140.031 122.029C137.453 119.564 135.328 117.158 133.517 114.203C133.073 113.477 132.215 113.102 131.39 113.313C129.709 113.741 128.024 114.155 126.339 114.567C125.476 114.783 124.617 115.015 123.76 115.251C110.567 118.597 96.4596 115.009 84.9183 108.359C81.7111 106.441 78.7856 104.307 76.0187 101.786C75.6632 101.469 75.3072 101.151 74.9409 100.823C71.5491 97.6258 68.9981 93.8157 66.4267 89.9576C66.3094 89.7817 66.2466 89.5746 66.2466 89.3633C66.2466 89.3168 66.2466 89.2707 66.2466 89.2242C66.2466 88.7091 66.6589 88.2916 67.174 88.2916C67.4658 88.2916 67.7473 88.4275 67.9218 88.6621C68.2429 89.0944 68.3294 89.2516 68.7766 90.066C69.3825 91.0925 69.9283 91.9017 70.6608 92.5504C71.8153 93.5723 73.4142 93.9013 74.9554 93.9311C76.2741 93.9562 77.464 93.7887 78.747 93.348C79.7544 93.0023 80.8824 92.5974 81.3635 91.6472C81.4212 91.5337 81.4841 91.3987 81.5622 91.2307C82.5539 89.4201 84.505 88.4089 86.5683 88.334C87.4497 88.3019 88.3385 88.3242 89.2515 88.3498C89.7959 88.3573 90.3404 88.3642 90.9011 88.3721C94.8169 88.515 97.4335 89.354 100.554 91.1116C101.58 91.6895 102.624 92.2489 103.747 92.603C109.216 94.3248 114.812 94.1256 120.49 93.1944C123.458 92.7505 126.517 94.3592 129.401 93.5286C130.001 93.3555 130.594 93.126 131.188 92.8347C131.641 92.6128 132.051 92.3117 132.402 91.9492C132.916 91.4178 133.371 90.858 133.779 90.2554C134.377 89.3698 135.317 88.7365 136.386 88.7044C137.145 88.6737 137.905 88.643 138.665 88.6118C139.041 88.6011 139.417 88.5904 139.804 88.5797C141.096 88.522 142.21 88.4201 143.284 88.1078C145.081 87.5853 146.564 86.2069 147.173 84.4368C147.575 83.2679 147.75 82.0235 147.942 80.701C147.999 80.3325 148.056 79.964 148.115 79.5843C148.287 78.4544 148.449 77.3241 148.611 76.1929C148.661 75.8587 148.711 75.5246 148.763 75.1808C150.222 68.404 150.299 68.0448 149.14 62.3979C149.006 61.7511 148.667 61.1606 148.175 60.7204C146.598 59.2839 146.545 57.9777 146.433 55.9465C146.412 55.2108 146.398 54.4751 146.39 53.7389C146.306 45.5951 142.337 38.0045 136.791 32.2147C132.32 27.9215 127.122 24.8829 121.156 23.1444C120.813 23.0401 120.47 22.9354 120.117 22.8279C117.453 22.1574 114.785 22.1197 112.053 22.0974C111.685 22.0932 111.317 22.0885 110.937 22.0843C106.948 22.1057 103.418 22.9936 99.7798 24.5985C99.4596 24.7391 99.1395 24.8796 98.81 25.0243C96.0868 26.2738 93.6429 27.8717 91.5628 29.9862C90.8597 30.7015 90.2212 31.5386 89.2989 31.9323C88.6503 32.2092 88.0137 32.2068 86.9527 32.1971C86.4404 32.1971 85.928 32.1971 85.4004 32.1966C84.8503 32.1873 84.2998 32.1775 83.733 32.1677C83.1677 32.1649 82.6023 32.1621 82.0197 32.1594C80.2132 32.1491 78.4068 32.1259 76.6003 32.1021C75.3756 32.0928 74.1513 32.0844 72.9265 32.0765C68.4467 32.0463 65.3801 27.6535 67.8171 23.8945C72.946 15.9819 81.142 9.5244 89.0872 5.33077C108.296 -4.19143 130.71 -0.363557 147.495 12.1033Z" fill="#0F73F7"/>
<path d="M53.3345 35.6529C53.8525 35.6519 54.3708 35.6515 54.9046 35.651C55.4755 35.6524 56.0465 35.6543 56.6347 35.6557C57.5337 35.6557 57.5337 35.6557 58.4509 35.6557C60.0968 35.6557 61.7422 35.6584 63.3881 35.6617C65.1076 35.6645 66.8265 35.6645 68.5455 35.6654C71.8019 35.6668 75.0583 35.6706 78.3152 35.6752C82.0221 35.6803 85.729 35.6831 89.4359 35.6854C96.0209 35.6896 102.606 35.6961 109.192 35.7045C110.883 35.7068 112.219 37.1378 112.103 38.8251C112.064 39.4035 112.025 39.9819 111.984 40.5775C111.82 42.5836 111.515 44.5264 111.124 46.499C111.055 46.8666 110.986 47.2342 110.914 47.6134C110.696 48.7647 110.474 49.9145 110.25 51.0649C109.958 52.5865 109.668 54.1086 109.379 55.6312C109.274 56.1878 109.274 56.1878 109.166 56.7555C108.674 59.3856 108.277 62.0198 107.917 64.6709C107.358 68.5062 106.651 72.3187 105.975 76.1349C105.067 81.282 100.594 85.0345 95.3676 85.0345C92.9892 85.0345 90.5992 85.0345 88.1883 85.0345C85.8816 85.0345 83.796 83.6869 82.8593 81.5789C82.6462 81.1001 82.3716 80.6352 82.0161 80.2499C80.8369 78.9707 79.5791 78.1787 77.742 77.8818C74.9546 77.8064 72.975 78.2308 70.9201 79.9521C70.5897 80.2285 70.2956 80.5566 70.0448 80.907C68.3351 83.2951 65.7916 85.0452 62.8544 85.0578C60.4095 85.068 57.9646 85.0764 55.5197 85.0829C53.6435 85.0876 51.7673 85.0941 49.891 85.1048C48.0804 85.115 46.2702 85.1206 44.4601 85.1229C43.769 85.1243 43.0776 85.128 42.3865 85.1327C41.4196 85.1397 40.4526 85.1406 39.4856 85.1401C38.9346 85.142 38.3842 85.1443 37.8164 85.1467C37.1491 85.0913 36.8113 85.0633 36.4721 84.9368C35.5014 84.5752 34.9383 83.511 34.9383 82.4752C34.9383 81.4393 35.5279 80.4235 36.4963 80.0559C37.164 79.8027 37.7727 79.7869 38.8802 79.7748C39.3725 79.7669 39.8644 79.7594 40.3716 79.7515C40.9026 79.7473 41.433 79.7436 41.9803 79.7394C42.5243 79.7315 43.0687 79.7236 43.6294 79.7157C45.3712 79.6906 47.113 79.672 48.8547 79.6543C50.5997 79.6338 52.3448 79.6119 54.0898 79.5877C55.1768 79.5728 56.2638 79.5603 57.3509 79.55C57.8399 79.544 58.3295 79.5375 58.8334 79.5314C59.2662 79.5268 59.6989 79.5226 60.1452 79.5179C60.47 79.5314 60.7646 79.503 61.0219 79.4416C61.846 79.2448 62.3514 78.4979 62.0908 77.6919C61.9 77.1038 61.3784 76.3811 60.7776 76.2354C60.1652 76.087 59.3904 76.1075 58.6887 76.0949C58.1926 76.0819 57.6966 76.0684 57.1852 76.0549C56.1335 76.0307 55.0819 76.0102 54.0297 75.993C53.5323 75.9786 53.0353 75.9641 52.523 75.9497C52.288 75.9446 52.0534 75.9399 51.8166 75.9353C51.3633 75.926 50.9096 75.8943 50.4653 75.8045C50.3238 75.7757 50.2084 75.7468 50.1041 75.7124C49.3694 75.4667 48.791 74.7719 48.5788 74.0269C48.1283 72.4452 49.1814 70.6672 50.8152 70.4741C51.6081 70.3806 52.4602 70.455 53.388 70.449C53.7747 70.4425 54.1614 70.4355 54.5602 70.4285C55.7994 70.4066 57.0386 70.3908 58.2778 70.3764C59.9056 70.3573 61.5328 70.3322 63.1601 70.3038C63.7218 70.3001 63.7218 70.3001 64.2942 70.2963C66.088 70.2642 68.519 70.3419 69.2714 69.213C70.1476 67.8984 68.397 66.4624 66.8195 66.3721C66.6013 66.3596 66.377 66.3554 66.1443 66.3545C65.6222 66.3545 65.6222 66.3544 65.0899 66.3549C64.7255 66.3535 64.3607 66.3517 63.9847 66.3503C63.1899 66.3466 62.3956 66.3442 61.6008 66.3424C60.343 66.3391 59.0856 66.3321 57.8283 66.3233C54.2522 66.2986 50.6761 66.2767 47.0999 66.2693C44.9147 66.2647 42.7299 66.2512 40.5447 66.2316C39.7113 66.2256 38.8779 66.2232 38.044 66.2246C36.8774 66.2256 35.7117 66.2153 34.5451 66.2023C34.0277 66.207 34.0277 66.2069 33.4995 66.2116C32.5209 66.1939 31.8103 66.1399 31.1072 65.8812C30.1132 65.5155 29.1151 64.7276 29.0704 63.6699C29.0634 63.5057 29.069 63.3116 29.0816 63.065C29.0965 62.7639 29.2263 62.1897 29.3156 61.9016C29.6107 60.9505 30.4995 60.7997 31.4953 60.7751C31.8899 60.7653 32.285 60.7597 32.6796 60.756C33.5553 60.7467 33.5553 60.7467 34.4488 60.7374C34.9197 60.7336 34.9197 60.7336 35.4004 60.7299C36.3799 60.7225 37.3595 60.7118 38.339 60.6997C41.125 60.6666 43.911 60.6387 46.697 60.615C48.3992 60.6001 50.1014 60.581 51.8036 60.5591C52.4532 60.5517 53.1033 60.5461 53.7533 60.5419C54.6612 60.5363 55.5691 60.5247 56.4774 60.5126C56.9944 60.508 57.5119 60.5028 58.0451 60.4982C58.8595 60.4954 59.1619 60.4945 59.4872 60.232C60.0293 59.7951 60.296 59.0524 60.3127 58.3562C60.3323 57.5293 59.9428 56.701 59.2173 56.3041C58.7273 56.0356 58.2713 56.0593 57.3039 56.05C56.6957 56.0407 56.6957 56.0407 56.0754 56.0309C55.6365 56.0286 55.1977 56.0263 54.7459 56.0235C54.2959 56.017 53.8464 56.01 53.3829 56.003C51.9413 55.9811 50.4997 55.9653 49.0585 55.9509C47.1637 55.9318 45.2688 55.9067 43.3744 55.8783C42.9365 55.8755 42.4987 55.8732 42.0478 55.8709C41.6411 55.8643 41.2343 55.8583 40.8151 55.8518C40.4572 55.8485 40.0994 55.8453 39.7308 55.8416C39.4172 55.8006 39.2083 55.7731 39.017 55.7201C37.8681 55.4013 37.2036 54.191 37.2464 52.9993C37.279 52.0947 37.6955 51.1179 38.4554 50.6251C39.0175 50.2607 39.6066 50.083 40.5024 49.9518C41.2134 49.9462 41.2134 49.9462 41.9384 49.9406C42.7467 49.929 42.7467 49.929 43.5713 49.9169C44.1502 49.9155 44.7295 49.9141 45.3265 49.9122C46.2358 49.9015 47.1451 49.8903 48.0543 49.8792C49.3261 49.8652 50.5974 49.8573 51.8692 49.8499C54.1005 49.835 56.3318 49.8112 58.5626 49.7861C59.7506 49.7735 60.9386 49.7638 62.1266 49.7568C62.6613 49.7521 63.1955 49.747 63.746 49.7424C64.4552 49.7377 64.4552 49.7377 65.1788 49.7331C65.5464 49.7526 65.786 49.7652 65.9619 49.748C66.5836 49.6884 66.7544 48.8191 66.7684 48.1951C66.7884 47.3259 66.2993 46.5394 65.4394 46.4087C64.5901 46.2793 63.6096 46.3473 62.8223 46.3459C62.1131 46.3375 61.4044 46.3282 60.6952 46.3189C59.5752 46.3054 58.4551 46.2951 57.335 46.2951C56.255 46.2933 55.1763 46.2775 54.0972 46.2588C53.7645 46.2621 53.4318 46.2654 53.0893 46.2686C52.2196 46.2477 51.5863 46.1839 51.005 45.9973C49.5606 45.5334 48.3787 44.3012 48.0069 42.8302C47.7751 41.9149 47.8408 40.9759 47.8966 39.7115C47.9999 39.0917 48.1488 38.585 48.3615 38.1345C49.0846 36.6054 50.7347 35.6608 52.4262 35.6496C52.7077 35.6477 53.006 35.6524 53.3345 35.6529Z" fill="#0F73F7"/>
<path d="M114.5 45.863C114.583 45.3702 115.002 45.0045 115.501 44.9905C117.54 44.9337 119.58 44.8914 121.62 44.8616C122.411 44.8476 123.201 44.8286 123.991 44.8044C125.131 44.7704 126.271 44.7546 127.411 44.7425C127.761 44.728 128.111 44.7136 128.471 44.6987C130.942 44.6973 132.195 45.3586 133.967 47.0715C134.783 47.9482 135.535 48.8258 136.231 49.8012C136.491 50.1604 136.751 50.5201 137.019 50.89C137.284 51.2642 137.549 51.6388 137.821 52.0241C138.388 52.81 138.955 53.5951 139.523 54.3801C139.799 54.764 140.076 55.1479 140.361 55.5434C141.857 57.596 143.422 59.5933 144.985 61.5947C147.105 64.3983 146.523 68.2108 146.108 71.5701C145.953 72.4682 145.789 73.3645 145.616 74.2588C145.209 76.539 145.004 78.8457 144.776 81.1496C144.698 81.492 144.622 81.7997 144.54 82.0816C143.878 84.346 141.311 85.3241 138.956 85.1794C138.631 85.1692 138.307 85.1585 137.972 85.1478C137.462 85.1305 136.951 85.1068 136.441 85.0807C135.93 85.0542 135.498 84.6959 135.375 84.1998C134.588 81.4283 133.255 79.4501 131.394 78.5195C129.533 77.5888 128.137 77.1235 125.345 78.0541C123.69 78.6056 122.316 79.8466 121.208 81.4227C119.785 83.446 117.709 85.0342 115.235 85.0342C111.52 85.0342 108.646 81.7168 109.225 78.0476C110.305 71.2011 111.4 64.3579 112.555 57.5234C112.983 54.9832 113.404 52.4419 113.827 49.9012C113.985 48.9561 114.143 48.0105 114.3 47.0654C114.366 46.6685 114.432 46.272 114.5 45.863Z" fill="#0F73F7"/>
<path d="M119.295 49.6689C120.943 49.5739 122.531 49.72 124.181 49.6689C124.878 49.6279 125.098 49.7107 125.81 49.6689C129.461 49.6689 129.019 49.7698 130.386 50.741C131.12 51.5842 131.719 52.4511 132.324 53.3916C132.797 54.016 133.274 54.6373 133.753 55.2566C134.228 55.8941 134.702 56.5331 135.174 57.1724C135.65 57.8137 136.127 58.4549 136.603 59.0957C136.825 59.3967 137.046 59.6983 137.275 60.0087C137.826 60.7295 138.429 61.4112 139.039 62.0841C139.77 63.1636 139.77 63.1637 139.583 64.3945C139.445 64.9371 139.445 64.937 139.304 65.4903C136.512 65.4903 133.374 65.5303 130.409 65.5415C129.4 65.5462 128.39 65.5527 127.381 65.5606C125.932 65.5718 124.484 65.5774 123.036 65.5811C122.582 65.5862 122.129 65.5908 121.662 65.596C121.243 65.596 120.824 65.596 120.392 65.596C119.837 65.5992 119.837 65.5992 119.271 65.6025C118.364 65.4903 118.015 65.723 117.433 64.5597C116.037 61.7676 116.735 52.4609 119.295 49.6689Z" fill="#F6F7F7"/>
<path d="M39.2275 69.9351H27.594C25.9235 69.9351 24.5693 71.2893 24.5693 72.9598C24.5693 74.6302 25.9235 75.9844 27.594 75.9844H39.2275C40.898 75.9844 42.2522 74.6302 42.2522 72.9598C42.2522 71.2893 40.898 69.9351 39.2275 69.9351Z" fill="#0F73F7"/>
<path d="M28.5873 50.1638H16.9539C15.2834 50.1638 13.9292 51.518 13.9292 53.1885C13.9292 54.859 15.2834 56.2132 16.9539 56.2132H28.5873C30.2578 56.2132 31.612 54.859 31.612 53.1885C31.612 51.518 30.2578 50.1638 28.5873 50.1638Z" fill="#0F73F7"/>
<path d="M21.3412 60.4133H9.7078C8.03731 60.4133 6.68311 61.7675 6.68311 63.438C6.68311 65.1085 8.03731 66.4627 9.7078 66.4627H21.3412C23.0117 66.4627 24.3659 65.1085 24.3659 63.438C24.3659 61.7675 23.0117 60.4133 21.3412 60.4133Z" fill="#0F73F7"/>
<path d="M41.1293 39.8979H29.4959C27.8254 39.8979 26.4712 41.2522 26.4712 42.9226C26.4712 44.5931 27.8254 45.9473 29.4959 45.9473H41.1293C42.7998 45.9473 44.154 44.5931 44.154 42.9226C44.154 41.2522 42.7998 39.8979 41.1293 39.8979Z" fill="#0F73F7"/>
<path d="M75.846 91.0807C78.5445 91.0807 80.7321 88.8931 80.7321 86.1946C80.7321 83.4962 78.5445 81.3086 75.846 81.3086C73.1475 81.3086 70.96 83.4962 70.96 86.1946C70.96 88.8931 73.1475 91.0807 75.846 91.0807Z" fill="#0F73F7"/>
<path d="M127.904 90.153C130.602 90.153 132.79 87.9654 132.79 85.2669C132.79 82.5684 130.602 80.3809 127.904 80.3809C125.205 80.3809 123.018 82.5684 123.018 85.2669C123.018 87.9654 125.205 90.153 127.904 90.153Z" fill="#0F73F7"/>
<path d="M8.07928 60.8369C9.06812 61.0114 9.06812 61.0114 9.94063 61.3023C9.63351 62.0701 9.32639 62.8379 9.00996 63.6289C8.54927 63.4754 8.08859 63.3218 7.61394 63.1636C7.46038 63.4707 7.30682 63.7778 7.14861 64.0943C7.09044 62.9891 7.09044 62.9891 7.14861 61.7676C7.45573 61.4605 7.76285 61.1533 8.07928 60.8369Z" fill="#0F73F7"/>
</svg>
