<svg width="19" height="46" viewBox="0 0 19 46" fill="none" xmlns="http://www.w3.org/2000/svg">
<path d="M13.846 37.076V36.846L13.432 36.478L12.696 32.522L10.718 33.12C10.718 33.12 10.948 35.052 10.994 35.558C11.04 36.064 11.224 37.536 11.5 37.95C11.638 38.272 12.052 38.502 12.604 38.502C13.156 38.502 13.57 38.18 13.708 37.95C13.892 37.674 13.892 37.398 13.892 37.122L13.846 37.076Z" fill="url(#paint0_linear_1253_7145)"/>
<path d="M13.432 37.996C13.432 38.272 13.064 38.502 12.558 38.502C12.052 38.502 11.684 38.272 11.684 37.996C11.684 37.72 12.052 37.49 12.558 37.49C13.064 37.49 13.432 37.72 13.432 37.996Z" fill="url(#paint1_linear_1253_7145)"/>
<path d="M13.1559 38.134C13.1559 38.318 12.8799 38.502 12.5119 38.502C12.1439 38.502 11.8679 38.364 11.8679 38.134C11.8679 37.904 12.1439 37.766 12.5119 37.766C12.8799 37.766 13.1559 37.904 13.1559 38.134Z" fill="url(#paint2_radial_1253_7145)"/>
<path d="M12.88 38.134C12.88 38.226 12.742 38.318 12.558 38.318C12.374 38.318 12.236 38.226 12.236 38.134C12.236 38.042 12.374 37.95 12.558 37.95C12.742 37.95 12.88 38.042 12.88 38.134Z" fill="#231F20"/>
<path style="mix-blend-mode:multiply" opacity="0.5" d="M12.788 37.076C13.202 37.03 13.57 37.076 13.846 37.214C13.846 37.214 13.846 37.168 13.846 37.122V36.892L13.432 36.524L12.696 32.568L10.718 33.166C10.718 33.166 10.948 35.098 10.994 35.604C10.994 36.064 11.178 37.352 11.408 37.858C11.546 37.49 12.098 37.122 12.788 37.076Z" fill="url(#paint3_linear_1253_7145)"/>
<path style="mix-blend-mode:multiply" opacity="0.5" d="M12.1439 35.972C12.3739 36.478 12.6039 36.984 12.6959 36.892L13.6619 36.57V36.34L13.2479 35.972L12.5119 32.016L10.5339 32.614C10.5339 32.614 10.7639 34.546 10.8099 35.052C10.8099 35.512 10.9939 36.8 11.2239 37.306C11.4079 37.858 11.8679 35.374 12.1439 35.972Z" fill="url(#paint4_linear_1253_7145)"/>
<path d="M13.892 36.708C13.892 36.708 13.432 36.294 12.696 36.524V36.892C13.57 36.662 13.892 37.122 13.892 37.122C14.122 36.892 13.892 36.754 13.892 36.754V36.708Z" fill="url(#paint5_radial_1253_7145)"/>
<path d="M13.8919 36.708C13.8919 36.708 13.7999 32.844 13.6159 31.602C13.4319 30.36 13.2479 28.474 13.1099 27.002C12.9719 25.53 12.8799 25.392 12.2359 25.392C11.5919 25.392 11.3619 25.76 11.3619 25.76L12.2819 33.258L12.6959 36.478C13.4319 36.248 13.8919 36.662 13.8919 36.662V36.708Z" fill="url(#paint6_linear_1253_7145)"/>
<path style="mix-blend-mode:multiply" opacity="0.3" d="M13.2019 34.638C13.1099 33.902 12.7419 28.52 12.5119 26.634C12.4199 26.082 12.5579 25.76 12.7879 25.622C12.6499 25.438 12.5119 25.438 12.2359 25.438C11.5919 25.438 11.3619 25.806 11.3619 25.806L12.2819 33.304L12.6959 36.524C13.4319 36.294 13.8919 36.708 13.8919 36.708C13.8919 36.708 13.8919 36.662 13.8919 36.524C13.2939 36.524 13.2939 35.236 13.2019 34.592V34.638Z" fill="url(#paint7_linear_1253_7145)"/>
<path d="M15.1798 10.12V9.98195C15.1798 9.93595 15.1798 9.79795 14.9038 9.70595C14.5818 9.61395 14.3058 9.52195 14.2138 9.47595C14.1218 9.47595 13.3858 9.47595 13.3858 9.47595H12.7878V10.074H15.2258L15.1798 10.12Z" fill="url(#paint8_linear_1253_7145)"/>
<path d="M15.1799 10.12V10.488C15.1799 10.58 15.1339 10.626 15.0419 10.626H12.8799C12.7879 10.626 12.7419 10.58 12.7419 10.488V10.12H15.1799Z" fill="url(#paint9_linear_1253_7145)"/>
<path d="M15.226 10.166C15.226 10.166 15.226 10.212 15.18 10.212H13.478C13.478 10.212 13.432 10.212 13.432 10.166C13.432 10.166 13.432 10.12 13.478 10.12H15.18C15.18 10.12 15.226 10.12 15.226 10.166Z" fill="#231F20"/>
<path style="mix-blend-mode:multiply" d="M13.7079 9.75203C13.7079 9.66003 13.7079 9.61403 13.7079 9.52203C13.4779 9.52203 13.2939 9.52203 13.2939 9.52203H12.6959V10.12H15.1339V9.98203C15.1339 9.98203 15.1339 9.98203 15.1339 9.93603C14.7199 10.074 13.7079 10.028 13.7079 9.70603V9.75203Z" fill="url(#paint10_linear_1253_7145)"/>
<path d="M3.40391 10.12V9.98201C3.40391 9.93601 3.40391 9.79801 3.67991 9.70601C4.00191 9.61401 4.27791 9.52201 4.36991 9.47601C4.46191 9.43001 5.19791 9.47601 5.19791 9.47601H5.79591V10.074H3.35791L3.40391 10.12Z" fill="url(#paint11_linear_1253_7145)"/>
<path d="M3.40393 10.12V10.488C3.40393 10.58 3.44993 10.626 3.54193 10.626H5.70393C5.79593 10.626 5.84193 10.58 5.84193 10.488V10.12H3.40393Z" fill="url(#paint12_linear_1253_7145)"/>
<path d="M3.35791 10.166C3.35791 10.166 3.35791 10.212 3.40391 10.212H5.10591C5.10591 10.212 5.15191 10.212 5.15191 10.166C5.15191 10.166 5.15191 10.12 5.10591 10.12H3.40391C3.40391 10.12 3.35791 10.12 3.35791 10.166Z" fill="#231F20"/>
<path style="mix-blend-mode:multiply" d="M4.87595 9.75203C4.87595 9.66003 4.87595 9.61403 4.87595 9.52203C5.10595 9.52203 5.28995 9.52203 5.28995 9.52203H5.88795V10.12H3.44995V9.98203C3.44995 9.98203 3.44995 9.98203 3.44995 9.93603C3.86395 10.074 4.87595 10.028 4.87595 9.70603V9.75203Z" fill="url(#paint13_linear_1253_7145)"/>
<path d="M8.04993 44.758C8.04993 45.448 8.55593 46 9.15393 46C9.75193 46 10.2579 45.448 10.2579 44.758C10.2579 44.068 10.2579 39.56 10.2579 39.56H8.04993C8.04993 39.56 8.04993 44.712 8.04993 44.758Z" fill="#231F20"/>
<path d="M8.27991 45.034C8.27991 45.586 8.64791 46 9.15391 46C9.65991 46 10.0279 45.586 10.0279 45.034C10.0279 44.482 10.0279 41.032 10.0279 41.032H8.27991C8.27991 41.032 8.27991 44.988 8.27991 45.034Z" fill="url(#paint14_linear_1253_7145)"/>
<g opacity="0.5">
<path d="M9.06201 45.816C9.06201 45.816 9.06201 45.816 9.06201 45.77C9.06201 45.77 9.06201 45.77 9.06201 45.724V45.632C9.15401 45.632 9.15401 45.54 9.20001 45.54C9.20001 45.54 9.24601 45.448 9.29201 45.448C9.33801 45.402 9.38401 45.31 9.47601 45.264C9.52201 45.218 9.61401 45.172 9.66001 45.126C9.66001 45.126 9.66001 45.218 9.61401 45.264C9.61401 45.264 9.61401 45.356 9.56801 45.356C9.52201 45.448 9.47601 45.494 9.43001 45.54C9.38401 45.586 9.33801 45.678 9.24601 45.724C9.24601 45.724 9.15401 45.77 9.15401 45.816C9.15401 45.816 9.15401 45.816 9.10801 45.816C9.10801 45.816 9.10801 45.816 9.06201 45.816Z" fill="#434345"/>
<path d="M8.83197 45.632C8.83197 45.632 8.83197 45.632 8.83197 45.586C8.83197 45.586 8.83197 45.586 8.83197 45.54C8.83197 45.54 8.83197 45.54 8.83197 45.494C8.83197 45.494 8.83197 45.494 8.83197 45.448C8.83197 45.448 8.83197 45.448 8.83197 45.402C8.83197 45.31 8.83197 45.264 8.87797 45.218V45.172C8.87797 45.08 8.92397 45.08 8.96997 45.034C8.96997 45.034 9.01597 44.988 9.06197 44.942C9.06197 44.942 9.10797 44.896 9.15397 44.85C9.15397 44.85 9.15397 44.85 9.15397 44.896C9.15397 44.896 9.15397 44.896 9.15397 44.942C9.15397 44.942 9.15397 44.942 9.15397 44.988C9.15397 44.988 9.15397 45.08 9.10797 45.08C9.10797 45.08 9.06197 45.126 9.01597 45.172C9.01597 45.218 9.01597 45.264 9.01597 45.264C9.01597 45.356 8.92397 45.402 8.87797 45.494C8.87797 45.494 8.83197 45.54 8.78597 45.586C8.78597 45.586 8.78597 45.586 8.73997 45.586C8.73997 45.586 8.73997 45.586 8.69397 45.586L8.83197 45.632Z" fill="#434345"/>
<path d="M8.92391 45.218C8.92391 45.218 8.87791 45.218 8.78591 45.126C8.78591 45.126 8.69391 45.034 8.69391 44.988C8.69391 44.942 8.64791 44.896 8.60191 44.85C8.60191 44.85 8.60191 44.804 8.60191 44.758C8.60191 44.712 8.55591 44.666 8.55591 44.62C8.55591 44.62 8.55591 44.62 8.55591 44.574C8.55591 44.574 8.55591 44.574 8.55591 44.528C8.55591 44.528 8.55591 44.574 8.64791 44.62C8.64791 44.62 8.69391 44.712 8.73991 44.758C8.73991 44.758 8.73991 44.804 8.78591 44.85C8.78591 44.896 8.83191 44.942 8.87791 44.988C8.87791 45.034 8.92391 45.08 8.92391 45.126C8.92391 45.218 8.96991 45.264 8.96991 45.264L8.92391 45.218Z" fill="#434345"/>
<path d="M9.15403 44.804C9.15403 44.804 9.10803 44.758 9.06203 44.712C9.06203 44.712 8.97003 44.62 8.97003 44.574C8.97003 44.528 8.87803 44.482 8.87803 44.39C8.87803 44.39 8.87803 44.344 8.83203 44.298C8.83203 44.298 8.83203 44.252 8.83203 44.206C8.83203 44.206 8.83203 44.16 8.83203 44.114C8.83203 44.114 8.83203 44.068 8.83203 44.022C8.83203 44.022 8.83203 44.022 8.83203 43.976C8.83203 43.976 8.83203 43.976 8.83203 43.93C8.83203 43.93 8.83203 43.93 8.87803 43.93C8.87803 43.93 8.87803 43.93 8.92403 43.976C8.92403 43.976 8.92403 43.976 8.97003 44.022C8.97003 44.022 8.97003 44.068 9.01603 44.114C9.01603 44.114 9.01603 44.16 9.06203 44.206C9.06203 44.206 9.06203 44.252 9.10803 44.298C9.10803 44.344 9.20003 44.436 9.20003 44.482C9.20003 44.528 9.24603 44.574 9.29203 44.666C9.29203 44.712 9.29203 44.758 9.29203 44.804V44.85L9.15403 44.804Z" fill="#434345"/>
<path d="M9.10791 44.344C9.10791 44.344 9.10791 44.298 9.19991 44.206C9.19991 44.206 9.24591 44.114 9.29191 44.068C9.29191 44.022 9.38391 43.976 9.42991 43.93C9.42991 43.93 9.42991 43.884 9.47591 43.838C9.47591 43.838 9.47591 43.838 9.52191 43.792C9.52191 43.792 9.52191 43.792 9.56791 43.746C9.56791 43.746 9.56791 43.746 9.61391 43.7C9.70591 43.654 9.75191 43.608 9.75191 43.608C9.75191 43.608 9.75191 43.654 9.70591 43.746C9.70591 43.746 9.70591 43.792 9.70591 43.838C9.70591 43.838 9.70591 43.884 9.65991 43.93C9.65991 43.976 9.56791 44.022 9.52191 44.068C9.52191 44.114 9.42991 44.16 9.38391 44.206C9.38391 44.206 9.29191 44.298 9.24591 44.298C9.15391 44.344 9.10791 44.39 9.10791 44.39V44.344Z" fill="#434345"/>
<path d="M8.96997 43.976C8.96997 43.93 9.01597 43.838 9.06197 43.792C9.06197 43.746 9.10797 43.7 9.15397 43.608C9.15397 43.562 9.24597 43.516 9.24597 43.424C9.24597 43.378 9.33797 43.332 9.38397 43.286V43.24C9.38397 43.24 9.38397 43.194 9.47597 43.148C9.47597 43.148 9.52197 43.102 9.56797 43.056C9.56797 43.056 9.56797 43.056 9.56797 43.102C9.56797 43.102 9.56797 43.148 9.56797 43.194C9.56797 43.194 9.56797 43.24 9.52197 43.286C9.52197 43.286 9.52197 43.286 9.52197 43.332C9.52197 43.378 9.42997 43.47 9.42997 43.516C9.42997 43.562 9.33797 43.608 9.29197 43.654C9.24597 43.7 9.19997 43.746 9.15397 43.792C9.10797 43.792 9.06197 43.884 8.96997 43.93V43.976Z" fill="#434345"/>
<path d="M9.01599 43.562C9.01599 43.562 8.92399 43.516 8.92399 43.47C8.92399 43.47 8.92399 43.47 8.87799 43.424C8.87799 43.424 8.87799 43.424 8.87799 43.378C8.87799 43.378 8.83199 43.332 8.78599 43.286C8.78599 43.286 8.73999 43.194 8.69399 43.194C8.69399 43.194 8.69399 43.102 8.64799 43.102V43.01C8.55599 42.918 8.50999 42.872 8.46399 42.78C8.50999 42.826 8.60199 42.918 8.64799 42.964C8.64799 42.964 8.64799 42.964 8.64799 43.01C8.64799 43.102 8.64799 43.148 8.69399 43.194C8.69399 43.194 8.69399 43.286 8.73999 43.286C8.73999 43.286 8.73999 43.378 8.78599 43.424C8.78599 43.424 8.78599 43.424 8.78599 43.47C8.78599 43.47 8.78599 43.47 8.78599 43.516C8.78599 43.516 8.78599 43.608 8.78599 43.654L9.01599 43.562Z" fill="#434345"/>
<path d="M9.24599 43.194C9.19999 43.194 9.15399 43.102 9.10799 43.056C9.10799 43.056 9.10799 43.01 9.06199 42.964C9.06199 42.964 9.06199 42.918 9.01599 42.872C8.92399 42.78 8.87799 42.642 8.83199 42.55C8.83199 42.55 8.83199 42.55 8.78599 42.458C8.78599 42.458 8.78599 42.412 8.73999 42.366C8.73999 42.366 8.73999 42.366 8.73999 42.32C8.73999 42.32 8.73999 42.32 8.78599 42.366C8.78599 42.366 8.78599 42.412 8.83199 42.458C8.92399 42.596 8.96999 42.688 9.01599 42.826C9.01599 42.872 9.06199 42.918 9.10799 43.01C9.10799 43.056 9.15399 43.148 9.19999 43.194H9.24599Z" fill="#434345"/>
<path d="M9.19995 42.734C9.19995 42.734 9.19995 42.642 9.24595 42.596C9.24595 42.596 9.29195 42.504 9.33795 42.504C9.38395 42.412 9.47595 42.366 9.52195 42.32C9.56795 42.274 9.65995 42.228 9.75195 42.136C9.84395 42.09 9.88995 42.044 9.98195 41.998C9.98195 42.09 9.88995 42.136 9.84395 42.228C9.79795 42.274 9.70595 42.366 9.65995 42.412C9.61395 42.458 9.52195 42.504 9.42995 42.55C9.33795 42.596 9.29195 42.642 9.19995 42.688V42.734Z" fill="#434345"/>
<path d="M9.01599 42.504C9.01599 42.458 9.01599 42.412 9.06199 42.366C9.10799 42.32 9.10799 42.274 9.15399 42.228C9.15399 42.228 9.19999 42.136 9.24599 42.09C9.24599 42.09 9.29199 41.998 9.33799 41.998C9.33799 41.998 9.38399 41.906 9.42999 41.906C9.42999 41.906 9.42999 41.906 9.47599 41.86H9.52199C9.56799 41.722 9.65999 41.676 9.75199 41.584C9.75199 41.676 9.65999 41.768 9.61399 41.86C9.61399 41.952 9.61399 41.952 9.61399 41.998C9.61399 41.998 9.56799 42.09 9.52199 42.136C9.52199 42.136 9.47599 42.228 9.42999 42.228C9.42999 42.228 9.33799 42.274 9.33799 42.32C9.33799 42.32 9.33799 42.32 9.29199 42.366C9.24599 42.412 9.29199 42.366 9.24599 42.412C9.24599 42.412 9.15399 42.458 9.10799 42.504H9.01599Z" fill="#434345"/>
</g>
<path d="M5.75 33.58C5.75 33.58 6.026 35.144 6.486 35.972C6.946 36.8 7.222 39.054 7.544 40.296C7.912 41.538 8.004 42.78 9.062 42.734C10.12 42.734 10.212 41.492 10.58 40.296C10.948 39.054 11.224 36.8 11.638 35.972C12.098 35.144 12.374 33.58 12.374 33.58H5.75Z" fill="url(#paint15_linear_1253_7145)"/>
<path opacity="0.5" d="M7.35986 36.708C7.58986 37.444 7.77386 38.64 7.95786 39.376C8.23386 40.25 8.27986 41.17 9.06186 41.17C9.84386 41.17 9.88986 40.296 10.1659 39.376C10.3499 38.732 10.5339 37.674 10.7179 36.892C9.61386 36.8 8.50986 36.754 7.35986 36.708Z" fill="#231F20"/>
<path opacity="0.5" d="M6.85398 35.604C7.12998 36.248 7.35998 37.26 7.63598 37.858C7.95798 38.594 8.04998 39.376 9.06198 39.376C10.074 39.376 10.166 38.64 10.488 37.858C10.718 37.306 10.948 36.386 11.178 35.742C9.70598 35.696 8.27998 35.604 6.80798 35.558L6.85398 35.604Z" fill="#231F20"/>
<path opacity="0.5" d="M9.65999 41.308C9.52199 41.446 9.29199 41.538 9.10799 41.538C8.92399 41.538 8.69399 41.446 8.55599 41.308C8.41799 41.17 8.18799 41.032 8.18799 41.308C8.18799 41.584 8.37199 42.32 9.10799 42.32C9.84399 42.32 10.028 41.584 10.028 41.308C10.028 41.032 9.84399 41.124 9.65999 41.308Z" fill="#231F20"/>
<path opacity="0.2" d="M7.72798 38.824C7.26798 36.616 6.85398 34.27 6.71598 33.58H5.70398C5.70398 33.58 5.97998 35.144 6.43998 35.972C6.89998 36.8 7.17598 39.054 7.49798 40.296C7.58998 40.664 7.68198 41.078 7.77398 41.446C7.86598 40.802 7.91198 39.928 7.68198 38.824H7.72798Z" fill="#231F20"/>
<path opacity="0.2" d="M10.396 38.824C10.166 39.928 10.212 40.802 10.304 41.446C10.396 41.078 10.488 40.71 10.58 40.296C10.948 39.054 11.224 36.8 11.638 35.972C12.098 35.144 12.374 33.58 12.374 33.58H11.362C11.224 34.224 10.81 36.616 10.35 38.824H10.396Z" fill="#231F20"/>
<path d="M5.61192 22.08V23.782C5.65792 23.782 5.70392 23.828 5.74992 23.828C5.74992 23.828 5.79592 23.828 5.79592 23.736V22.034C5.74992 22.034 5.56592 22.034 5.56592 22.034L5.61192 22.08Z" fill="url(#paint16_linear_1253_7145)"/>
<path d="M5.93394 23.736H5.61194V24.518H5.93394V23.736Z" fill="url(#paint17_linear_1253_7145)"/>
<path d="M3.63401 24.518C3.45001 24.518 3.31201 24.656 3.31201 24.886V25.116C3.31201 25.3 3.45001 25.484 3.63401 25.484H5.65801V24.564H3.63401V24.518Z" fill="url(#paint18_linear_1253_7145)"/>
<path d="M6.62386 24.518H5.97986V25.438H6.62386C6.80786 25.438 6.94586 25.3 6.94586 25.07V24.84C6.94586 24.656 6.80786 24.472 6.62386 24.472V24.518Z" fill="url(#paint19_linear_1253_7145)"/>
<path d="M5.93394 24.518H5.61194V25.438H5.93394V24.518Z" fill="#231F20"/>
<path d="M14.5361 24.518C14.7201 24.518 14.8581 24.656 14.8581 24.886V25.116C14.8581 25.3 14.7201 25.484 14.5361 25.484H12.5121V24.564H14.5361V24.518Z" fill="url(#paint20_linear_1253_7145)"/>
<path d="M11.546 24.518H12.19V25.438H11.546C11.362 25.438 11.224 25.3 11.224 25.07V24.84C11.224 24.656 11.362 24.472 11.546 24.472V24.518Z" fill="url(#paint21_linear_1253_7145)"/>
<path d="M12.4659 24.518H12.1439V25.438H12.4659V24.518Z" fill="#231F20"/>
<path d="M5.796 22.126C5.796 22.126 5.79599 22.218 5.70399 22.218H4.462C4.462 22.218 4.37 22.218 4.37 22.126V21.804C4.37 21.804 4.37 21.712 4.462 21.712H5.70399C5.70399 21.712 5.796 21.712 5.796 21.804V22.126Z" fill="url(#paint22_linear_1253_7145)"/>
<path d="M12.098 27.14C11.914 26.312 12.374 18.998 12.374 18.998L9.38403 18.584V27.416H12.144C12.144 27.324 12.098 27.232 12.052 27.14H12.098Z" fill="url(#paint23_linear_1253_7145)"/>
<path d="M5.74998 18.998C5.74998 18.998 6.20998 26.312 6.02598 27.14C6.02598 27.232 6.02598 27.324 5.93398 27.416H8.69398V18.584L5.70398 18.998H5.74998Z" fill="url(#paint24_linear_1253_7145)"/>
<path d="M12.1899 27.416H9.42993V38.456C10.0279 38.364 10.4879 37.858 10.4879 37.858C13.3859 32.798 13.3399 31.372 13.3399 30.682C13.3399 29.992 12.5119 28.382 12.1899 27.416Z" fill="url(#paint25_linear_1253_7145)"/>
<path d="M4.82996 30.682C4.82996 31.326 4.82996 32.752 7.68196 37.858C7.68196 37.858 8.14196 38.41 8.73996 38.456V27.416H5.97996C5.65796 28.336 4.82996 30.084 4.82996 30.682Z" fill="url(#paint26_linear_1253_7145)"/>
<path d="M12.2359 14.536C11.5459 12.972 9.15395 13.386 9.15395 13.386H8.87795C8.87795 13.386 6.62395 12.972 5.97995 14.536C5.97995 14.536 5.10595 16.974 5.19795 18.216C5.28995 19.32 6.66995 23.092 7.31395 23.92C7.54395 24.196 7.81995 24.472 8.14195 24.656C8.41795 24.886 8.73995 24.932 9.01595 24.932C9.15395 24.932 9.33795 24.932 9.47595 24.84C9.98195 24.702 10.4879 24.288 10.8099 23.92C11.4999 23.092 12.9719 19.32 13.0639 18.216C13.1559 16.974 12.2359 14.536 12.2359 14.536Z" fill="url(#paint27_linear_1253_7145)"/>
<path d="M6.76194 12.006C6.76194 12.006 6.94594 15.088 6.99194 15.87C6.99194 16.514 7.08394 16.928 7.49794 16.744L8.46394 12.19L6.71594 12.006H6.76194Z" fill="url(#paint28_linear_1253_7145)"/>
<path d="M9.10795 12.236H8.50995C8.50995 12.19 7.54395 16.744 7.54395 16.744C7.63595 16.744 7.72795 16.652 7.86595 16.56C8.41795 16.146 8.78595 15.824 9.10795 15.824C9.47595 15.824 9.84395 16.146 10.3499 16.56C11.0859 17.112 11.1779 16.652 11.1779 15.916C11.1779 15.134 11.4079 12.052 11.4079 12.052L9.06195 12.282L9.10795 12.236Z" fill="url(#paint29_linear_1253_7145)"/>
<path d="M11.4079 12.006C11.4079 12.006 11.2239 15.088 11.1779 15.87C11.1779 16.514 11.0859 16.928 10.6719 16.744L9.70593 12.19L11.4539 12.006H11.4079Z" fill="url(#paint30_linear_1253_7145)"/>
<g style="mix-blend-mode:multiply" opacity="0.5">
<path d="M6.20998 15.778C6.85398 14.904 7.91198 14.306 8.41798 14.858C8.92398 15.41 9.61398 15.272 9.93598 14.858C10.396 14.214 11.592 14.904 12.19 16.1C12.328 16.376 12.604 16.652 12.88 16.882C12.65 15.732 12.19 14.49 12.19 14.49C11.5 12.926 9.10798 13.34 9.10798 13.34H8.83198C8.83198 13.34 6.57798 12.926 5.93398 14.49C5.93398 14.49 5.65798 15.318 5.42798 16.238C5.74998 16.146 6.02598 15.962 6.20998 15.732V15.778Z" fill="#F7901E"/>
</g>
<g style="mix-blend-mode:multiply">
<path d="M6.20998 15.364C6.85398 14.49 7.91198 13.892 8.41798 14.444C8.92398 14.996 9.61398 14.858 9.93598 14.444C10.396 13.8 11.592 14.4899 12.19 15.6859C12.328 15.9619 12.604 16.2379 12.88 16.4679C12.65 15.3179 12.19 14.0759 12.19 14.0759C11.5 12.5119 9.10798 12.9259 9.10798 12.9259H8.83198C8.83198 12.9259 6.57798 12.5119 5.93398 14.0759C5.93398 14.0759 5.65798 14.904 5.42798 15.824C5.74998 15.732 6.02598 15.5479 6.20998 15.3179V15.364Z" fill="#F7901E"/>
</g>
<g style="mix-blend-mode:multiply" opacity="0.5">
<path d="M12.2359 14.536C12.0059 13.984 11.4999 13.662 10.9939 13.478C11.1779 14.168 11.0859 14.582 11.4999 14.996C13.1099 16.652 11.8219 23.874 9.01589 23.874C6.20989 23.874 4.82989 17.664 5.93389 16.1C6.34789 15.502 5.79589 15.64 5.65789 15.318C5.42789 16.146 5.10589 17.388 5.15189 18.17C5.24389 19.274 6.62389 23.046 7.26789 23.874C7.49789 24.15 7.77389 24.426 8.09589 24.61C8.37189 24.84 8.69389 24.886 8.96989 24.886C9.10789 24.886 9.29189 24.886 9.42989 24.794C9.93589 24.656 10.4419 24.242 10.7639 23.874C11.4539 23.046 12.9259 19.274 13.0179 18.17C13.1099 16.928 12.1899 14.49 12.1899 14.49L12.2359 14.536Z" fill="#A30D11"/>
</g>
<g style="mix-blend-mode:multiply" opacity="0.5">
<path d="M10.3039 18.4C10.3039 19.09 9.70591 19.688 9.01591 19.688C8.32591 19.688 7.72791 19.09 7.72791 18.4C7.72791 17.71 8.32591 17.112 9.01591 17.112C9.70591 17.112 10.3039 17.71 10.3039 18.4Z" fill="#F7901E"/>
</g>
<g style="mix-blend-mode:multiply">
<path d="M10.166 18.4C10.166 19.044 9.65997 19.55 9.01597 19.55C8.37197 19.55 7.86597 19.044 7.86597 18.4C7.86597 17.756 8.37197 17.25 9.01597 17.25C9.65997 17.25 10.166 17.756 10.166 18.4Z" fill="#F7901E"/>
</g>
<path d="M10.1199 18.4C10.1199 18.998 9.61387 19.504 9.01587 19.504C8.41787 19.504 7.91187 18.998 7.91187 18.4C7.91187 17.802 8.41787 17.296 9.01587 17.296C9.61387 17.296 10.1199 17.802 10.1199 18.4Z" fill="url(#paint31_linear_1253_7145)"/>
<path d="M9.84391 18.4C9.84391 18.86 9.47591 19.182 9.06191 19.182C8.64791 19.182 8.27991 18.814 8.27991 18.4C8.27991 17.986 8.64791 17.618 9.06191 17.618C9.47591 17.618 9.84391 17.986 9.84391 18.4Z" fill="url(#paint32_radial_1253_7145)"/>
<path d="M9.65995 18.4C9.65995 18.032 9.38395 17.756 9.01595 17.756C8.64795 17.756 8.37195 18.032 8.37195 18.4H9.65995Z" fill="black"/>
<path d="M9.01593 19.09C8.64793 19.09 8.32593 18.814 8.32593 18.446H9.61393C9.61393 18.814 9.29193 19.09 8.92393 19.09H9.01593ZM8.41793 18.446C8.41793 18.768 8.69393 18.998 9.01593 18.998C9.33793 18.998 9.61393 18.768 9.61393 18.446H8.41793Z" fill="#141414"/>
<path opacity="0.2" d="M8.60193 18.492C8.60193 18.722 8.78593 18.906 9.01593 18.906C9.24593 18.906 9.42993 18.722 9.42993 18.492H8.60193Z" fill="white"/>
<path d="M9.47591 18.4C9.47591 18.17 9.29191 17.94 9.01591 17.94C8.73991 17.94 8.55591 18.124 8.55591 18.4H9.42991H9.47591Z" fill="#141414"/>
<g style="mix-blend-mode:multiply">
<path d="M12.2359 14.536C12.2359 14.444 12.1439 14.352 12.0979 14.306C12.2359 15.318 12.4659 16.33 12.6039 16.744C12.9719 17.71 12.6039 20.746 11.2239 23.046C9.8899 25.392 8.0499 24.978 7.0379 23.138C6.6239 22.356 6.1639 21.436 5.7959 20.562C6.2559 21.942 6.9459 23.506 7.3139 24.012C7.5439 24.288 7.8199 24.564 8.1419 24.748C8.4179 24.978 8.7399 25.024 9.0159 25.024C9.1539 25.024 9.3379 25.024 9.4759 24.932C9.9819 24.794 10.4879 24.38 10.8099 24.012C11.4999 23.184 12.9719 19.412 13.0639 18.308C13.1559 17.066 12.2359 14.628 12.2359 14.628V14.536Z" fill="#A30D11"/>
</g>
<path opacity="0.3" d="M9.70588 16.2839C9.33788 16.0539 9.01588 16.0079 8.64788 16.2379C8.32588 16.4219 8.04988 16.6519 7.81988 16.8359C7.72788 16.8819 7.68188 16.9739 7.63588 17.0199C7.58988 17.0659 7.54388 17.1579 7.49788 17.2499C7.45188 17.3419 7.40588 17.4799 7.40588 17.6179C7.40588 17.8479 7.63588 17.7099 7.72788 17.6179C7.81988 17.5719 7.95788 17.4799 8.04988 17.3879C8.37188 17.1119 8.69388 16.9279 9.15388 16.8819C9.47588 16.8819 9.84388 17.0199 10.0739 17.2499C10.2119 17.3879 10.7179 17.8939 10.8099 17.7099C10.9939 17.2959 10.1199 16.4219 9.79788 16.2379L9.70588 16.2839Z" fill="white"/>
<path opacity="0.2" d="M10.948 18.906C10.718 18.952 10.534 19.09 10.396 19.274C10.12 19.504 9.93595 19.872 9.65995 20.056C9.19995 20.332 8.41795 20.332 8.09595 19.872C7.81995 19.55 7.03795 18.4 6.53195 18.538C6.30195 18.584 6.07195 19.044 6.80795 21.114C7.08395 21.942 7.63595 22.724 8.37195 23.184C8.73995 23.414 9.24595 23.46 9.61395 23.184C9.93595 22.954 10.212 22.632 10.442 22.264C10.856 21.62 12.098 18.538 10.948 18.86V18.906Z" fill="white"/>
<path d="M10.2579 1.242C10.2579 0.552 9.75193 0 9.15393 0C8.55593 0 8.04993 0.552 8.04993 1.242C8.04993 1.932 8.04993 6.44 8.04993 6.44H10.2579C10.2579 6.44 10.2579 1.288 10.2579 1.242Z" fill="#171717"/>
<path d="M10.028 0.966C10.028 0.414 9.66 0 9.154 0C8.648 0 8.28 0.414 8.28 0.966C8.28 1.518 8.28 4.416 8.05 5.75C7.866 6.946 10.534 8.234 10.304 5.796C9.982 3.358 10.028 1.012 10.028 0.966Z" fill="url(#paint33_linear_1253_7145)"/>
<g opacity="0.5">
<path d="M9.24595 0.184021C9.24595 0.184021 9.24595 0.184021 9.24595 0.230021C9.24595 0.230021 9.24595 0.230021 9.24595 0.276021V0.368021C9.15395 0.368021 9.15395 0.460021 9.10795 0.460021C9.10795 0.460021 9.06195 0.552021 9.01595 0.552021C8.96995 0.598021 8.92395 0.690021 8.83195 0.736021C8.78595 0.782021 8.69395 0.828021 8.64795 0.874021C8.64795 0.874021 8.64795 0.782021 8.69395 0.736021C8.69395 0.736021 8.69395 0.644021 8.73995 0.644021C8.78595 0.552021 8.83195 0.506021 8.87795 0.460021C8.92395 0.414021 8.96995 0.322021 9.06195 0.276021C9.06195 0.276021 9.15395 0.230021 9.15395 0.184021C9.15395 0.184021 9.15395 0.184021 9.19995 0.184021C9.19995 0.184021 9.19995 0.184021 9.24595 0.184021Z" fill="#434345"/>
<path d="M9.47593 0.368042C9.47593 0.368042 9.47593 0.368042 9.47593 0.414042C9.47593 0.414042 9.47593 0.414042 9.47593 0.460042C9.47593 0.460042 9.47593 0.460042 9.47593 0.506042C9.47593 0.506042 9.47593 0.506042 9.47593 0.552042C9.47593 0.552042 9.47593 0.552042 9.47593 0.598042C9.47593 0.690042 9.47593 0.736042 9.42993 0.782042V0.828042C9.42993 0.920042 9.38393 0.920042 9.33793 0.966042C9.33793 0.966042 9.29193 1.01204 9.24593 1.05804C9.24593 1.05804 9.19993 1.10404 9.15393 1.15004C9.15393 1.15004 9.15393 1.15004 9.15393 1.10404C9.15393 1.10404 9.15393 1.10404 9.15393 1.05804C9.15393 1.05804 9.15393 1.05804 9.15393 1.01204C9.15393 1.01204 9.15393 0.920042 9.19993 0.920042C9.19993 0.920042 9.24593 0.874042 9.29193 0.828042C9.29193 0.782042 9.29193 0.736042 9.29193 0.736042C9.33793 0.644042 9.38393 0.598042 9.42993 0.506042C9.42993 0.506042 9.47593 0.460042 9.52193 0.414042C9.52193 0.414042 9.52193 0.414042 9.56793 0.414042C9.56793 0.414042 9.56793 0.414042 9.61393 0.414042L9.47593 0.368042Z" fill="#434345"/>
<path d="M9.38389 0.782023C9.38389 0.782023 9.42989 0.782023 9.52189 0.874023C9.52189 0.874023 9.61389 0.966023 9.61389 1.01202C9.61389 1.05802 9.70589 1.10402 9.70589 1.15002C9.70589 1.15002 9.70589 1.19602 9.70589 1.24202C9.70589 1.28802 9.75189 1.33402 9.75189 1.38002C9.75189 1.38002 9.75189 1.38002 9.75189 1.42602C9.75189 1.42602 9.75189 1.42602 9.75189 1.47202C9.75189 1.47202 9.75189 1.42602 9.65989 1.38002C9.65989 1.38002 9.61389 1.28802 9.56789 1.24202C9.56789 1.24202 9.56789 1.19602 9.52189 1.15002C9.52189 1.10402 9.47589 1.05802 9.42989 1.01202C9.42989 0.966023 9.38389 0.920023 9.38389 0.874023C9.38389 0.782023 9.33789 0.736023 9.33789 0.736023L9.38389 0.782023Z" fill="#434345"/>
<path d="M9.15399 1.19602C9.15399 1.19602 9.19999 1.24202 9.24599 1.28802C9.24599 1.28802 9.33799 1.38002 9.33799 1.42602C9.33799 1.47202 9.42999 1.51802 9.42999 1.61002C9.42999 1.61002 9.42999 1.65602 9.47599 1.70202C9.47599 1.70202 9.47599 1.74802 9.47599 1.79402C9.47599 1.79402 9.47599 1.84002 9.47599 1.88602C9.47599 1.88602 9.47599 1.93202 9.47599 1.97802C9.47599 1.97802 9.47599 1.97802 9.47599 2.02402C9.47599 2.02402 9.47599 2.02402 9.47599 2.07002C9.47599 2.07002 9.47599 2.07002 9.42999 2.07002C9.42999 2.07002 9.42999 2.07002 9.38399 2.02402C9.38399 2.02402 9.38399 2.02402 9.33799 1.97802C9.33799 1.97802 9.33799 1.93202 9.29199 1.88602C9.29199 1.88602 9.29199 1.84002 9.24599 1.79402C9.24599 1.79402 9.24599 1.74802 9.19999 1.70202C9.19999 1.65602 9.10799 1.56402 9.10799 1.51802C9.10799 1.47202 9.06199 1.42602 9.01599 1.33402C9.01599 1.28802 9.01599 1.24202 9.01599 1.19602V1.15002L9.15399 1.19602Z" fill="#434345"/>
<path d="M9.19991 1.65599C9.19991 1.65599 9.19991 1.70199 9.10791 1.79399C9.10791 1.79399 9.06191 1.88599 9.01591 1.93199C9.01591 1.97799 8.92391 2.02399 8.87791 2.06999C8.87791 2.06999 8.87791 2.11599 8.83191 2.16199C8.83191 2.16199 8.83191 2.16199 8.78591 2.20799C8.78591 2.20799 8.78591 2.20799 8.73991 2.25399C8.73991 2.25399 8.73991 2.25399 8.69391 2.29999C8.64791 2.34599 8.55591 2.39199 8.55591 2.39199C8.55591 2.39199 8.55591 2.34599 8.60191 2.25399C8.60191 2.25399 8.60191 2.20799 8.60191 2.16199C8.60191 2.16199 8.60191 2.11599 8.64791 2.06999C8.64791 2.02399 8.73991 1.97799 8.78591 1.93199C8.78591 1.88599 8.87791 1.83999 8.92391 1.79399C8.92391 1.79399 9.01591 1.70199 9.06191 1.70199C9.15391 1.65599 9.19991 1.60999 9.19991 1.60999V1.65599Z" fill="#434345"/>
<path d="M9.29199 2.02405C9.29199 2.07005 9.24599 2.16205 9.19999 2.20805C9.19999 2.25405 9.15399 2.30005 9.10799 2.39205C9.10799 2.43805 9.01599 2.48405 9.01599 2.57605C9.01599 2.62205 8.92399 2.66805 8.92399 2.71405V2.76005C8.92399 2.76005 8.92399 2.80605 8.83199 2.85205C8.83199 2.85205 8.78599 2.89805 8.73999 2.94405C8.73999 2.94405 8.73999 2.94405 8.73999 2.89805C8.73999 2.89805 8.73999 2.85205 8.73999 2.80605C8.73999 2.80605 8.73999 2.76005 8.73999 2.71405C8.73999 2.71405 8.73999 2.71405 8.73999 2.66805C8.73999 2.62205 8.83199 2.53005 8.83199 2.48405C8.83199 2.43805 8.92399 2.39205 8.96999 2.34605C9.01599 2.30005 9.06199 2.25405 9.10799 2.20805C9.15399 2.20805 9.19999 2.11605 9.29199 2.07005V2.02405Z" fill="#434345"/>
<path d="M9.29187 2.43801C9.29187 2.43801 9.38387 2.48401 9.38387 2.53001C9.38387 2.53001 9.38387 2.53001 9.42987 2.57601C9.42987 2.57601 9.42987 2.57601 9.42987 2.62201C9.42987 2.62201 9.47587 2.66801 9.52187 2.71401C9.52187 2.71401 9.56787 2.80601 9.61387 2.80601C9.61387 2.80601 9.61387 2.89801 9.65987 2.89801V2.99001C9.75187 3.08201 9.79787 3.12801 9.84387 3.22001C9.79787 3.17401 9.70587 3.08201 9.65987 3.03601C9.65987 3.03601 9.65987 3.03601 9.65987 2.99001C9.65987 2.89801 9.65987 2.85201 9.61387 2.80601C9.61387 2.80601 9.61387 2.71401 9.56787 2.71401C9.56787 2.71401 9.56787 2.62201 9.52187 2.57601C9.52187 2.57601 9.52187 2.57601 9.52187 2.53001C9.52187 2.53001 9.52187 2.53001 9.52187 2.48401C9.52187 2.48401 9.52187 2.39201 9.52187 2.34601L9.29187 2.43801Z" fill="#434345"/>
<path d="M9.06201 2.80603C9.10801 2.80603 9.15401 2.89803 9.20001 2.94403C9.20001 2.94403 9.20001 2.99003 9.24601 3.03603C9.24601 3.03603 9.24601 3.08203 9.29201 3.12803C9.38401 3.22003 9.43001 3.35803 9.47601 3.45003C9.47601 3.45003 9.47601 3.45003 9.52201 3.54203C9.52201 3.54203 9.52201 3.58803 9.56801 3.63403C9.56801 3.63403 9.56801 3.63403 9.56801 3.68003C9.56801 3.68003 9.56801 3.68003 9.52201 3.63403C9.52201 3.63403 9.52201 3.58803 9.47601 3.54203C9.38401 3.40403 9.33801 3.31203 9.29201 3.17403C9.29201 3.12803 9.24601 3.08203 9.20001 2.99003C9.20001 2.94403 9.15401 2.85203 9.10801 2.80603H9.06201Z" fill="#434345"/>
<path d="M9.10793 3.26599C9.10793 3.26599 9.10793 3.35799 9.06193 3.40399C9.06193 3.40399 9.01593 3.49599 8.96993 3.49599C8.92393 3.58799 8.83193 3.63399 8.78593 3.67999C8.73993 3.72599 8.64793 3.77199 8.55593 3.86399C8.46393 3.90999 8.41793 3.95599 8.32593 4.00199C8.32593 3.90999 8.41793 3.86399 8.46393 3.77199C8.50993 3.72599 8.60193 3.63399 8.64793 3.58799C8.69393 3.54199 8.78593 3.49599 8.87793 3.44999C8.96993 3.40399 9.01593 3.35799 9.10793 3.31199V3.26599Z" fill="#434345"/>
<path d="M9.29191 3.49603C9.29191 3.54203 9.29191 3.58803 9.24591 3.63403C9.24591 3.63403 9.19991 3.72603 9.15391 3.77203C9.15391 3.77203 9.10791 3.86403 9.06191 3.91003C9.06191 3.91003 9.01591 4.00203 8.96991 4.00203C8.96991 4.00203 8.92391 4.09403 8.87791 4.09403C8.87791 4.09403 8.87791 4.09403 8.83191 4.14003H8.78591C8.73991 4.27803 8.64791 4.32403 8.55591 4.41603C8.55591 4.32403 8.64791 4.23203 8.69391 4.14003C8.69391 4.04803 8.69391 4.04803 8.69391 4.00203C8.69391 4.00203 8.73991 3.91003 8.78591 3.86403C8.78591 3.86403 8.83191 3.77203 8.87791 3.77203C8.87791 3.77203 8.96991 3.72603 8.96991 3.68003C8.96991 3.68003 8.96991 3.68003 9.01591 3.63403C9.01591 3.63403 9.01591 3.63403 9.06191 3.58803C9.06191 3.58803 9.15391 3.54203 9.19991 3.49603H9.29191Z" fill="#434345"/>
</g>
<path d="M7.63595 6.07202H10.8559C10.8099 5.88802 10.4879 5.19802 9.88995 4.60002C9.65995 4.37002 9.42995 4.27802 9.19995 4.27802C8.96995 4.27802 8.73995 4.37002 8.50995 4.60002C7.91195 5.19802 7.63595 5.88802 7.54395 6.07202H7.63595Z" fill="url(#paint34_linear_1253_7145)"/>
<path d="M8.09595 5.88802H10.3499C10.3499 5.70402 10.1199 5.10602 9.70595 4.55402C9.56795 4.32402 9.38395 4.27802 9.24595 4.27802C9.10795 4.27802 8.92395 4.37002 8.78595 4.55402C8.37195 5.10602 8.18795 5.70402 8.14195 5.88802H8.09595Z" fill="url(#paint35_linear_1253_7145)"/>
<path d="M9.52203 4.27802C9.43003 4.27802 9.33803 4.27802 9.24603 4.27802C9.15403 4.27802 9.01603 4.27802 8.92403 4.32402C8.92403 4.73802 8.92403 5.38202 8.83203 6.07202H9.61403C9.47603 5.33602 9.47603 4.69202 9.52203 4.27802Z" fill="#ED1C24"/>
<path d="M13.892 11.96C13.11 9.79799 10.442 9.52199 9.15397 9.42999C7.86597 9.52199 5.19797 9.79799 4.41597 11.96C3.63397 14.122 4.64597 16.836 5.15197 17.71C5.15197 17.71 6.48597 15.318 7.35997 14.214C8.23397 13.11 8.92397 13.248 8.92397 13.248H9.47597C9.47597 13.248 10.212 13.11 11.04 14.214C11.914 15.318 13.248 17.71 13.248 17.71C13.754 16.836 14.766 14.168 13.984 11.96H13.892Z" fill="url(#paint36_linear_1253_7145)"/>
<path d="M12.604 12.65C12.006 10.902 10.028 10.672 9.06203 10.58C8.09603 10.672 6.11803 10.902 5.52003 12.65C5.06003 13.984 5.38203 15.502 5.75003 16.514C6.21003 15.732 6.80803 14.812 7.26803 14.214C8.14203 13.11 8.83203 13.248 8.83203 13.248H9.38403C9.38403 13.248 10.12 13.11 10.948 14.214C11.408 14.812 11.96 15.686 12.42 16.468C12.742 15.502 13.064 13.984 12.604 12.696V12.65Z" fill="#231F20"/>
<path d="M6.76197 12.006C8.87797 11.454 6.07197 12.236 4.59997 11.546C4.55397 11.684 4.46197 11.822 4.41597 11.96C3.63397 14.122 4.64597 16.836 5.15197 17.71C5.15197 17.71 3.81797 12.834 6.76197 12.052V12.006Z" fill="#ED1C24"/>
<path d="M13.708 11.546C12.236 12.236 9.33799 11.454 11.5 12.006C14.306 12.742 13.248 17.158 13.156 17.618C13.662 16.744 14.674 14.076 13.892 11.868C13.846 11.73 13.754 11.592 13.708 11.454V11.546Z" fill="#ED1C24"/>
<path d="M13.34 8.004C12.926 7.13 10.58 5.474 9.33801 5.336C9.29201 5.336 9.24601 5.336 9.15401 5.336C7.91201 5.474 5.56601 7.176 5.15201 8.004C4.73801 8.878 4.96801 11.408 4.96801 11.408L5.29001 11.73C5.29001 11.73 6.30201 12.788 6.53201 13.156C6.94601 13.892 11.592 13.892 12.006 13.156C12.19 12.88 13.248 11.73 13.248 11.73L13.57 11.408C13.57 11.408 13.754 8.924 13.386 8.004H13.34Z" fill="url(#paint37_linear_1253_7145)"/>
<path style="mix-blend-mode:multiply" opacity="0.5" d="M11.9599 7.95802C11.9599 7.45202 11.9599 6.99202 11.9599 6.62402C11.5459 6.30202 11.0859 6.02602 10.6719 5.79602C10.8099 6.16402 10.9939 6.57802 11.1779 6.99202C11.6839 8.09602 12.0059 8.87802 11.9599 7.95802Z" fill="url(#paint38_linear_1253_7145)"/>
<path style="mix-blend-mode:multiply" opacity="0.5" d="M7.40594 6.854C7.63594 6.44 7.81994 6.072 7.95794 5.75C7.49794 5.98 7.03794 6.302 6.62394 6.578C6.57794 6.992 6.48594 7.498 6.39394 7.866C6.16394 8.786 6.80794 7.866 7.40594 6.854Z" fill="url(#paint39_linear_1253_7145)"/>
<path style="mix-blend-mode:multiply" opacity="0.5" d="M6.25601 6.85394C5.75001 7.26794 5.33601 7.72794 5.15201 8.00394C4.73801 8.87794 4.96801 11.4079 4.96801 11.4079L5.29001 11.7299C5.29001 11.7299 5.38201 11.8219 5.52001 11.9599C5.65801 11.0859 6.02601 10.0739 6.21001 9.15394C6.39401 8.27994 6.34801 7.45194 6.21001 6.85394H6.25601Z" fill="url(#paint40_linear_1253_7145)"/>
<path style="mix-blend-mode:multiply" opacity="0.5" d="M13.34 8.004C13.202 7.636 12.696 7.176 12.098 6.716C12.098 7.314 12.098 8.188 12.236 9.108C12.42 10.074 12.742 11.178 12.788 12.144C13.018 11.914 13.202 11.73 13.202 11.73L13.524 11.408C13.524 11.408 13.708 8.924 13.34 8.004Z" fill="url(#paint41_linear_1253_7145)"/>
<path d="M4.92188 10.212C4.92188 10.856 4.96787 11.408 4.96787 11.408L5.28987 11.73C5.28987 11.73 5.33587 11.776 5.42787 11.868H5.84188C6.25588 10.902 5.65788 10.442 4.92188 10.212Z" fill="url(#paint42_linear_1253_7145)"/>
<path d="M13.5699 11.408C13.5699 11.408 13.6159 10.81 13.6159 10.12C12.6959 10.304 11.8219 10.764 12.3279 11.868H13.1099C13.2019 11.776 13.2479 11.73 13.2479 11.73L13.5699 11.408Z" fill="url(#paint43_linear_1253_7145)"/>
<path d="M1.65596 13.018C1.19596 13.018 0.781959 12.88 0.781959 12.88C0.643959 12.88 0.597959 12.696 0.643959 12.558C0.643959 12.42 0.827959 12.374 0.965959 12.42C0.965959 12.42 1.70196 12.65 2.34596 12.42C2.57596 12.328 2.80596 12.236 3.08196 12.098C3.77196 11.776 4.46196 11.5 4.92196 11.454C5.05996 11.454 5.70396 11.316 6.16396 11.5C6.30196 11.546 6.34796 11.684 6.30196 11.822C6.25596 11.96 6.11796 12.006 5.97996 11.96C5.70396 11.822 5.19796 11.914 5.05996 11.96C4.69196 11.96 3.95596 12.328 3.35796 12.558C3.08196 12.696 2.80596 12.788 2.57596 12.88C2.29996 12.972 2.02396 13.018 1.74796 13.018H1.65596Z" fill="url(#paint44_linear_1253_7145)"/>
<path style="mix-blend-mode:multiply" d="M6.16396 11.5C6.16396 11.5 6.16396 11.546 6.16396 11.592C6.11796 11.73 5.97996 11.776 5.84196 11.73C5.56596 11.592 5.05996 11.684 4.92196 11.73C4.55396 11.73 3.81796 12.098 3.21996 12.328C2.94396 12.466 2.66796 12.558 2.43796 12.65C2.16196 12.742 1.88596 12.788 1.60996 12.788C1.14996 12.788 0.735962 12.65 0.735962 12.65C0.735962 12.742 0.781962 12.834 0.919962 12.88C0.919962 12.88 1.33396 13.018 1.79396 13.018C2.25396 13.018 2.34596 13.018 2.62196 12.88C2.85196 12.788 3.12796 12.696 3.40396 12.558C4.00196 12.282 4.73796 11.96 5.10596 11.96C5.24396 11.96 5.74996 11.868 6.02596 11.96C6.16396 12.006 6.30196 11.96 6.34796 11.822C6.39396 11.684 6.34796 11.592 6.25596 11.5H6.16396Z" fill="url(#paint45_linear_1253_7145)"/>
<path d="M5.56602 12.926L5.29002 12.65L4.96802 11.408L6.25602 10.948L6.85402 11.316L6.99202 12.19L5.56602 12.926Z" fill="url(#paint46_linear_1253_7145)"/>
<path d="M16.836 13.018C17.296 13.018 17.71 12.88 17.71 12.88C17.848 12.88 17.894 12.696 17.848 12.558C17.848 12.42 17.664 12.374 17.526 12.42C17.526 12.42 16.79 12.65 16.146 12.42C15.916 12.328 15.686 12.236 15.41 12.098C14.72 11.776 14.03 11.5 13.57 11.454C13.432 11.454 12.788 11.316 12.328 11.5C12.19 11.546 12.144 11.684 12.19 11.822C12.236 11.96 12.374 12.006 12.512 11.96C12.788 11.822 13.294 11.914 13.432 11.96C13.8 11.96 14.536 12.328 15.134 12.558C15.41 12.696 15.686 12.788 15.916 12.88C16.192 12.972 16.468 13.018 16.744 13.018H16.836Z" fill="url(#paint47_linear_1253_7145)"/>
<path style="mix-blend-mode:multiply" d="M17.8479 12.512C17.8479 12.558 17.7559 12.604 17.7099 12.65C17.7099 12.65 17.2959 12.788 16.8359 12.788C16.3759 12.788 16.2839 12.788 16.0079 12.65C15.7779 12.558 15.5019 12.466 15.2259 12.328C14.6279 12.052 13.8919 11.73 13.5239 11.73C13.3859 11.73 12.8799 11.638 12.6039 11.73C12.4659 11.776 12.3279 11.73 12.2819 11.638C12.2819 11.684 12.2819 11.776 12.2819 11.868C12.3279 12.006 12.4659 12.052 12.6039 12.006C12.8799 11.868 13.3859 11.96 13.5239 12.006C13.8919 12.006 14.6279 12.374 15.2259 12.604C15.5019 12.742 15.7779 12.834 16.0079 12.926C16.2839 13.018 16.5599 13.064 16.8359 13.064C17.2959 13.064 17.7099 12.926 17.7099 12.926C17.8479 12.926 17.8939 12.742 17.8479 12.604V12.512Z" fill="url(#paint48_linear_1253_7145)"/>
<path d="M12.9259 12.926L13.2019 12.65L13.5239 11.408L12.2819 10.948L11.6839 11.316L11.5459 12.19L12.9259 12.926Z" fill="url(#paint49_linear_1253_7145)"/>
<path d="M13.432 13.708C13.386 13.708 13.294 13.708 13.248 13.708L11.546 12.926C11.316 12.834 11.224 12.558 11.362 12.374C11.454 12.144 11.73 12.052 11.914 12.19L13.616 12.972C13.846 13.064 13.938 13.34 13.8 13.524C13.708 13.662 13.57 13.754 13.432 13.754V13.708Z" fill="url(#paint50_linear_1253_7145)"/>
<path style="mix-blend-mode:multiply" opacity="0.5" d="M13.386 13.386L11.684 12.604C11.546 12.512 11.454 12.374 11.454 12.236C11.454 12.236 11.408 12.282 11.362 12.328C11.27 12.558 11.362 12.788 11.546 12.88L13.248 13.662C13.294 13.662 13.386 13.662 13.432 13.662C13.57 13.662 13.754 13.57 13.8 13.432C13.8 13.386 13.8 13.34 13.8 13.248C13.708 13.34 13.616 13.386 13.478 13.386C13.34 13.386 13.34 13.386 13.294 13.386H13.386Z" fill="url(#paint51_linear_1253_7145)"/>
<path d="M5.01383 13.708C4.87583 13.708 4.69183 13.616 4.64583 13.478C4.55383 13.248 4.64583 13.018 4.82983 12.926L6.53183 12.144C6.76183 12.052 6.99183 12.144 7.08383 12.328C7.17583 12.558 7.08383 12.788 6.89983 12.88L5.19783 13.662C5.15183 13.662 5.05983 13.662 5.01383 13.662V13.708Z" fill="url(#paint52_linear_1253_7145)"/>
<path style="mix-blend-mode:multiply" opacity="0.5" d="M7.08398 12.328C7.08398 12.282 6.99198 12.19 6.94598 12.19C6.94598 12.374 6.85398 12.558 6.71598 12.604L5.01398 13.386C4.96798 13.386 4.87598 13.386 4.82998 13.386C4.73798 13.386 4.64598 13.386 4.59998 13.294C4.59998 13.294 4.59998 13.386 4.59998 13.432C4.69198 13.57 4.82998 13.662 4.96798 13.662C5.10598 13.662 5.10598 13.662 5.15198 13.662L6.85398 12.88C7.08398 12.788 7.17598 12.512 7.03798 12.328H7.08398Z" fill="url(#paint53_linear_1253_7145)"/>
<path d="M12.0519 12.9259C11.9599 12.6499 11.8679 12.5119 11.4079 12.6039C10.8559 12.6959 10.3039 12.7419 9.75188 12.7419C9.38388 12.7419 9.01588 12.7419 8.64788 12.7419C8.23388 12.7419 7.86588 12.7419 7.45188 12.6499C7.26788 12.6499 7.08388 12.6499 6.94588 12.6039C6.48588 12.5119 6.34788 12.6499 6.25588 12.9259C6.16388 13.2019 6.20988 13.9839 6.62388 14.3519C7.03788 14.7199 7.22188 14.5359 7.45188 14.2139C7.72788 13.7999 8.18788 13.7079 8.55588 14.0299C8.73988 14.1679 8.96988 14.3979 9.24588 14.3979C9.38388 14.3979 9.52188 14.3519 9.65988 14.2599C9.84388 14.1219 9.93588 13.9839 10.1659 13.8919C10.3499 13.7999 10.5339 13.8919 10.7179 13.9839C10.8099 14.0759 10.9019 14.1679 10.9939 14.2599C11.2239 14.5819 11.3619 14.7659 11.7759 14.3979C12.1899 14.0299 12.2359 13.2479 12.1439 12.9719L12.0519 12.9259Z" fill="url(#paint54_linear_1253_7145)"/>
<path d="M12.144 13.064C12.052 12.788 11.96 12.65 11.454 12.742C10.902 12.834 10.304 12.88 9.70601 12.88C9.29201 12.88 8.92401 12.88 8.55601 12.88C8.14201 12.88 7.72801 12.88 7.31401 12.788C7.13001 12.788 6.94601 12.788 6.76201 12.742C6.25601 12.65 6.16401 12.788 6.07201 13.064C5.98001 13.34 6.02601 14.122 6.48601 14.49C6.94601 14.858 7.08401 14.674 7.31401 14.352C7.63601 13.938 8.09601 13.846 8.51001 14.168C8.69401 14.306 8.92401 14.536 9.20001 14.536C9.33801 14.536 9.47601 14.49 9.61401 14.398C9.79801 14.26 9.89001 14.122 10.12 14.03C10.304 13.938 10.534 14.03 10.718 14.122C10.81 14.214 10.948 14.306 10.994 14.398C11.224 14.72 11.362 14.904 11.776 14.536C12.19 14.168 12.236 13.386 12.144 13.11V13.064Z" fill="url(#paint55_linear_1253_7145)"/>
<path d="M7.40596 13.386C7.40596 13.616 7.22196 13.846 6.94596 13.846C6.66996 13.846 6.48596 13.662 6.48596 13.386C6.48596 13.11 6.66996 12.926 6.94596 12.926C7.22196 12.926 7.40596 13.11 7.40596 13.386Z" fill="url(#paint56_linear_1253_7145)"/>
<path d="M7.26786 13.294C7.26786 13.478 7.12986 13.662 6.89986 13.662C6.66986 13.662 6.53186 13.524 6.53186 13.294C6.53186 13.064 6.66986 12.926 6.89986 12.926C7.12986 12.926 7.26786 13.064 7.26786 13.294Z" fill="url(#paint57_linear_1253_7145)"/>
<path d="M11.868 13.386C11.868 13.616 11.684 13.846 11.408 13.846C11.132 13.846 10.948 13.662 10.948 13.386C10.948 13.11 11.132 12.926 11.408 12.926C11.684 12.926 11.868 13.11 11.868 13.386Z" fill="url(#paint58_linear_1253_7145)"/>
<path d="M11.7759 13.294C11.7759 13.478 11.6379 13.662 11.4079 13.662C11.1779 13.662 11.0399 13.524 11.0399 13.294C11.0399 13.064 11.1779 12.926 11.4079 12.926C11.6379 12.926 11.7759 13.064 11.7759 13.294Z" fill="url(#paint59_linear_1253_7145)"/>
<path d="M9.61397 13.478C9.61397 13.708 9.42997 13.938 9.15397 13.938C8.87797 13.938 8.69397 13.754 8.69397 13.478C8.69397 13.202 8.87797 13.018 9.15397 13.018C9.42997 13.018 9.61397 13.202 9.61397 13.478Z" fill="url(#paint60_linear_1253_7145)"/>
<path d="M9.52189 13.34C9.52189 13.524 9.38389 13.708 9.15389 13.708C8.92389 13.708 8.78589 13.57 8.78589 13.34C8.78589 13.11 8.92389 12.972 9.15389 12.972C9.38389 12.972 9.52189 13.11 9.52189 13.34Z" fill="url(#paint61_linear_1253_7145)"/>
<path d="M4.20373 13.0779L0.565796 14.5109L0.936695 15.4525L4.57463 14.0195L4.20373 13.0779Z" fill="url(#paint62_linear_1253_7145)"/>
<path d="M4.04797 12.834C3.86397 12.926 3.77197 13.11 3.86397 13.294L4.18597 14.122C4.27797 14.306 4.46197 14.398 4.64597 14.306L5.65797 13.892L5.10597 12.374L4.04797 12.788V12.834Z" fill="#231F20"/>
<path d="M0.965961 15.594C0.965961 15.594 0.873961 15.594 0.873961 15.548L0.459961 14.582C0.459961 14.536 0.459961 14.49 0.505961 14.444C0.551961 14.444 0.643961 14.444 0.643961 14.49L1.05796 15.456C1.05796 15.502 1.05796 15.594 1.01196 15.594H0.965961Z" fill="#231F20"/>
<path d="M5.70398 14.26C5.65798 14.26 5.61198 14.26 5.56598 14.168L4.87598 12.282C4.87598 12.19 4.87598 12.144 4.96798 12.098C5.05998 12.098 5.10598 12.098 5.15198 12.19L5.84198 14.076C5.84198 14.168 5.84198 14.214 5.74998 14.26C5.74998 14.26 5.74998 14.26 5.70398 14.26Z" fill="#231F20"/>
<path d="M5.38195 14.03L4.82995 12.512L4.00195 12.834L4.55395 14.352C4.55395 14.352 4.55395 14.352 4.59995 14.352L5.38195 14.03Z" fill="url(#paint63_linear_1253_7145)"/>
<path d="M4.87593 13.064C4.87593 13.248 4.73793 13.386 4.55393 13.386C4.36993 13.386 4.23193 13.248 4.23193 13.064C4.23193 12.88 4.36993 12.742 4.55393 12.742C4.73793 12.742 4.87593 12.88 4.87593 13.064Z" fill="url(#paint64_linear_1253_7145)"/>
<path d="M4.82995 13.11C4.82995 13.248 4.69195 13.386 4.55395 13.386C4.41595 13.386 4.27795 13.248 4.27795 13.11C4.27795 12.972 4.41595 12.834 4.55395 12.834C4.69195 12.834 4.82995 12.972 4.82995 13.11Z" fill="url(#paint65_radial_1253_7145)"/>
<path opacity="0.5" d="M4.6 13.34C4.462 13.34 4.37 13.248 4.37 13.11C4.37 12.972 4.462 12.88 4.6 12.88C4.738 12.88 4.83 12.972 4.83 13.11C4.83 13.248 4.738 13.34 4.6 13.34ZM4.6 12.926C4.508 12.926 4.416 13.018 4.416 13.11C4.416 13.202 4.508 13.294 4.6 13.294C4.692 13.294 4.78399 13.202 4.78399 13.11C4.78399 13.018 4.692 12.926 4.6 12.926Z" fill="#231F20"/>
<path d="M5.24406 13.8V13.892L4.69206 14.076C4.69206 14.076 4.60006 14.076 4.60006 14.03L4.50806 13.8V13.708L5.06006 13.524C5.06006 13.524 5.15206 13.524 5.15206 13.57L5.24406 13.8Z" fill="url(#paint66_linear_1253_7145)"/>
<path d="M4.57079 13.7916L5.08784 13.5983C5.08784 13.5983 5.17401 13.566 5.20623 13.6522L5.28678 13.8676C5.28678 13.8676 5.319 13.9538 5.23282 13.986L4.71578 14.1794C4.71578 14.1794 4.62961 14.2116 4.59739 14.1254L4.51684 13.91C4.51684 13.91 4.48462 13.8238 4.57079 13.7916Z" fill="url(#paint67_linear_1253_7145)"/>
<path opacity="0.5" d="M4.69198 14.076H4.64598V13.938C4.59998 13.938 4.59998 13.938 4.59998 13.892L5.01398 13.708H5.05998V13.846C5.10598 13.846 5.10598 13.846 5.10598 13.892L4.69198 14.076ZM5.05998 13.616L4.64598 13.8V13.938C4.69198 13.938 4.73798 13.938 4.78398 13.938L5.19798 13.754V13.616C5.15198 13.616 5.10598 13.616 5.10598 13.616H5.05998Z" fill="#231F20"/>
<path d="M14.3 13.0591L13.9324 14.002L17.5753 15.4223L17.9429 14.4795L14.3 13.0591Z" fill="url(#paint68_linear_1253_7145)"/>
<path d="M13.846 14.352C14.03 14.444 14.214 14.352 14.306 14.168L14.628 13.34C14.72 13.156 14.628 12.972 14.444 12.88L13.432 12.466L12.834 13.938L13.846 14.352Z" fill="#231F20"/>
<path d="M17.986 14.398C17.986 14.398 17.986 14.49 17.986 14.536L17.618 15.548C17.618 15.594 17.526 15.64 17.48 15.594C17.434 15.594 17.388 15.502 17.434 15.456L17.802 14.444C17.802 14.398 17.894 14.352 17.94 14.398H17.986Z" fill="#231F20"/>
<path d="M13.616 12.144C13.616 12.144 13.662 12.236 13.616 12.282L12.834 14.168C12.834 14.26 12.742 14.26 12.65 14.26C12.558 14.26 12.558 14.168 12.558 14.076L13.34 12.19C13.34 12.098 13.432 12.098 13.524 12.098L13.616 12.144Z" fill="#231F20"/>
<path d="M13.6619 12.558L13.0179 14.03L13.8459 14.352L14.4899 12.88L13.7079 12.558H13.6619Z" fill="url(#paint69_linear_1253_7145)"/>
<path d="M13.666 12.7549L13.5787 12.9677C13.5595 13.0147 13.5819 13.0685 13.6289 13.0878L14.1397 13.2972C14.1867 13.3165 14.2404 13.294 14.2597 13.247L14.347 13.0342C14.3662 12.9872 14.3438 12.9335 14.2968 12.9142L13.786 12.7047C13.739 12.6854 13.6853 12.7079 13.666 12.7549Z" fill="url(#paint70_linear_1253_7145)"/>
<path d="M13.6422 12.9252L13.7295 12.7124C13.7295 12.7124 13.7644 12.6273 13.8495 12.6622L14.3602 12.8716C14.3602 12.8716 14.4453 12.9066 14.4104 12.9917L14.3232 13.2045C14.3232 13.2045 14.2883 13.2896 14.2031 13.2547L13.6924 13.0452C13.6924 13.0452 13.6073 13.0103 13.6422 12.9252Z" fill="url(#paint71_linear_1253_7145)"/>
<path opacity="0.5" d="M14.168 13.156L13.754 12.972C13.754 12.972 13.754 12.972 13.754 12.926V12.788C13.846 12.788 13.846 12.788 13.892 12.788L14.306 12.972C14.306 12.972 14.352 13.018 14.306 13.064V13.202C14.214 13.202 14.214 13.202 14.168 13.202V13.156ZM13.8 12.742V12.88C13.754 12.88 13.754 12.88 13.754 12.88L14.168 13.064H14.214V12.926C14.306 12.926 14.26 12.88 14.214 12.88L13.8 12.696V12.742Z" fill="#231F20"/>
<path d="M13.3859 13.892C13.3399 13.892 13.2939 13.8 13.2939 13.8L13.4779 13.34C13.4779 13.34 13.5699 13.34 13.6159 13.34L13.9379 13.478C13.9839 13.478 14.0299 13.57 14.0299 13.57L13.8459 14.03C13.8459 14.03 13.7539 14.03 13.7079 14.03L13.3859 13.892Z" fill="url(#paint72_linear_1253_7145)"/>
<path d="M13.386 13.892C13.34 13.892 13.294 13.846 13.34 13.8L13.524 13.386C13.524 13.386 13.57 13.386 13.616 13.386L13.892 13.524C13.938 13.524 13.984 13.57 13.938 13.616L13.754 14.03C13.754 14.03 13.708 14.03 13.662 14.03L13.386 13.892Z" fill="url(#paint73_linear_1253_7145)"/>
<path opacity="0.5" d="M13.662 13.984C13.662 13.984 13.662 13.984 13.616 13.984L13.432 13.892C13.432 13.892 13.386 13.846 13.386 13.8L13.524 13.432C13.524 13.432 13.524 13.432 13.57 13.432C13.616 13.432 13.57 13.432 13.616 13.432L13.8 13.524C13.8 13.524 13.846 13.524 13.846 13.57L13.708 13.938C13.708 13.938 13.708 13.938 13.662 13.938V13.984ZM13.57 13.432L13.432 13.8V13.846L13.616 13.938H13.708L13.846 13.57L13.662 13.478L13.57 13.432Z" fill="#231F20"/>
<path d="M11.178 8.05C10.856 7.222 10.626 6.578 10.58 6.486C10.488 6.256 9.93603 5.796 9.43003 5.75C8.97003 5.75 8.41803 6.164 8.23403 6.44C8.09603 6.67 7.72803 7.36 7.45203 8.004C7.95803 7.774 8.74003 7.452 9.33803 7.498C9.98203 7.498 10.764 7.82 11.224 8.05H11.178Z" fill="url(#paint74_linear_1253_7145)"/>
<path d="M11.178 8.04999C10.718 7.81999 9.936 7.49799 9.292 7.49799C8.694 7.49799 7.866 7.81999 7.406 8.00399C7.314 8.14199 7.268 8.32599 7.176 8.46399C6.808 9.10799 5.704 11.73 5.704 11.73L5.474 12.236C9.292 10.902 12.742 12.236 12.742 12.236C12.742 12.236 11.822 9.75199 11.224 8.04999H11.178Z" fill="url(#paint75_linear_1253_7145)"/>
<path d="M6.20996 11.454C6.20996 11.454 9.52196 10.626 12.052 11.546L10.764 8.18803C10.764 8.18803 9.42996 6.71603 7.68196 8.09603L6.20996 11.408V11.454Z" fill="url(#paint76_linear_1253_7145)"/>
<path d="M12.052 11.546L11.822 10.902C11.316 10.488 10.442 9.98201 9.10796 10.028C7.54396 10.074 6.71596 10.764 6.34796 11.086L6.20996 11.408C6.20996 11.408 9.52196 10.58 12.052 11.5V11.546Z" fill="black"/>
<path d="M10.442 9.66001C10.442 10.304 9.89001 10.81 9.20001 10.81C8.51001 10.81 7.95801 10.304 7.95801 9.66001C7.95801 9.01601 8.51001 8.51001 9.20001 8.51001C9.89001 8.51001 10.442 9.01601 10.442 9.66001Z" fill="#231F20"/>
<path d="M10.212 9.66003C10.212 10.166 9.75199 10.626 9.19999 10.626C8.64799 10.626 8.18799 10.212 8.18799 9.66003C8.18799 9.10803 8.64799 8.69403 9.19999 8.69403C9.75199 8.69403 10.212 9.10803 10.212 9.66003Z" fill="url(#paint77_radial_1253_7145)"/>
<path opacity="0.3" d="M8.46399 6.164L7.91199 7.82C8.09599 7.728 8.32599 7.682 8.50999 7.636L8.87799 5.888C8.73999 5.934 8.55599 6.072 8.46399 6.164Z" fill="white"/>
<path opacity="0.2" d="M10.626 8.05002C10.212 7.72802 9.06196 7.03802 7.68196 8.14202L6.20996 11.454C6.20996 11.454 6.43996 11.408 6.85396 11.316L8.14196 8.00402C9.24596 7.22202 10.074 7.77402 10.58 8.05002H10.626Z" fill="white"/>
<path d="M6.07204 9.06198C5.98004 9.42998 5.75004 9.70598 5.56604 9.65998C5.38204 9.65998 5.29004 9.29198 5.38204 8.87798C5.47404 8.50998 5.70404 8.23398 5.88804 8.27998C6.07204 8.27998 6.16404 8.64798 6.07204 9.06198Z" fill="url(#paint78_radial_1253_7145)"/>
<path opacity="0.7" d="M5.84201 8.97003C5.75001 9.29203 5.61201 9.56803 5.47401 9.52203C5.33601 9.52203 5.33601 9.20003 5.42801 8.83203C5.52001 8.51003 5.70401 8.28003 5.79601 8.28003C5.93401 8.28003 5.93401 8.60203 5.88801 8.92403L5.84201 8.97003Z" fill="url(#paint79_linear_1253_7145)"/>
<path style="mix-blend-mode:multiply" opacity="0.7" d="M5.79596 8.92403C5.70396 9.20003 5.56596 9.43003 5.47396 9.38403C5.38196 9.38403 5.33596 9.10803 5.42796 8.78603C5.51996 8.46403 5.65796 8.28003 5.74996 8.32603C5.84196 8.32603 5.88796 8.60203 5.84196 8.87803L5.79596 8.92403Z" fill="url(#paint80_linear_1253_7145)"/>
<path d="M5.65805 8.32601C5.65805 8.32601 4.73805 8.05001 3.95605 7.54401C3.17405 7.03801 3.12805 7.22201 3.12805 7.22201C3.35805 7.40601 3.49605 7.91201 3.49605 7.91201C3.63405 7.86601 4.04805 8.09601 4.50805 8.41801C4.96805 8.74001 5.29005 9.10801 5.38205 9.20001C5.47405 9.20001 5.61205 9.01601 5.65805 8.78601C5.70405 8.51001 5.65805 8.28001 5.61205 8.28001L5.65805 8.32601Z" fill="url(#paint81_linear_1253_7145)"/>
<path d="M5.75005 8.64801C5.75005 8.46401 5.75005 8.32601 5.65805 8.32601C5.65805 8.32601 4.73805 8.05001 3.95605 7.54401C3.17405 7.03801 3.12805 7.22201 3.12805 7.22201C3.22005 7.26801 3.26605 7.40601 3.31205 7.49801C3.45005 7.49801 3.63405 7.59001 4.00205 7.82001C4.78405 8.32601 5.70405 8.60201 5.70405 8.60201L5.75005 8.64801Z" fill="#ED1C24"/>
<path d="M3.4499 8.05C3.4039 8.05 3.3579 8.05 3.3579 7.958C3.3119 7.452 2.8979 7.222 2.8979 7.222C2.8519 7.222 2.8519 7.13 2.8979 7.084C2.8979 7.038 2.9899 7.038 3.0359 7.084C3.0359 7.084 3.5419 7.406 3.5879 8.004C3.5879 8.05 3.5879 8.096 3.4959 8.142L3.4499 8.05Z" fill="black"/>
<path d="M3.772 8.832H0C0 8.832 1.058 7.13 2.162 6.946C3.312 6.762 3.588 8.096 3.726 8.832H3.772Z" fill="url(#paint82_linear_1253_7145)"/>
<path d="M0.459858 8.18805C0.367858 8.32605 0.275858 8.41805 0.229858 8.51005C0.827858 8.51005 2.06986 8.41805 3.72586 8.69405C3.72586 8.60205 3.67986 8.46405 3.63386 8.37205C2.20786 8.18805 1.10386 8.18805 0.459858 8.18805Z" fill="#ED1C24"/>
<g style="mix-blend-mode:multiply" opacity="0.5">
<path d="M3.772 8.83203C3.68 8.28003 3.45 7.36002 2.806 7.03802C3.312 7.40602 3.772 8.60203 2.438 8.69403C1.426 8.78603 0.69 8.64803 0.322 8.32603C0.138 8.60203 0 8.78603 0 8.78603H3.772V8.83203Z" fill="#FFC20E"/>
</g>
<path d="M0.966027 7.68201C1.15003 7.54401 1.93203 6.76201 2.71403 7.13001C3.49603 7.45201 2.99003 8.78601 1.65603 8.69401C0.322027 8.64801 0.598027 8.00401 0.966027 7.68201Z" fill="url(#paint83_linear_1253_7145)"/>
<path d="M12.4659 9.06198C12.5579 9.42998 12.7879 9.70598 12.9719 9.65998C13.1559 9.65998 13.2479 9.29198 13.1559 8.87798C13.0639 8.50998 12.8339 8.23398 12.6499 8.27998C12.4659 8.27998 12.3739 8.64798 12.4659 9.06198Z" fill="url(#paint84_radial_1253_7145)"/>
<path opacity="0.7" d="M12.6959 8.97003C12.7879 9.29203 12.9259 9.56803 13.0639 9.52203C13.2019 9.52203 13.2019 9.20003 13.1099 8.83203C13.0179 8.51003 12.8339 8.28003 12.7419 8.28003C12.6039 8.28003 12.6039 8.60203 12.6499 8.92403L12.6959 8.97003Z" fill="url(#paint85_linear_1253_7145)"/>
<path style="mix-blend-mode:multiply" opacity="0.7" d="M12.7879 8.92403C12.8799 9.20003 13.0179 9.43003 13.1099 9.38403C13.2019 9.38403 13.2479 9.10803 13.1559 8.78603C13.0639 8.46403 12.9259 8.28003 12.8339 8.32603C12.7419 8.32603 12.6959 8.60203 12.7419 8.87803L12.7879 8.92403Z" fill="url(#paint86_linear_1253_7145)"/>
<path d="M12.8799 8.32601C12.8799 8.32601 13.7999 8.05001 14.5819 7.54401C15.3639 7.03801 15.4099 7.22201 15.4099 7.22201C15.1799 7.40601 15.0419 7.91201 15.0419 7.91201C14.9039 7.86601 14.4899 8.09601 14.0299 8.41801C13.5699 8.74001 13.2479 9.10801 13.1559 9.20001C13.0639 9.20001 12.9259 9.01601 12.8799 8.78601C12.8339 8.51001 12.8799 8.28001 12.9259 8.28001L12.8799 8.32601Z" fill="url(#paint87_linear_1253_7145)"/>
<path d="M12.8339 8.64801C12.8339 8.46401 12.8339 8.32601 12.9259 8.32601C12.9259 8.32601 13.8459 8.05001 14.6279 7.54401C15.4099 7.03801 15.4559 7.22201 15.4559 7.22201C15.3639 7.26801 15.3179 7.40601 15.2719 7.49801C15.1339 7.49801 14.9499 7.59001 14.5819 7.82001C13.7999 8.32601 12.8799 8.60201 12.8799 8.60201L12.8339 8.64801Z" fill="#ED1C24"/>
<path d="M15.088 8.05C15.134 8.05 15.18 8.05 15.18 7.958C15.226 7.452 15.64 7.222 15.64 7.222C15.686 7.222 15.686 7.13 15.64 7.084C15.64 7.038 15.548 7.038 15.502 7.084C15.502 7.084 14.996 7.406 14.95 8.004C14.95 8.05 14.95 8.096 15.042 8.142L15.088 8.05Z" fill="black"/>
<path d="M14.812 8.832H18.584C18.584 8.832 17.526 7.13 16.422 6.946C15.272 6.762 14.996 8.096 14.858 8.832H14.812Z" fill="url(#paint88_linear_1253_7145)"/>
<path d="M18.1239 8.18805C18.2159 8.32605 18.3079 8.41805 18.3539 8.51005C17.7559 8.51005 16.5139 8.41805 14.8579 8.69405C14.8579 8.60205 14.9039 8.46405 14.9499 8.37205C16.3759 8.18805 17.4799 8.18805 18.1239 8.18805Z" fill="#ED1C24"/>
<g style="mix-blend-mode:multiply" opacity="0.5">
<path d="M14.812 8.83203C14.904 8.28003 15.134 7.36002 15.778 7.03802C15.272 7.40602 14.812 8.60203 16.146 8.69403C17.158 8.78603 17.894 8.64803 18.262 8.32603C18.446 8.60203 18.584 8.78603 18.584 8.78603H14.812V8.83203Z" fill="#FFC20E"/>
</g>
<path d="M17.6179 7.68201C17.4339 7.54401 16.6519 6.76201 15.8699 7.13001C15.0879 7.45201 15.5939 8.78601 16.9279 8.69401C18.2619 8.64801 17.9859 8.00401 17.6179 7.68201Z" fill="url(#paint89_linear_1253_7145)"/>
<g style="mix-blend-mode:multiply" opacity="0.5">
<path d="M12.42 30.958C12.696 30.084 12.834 29.394 12.696 28.842C12.466 28.336 12.282 27.784 12.144 27.416H9.38403V38.456C9.98203 38.364 10.442 37.858 10.442 37.858C10.81 37.26 11.086 36.708 11.362 36.202C10.764 35.788 12.098 32.016 12.42 31.004V30.958Z" fill="#8B0304"/>
</g>
<g style="mix-blend-mode:multiply" opacity="0.5">
<path d="M5.65791 28.29C5.65791 28.336 5.65791 28.382 5.61191 28.428C5.33591 29.072 5.42791 29.854 5.74991 30.958C6.07191 32.016 7.45191 35.88 6.80791 36.202C7.08391 36.708 7.35991 37.26 7.72791 37.858C7.72791 37.858 8.18791 38.41 8.78591 38.456V27.416H6.02591C5.93391 27.646 5.84191 27.968 5.70391 28.29H5.65791Z" fill="#8B0304"/>
</g>
<path d="M10.7639 33.58L9.1079 33.764L7.4519 33.58L6.8999 33.902C6.8999 33.902 7.4979 36.938 7.6359 37.582C7.7739 38.18 8.0039 38.916 8.9239 38.916H9.2919C10.2119 38.916 10.4419 38.18 10.5799 37.582C10.7179 36.984 11.3159 33.902 11.3159 33.902L10.7639 33.58Z" fill="url(#paint90_linear_1253_7145)"/>
<path d="M10.4419 33.534L9.06192 33.718L7.68192 33.534L7.22192 33.856C7.22192 33.856 7.72792 36.892 7.81992 37.536C7.95792 38.134 8.14192 38.87 8.87792 38.87H9.19992C9.93592 38.87 10.1659 38.134 10.2579 37.536C10.3959 36.938 10.8559 33.856 10.8559 33.856L10.3959 33.534H10.4419Z" fill="url(#paint91_linear_1253_7145)"/>
<path d="M10.028 33.626L9.19997 33.718L8.37197 33.626H8.14197C8.46397 35.098 8.78597 38.272 8.78597 38.87C8.87797 38.87 8.96997 38.87 9.06197 38.87H9.38397C9.38397 38.87 9.47597 38.87 9.52197 38.87C9.52197 35.696 10.12 33.626 10.12 33.626H10.028Z" fill="#ED1C24"/>
<path style="mix-blend-mode:multiply" d="M6.85388 33.902C6.85388 33.902 7.72788 34.362 9.15388 34.316C10.5799 34.316 11.2699 33.902 11.2699 33.902H6.85388Z" fill="url(#paint92_linear_1253_7145)"/>
<path d="M11.6379 25.898C11.2239 24.564 11.6379 23.782 11.3619 23.69C11.1319 23.598 10.8559 23.92 10.3039 24.38C9.88988 24.702 9.33788 24.748 9.06188 24.748C8.78588 24.748 8.23388 24.748 7.81988 24.38C7.26788 23.92 6.99188 23.598 6.76188 23.69C6.53188 23.782 6.94588 24.564 6.48588 25.898C6.07188 27.232 5.47388 28.152 5.70388 29.348C5.93388 30.544 6.80788 33.902 6.80788 33.902C6.80788 33.902 8.14188 34.04 9.01588 34.04C9.88988 34.04 11.2239 33.902 11.2239 33.902C11.2239 33.902 12.0979 30.544 12.3279 29.348C12.5579 28.152 11.9599 27.232 11.5459 25.898H11.6379Z" fill="url(#paint93_linear_1253_7145)"/>
<path style="mix-blend-mode:multiply" opacity="0.2" d="M7.3139 26.358C7.8199 25.714 7.7739 24.564 7.2219 23.966C7.1299 23.874 7.0839 23.782 7.0379 23.69C6.9459 23.644 6.8539 23.644 6.8079 23.69C6.5779 23.782 6.9919 24.564 6.5319 25.898C6.1179 27.232 5.5199 28.152 5.7499 29.348C5.9339 30.268 6.4859 32.43 6.7619 33.396C6.6699 32.936 6.5779 32.384 6.4399 31.74C5.7499 28.014 6.8079 27.048 7.3139 26.358Z" fill="url(#paint94_linear_1253_7145)"/>
<path style="mix-blend-mode:multiply" opacity="0.2" d="M11.638 25.898C11.224 24.564 11.638 23.782 11.362 23.69C11.27 23.69 11.178 23.69 11.086 23.736C11.086 23.828 10.994 23.92 10.948 23.966C10.396 24.564 10.35 25.714 10.856 26.358C11.362 27.002 12.42 28.014 11.73 31.74C11.546 32.614 11.454 33.304 11.316 33.856C11.408 33.488 12.19 30.452 12.42 29.348C12.65 28.152 12.052 27.232 11.638 25.898Z" fill="url(#paint95_linear_1253_7145)"/>
<path style="mix-blend-mode:multiply" opacity="0.5" d="M9.0619 25.024C10.0739 25.024 10.8559 23.92 10.8559 23.92C10.8559 23.92 10.8559 23.92 10.8559 23.874C10.7179 24.012 10.5339 24.15 10.3039 24.334C9.8899 24.656 9.3379 24.702 9.0619 24.702C8.7859 24.702 8.2339 24.702 7.8199 24.334C7.5439 24.104 7.3599 23.92 7.1759 23.782C7.3139 24.104 8.0039 24.978 9.0159 24.978L9.0619 25.024Z" fill="url(#paint96_linear_1253_7145)"/>
<path style="mix-blend-mode:multiply" opacity="0.5" d="M6.85388 33.902C6.85388 33.902 8.18788 34.04 9.06188 34.04C9.93588 34.04 11.2699 33.902 11.2699 33.902C8.87788 33.626 6.85388 33.902 6.85388 33.902Z" fill="url(#paint97_linear_1253_7145)"/>
<path d="M14.122 9.52203C14.214 9.52203 14.904 9.75203 14.996 9.79803C15.088 9.89003 14.904 10.028 14.306 9.93603C13.708 9.84403 13.754 9.47603 14.076 9.52203H14.122Z" fill="url(#paint98_linear_1253_7145)"/>
<path d="M4.46195 9.52203C4.36995 9.52203 3.67995 9.75203 3.58795 9.79803C3.49595 9.89003 3.67995 10.028 4.27795 9.93603C4.87595 9.84403 4.82995 9.47603 4.50795 9.52203H4.46195Z" fill="url(#paint99_linear_1253_7145)"/>
<path style="mix-blend-mode:multiply" d="M5.70394 21.712H5.05994C5.42794 21.712 5.70394 21.85 5.70394 21.942C5.70394 22.034 5.42794 22.126 5.10594 22.172H5.74994C5.74994 22.172 5.84194 22.172 5.84194 22.08V21.758C5.84194 21.758 5.84194 21.666 5.74994 21.666L5.70394 21.712Z" fill="url(#paint100_linear_1253_7145)"/>
<path opacity="0.5" d="M10.9939 27.094C10.2119 26.312 10.3039 25.622 10.2579 25.07C10.2579 24.61 10.2579 24.932 9.42994 25.024C9.42994 25.024 9.19994 25.024 9.10794 25.024C8.96994 25.024 8.78594 25.024 8.78594 25.024C8.00394 24.932 8.00394 24.61 7.95794 25.07C7.91194 25.576 7.95794 26.266 7.22194 27.094C6.89994 27.416 7.08394 31.786 7.17594 33.81C7.68194 33.764 8.23394 33.718 8.78594 33.718H9.47594C10.0279 33.718 10.5799 33.718 11.0859 33.81C11.1779 31.74 11.3619 27.416 11.0399 27.094H10.9939Z" fill="url(#paint101_linear_1253_7145)"/>
<defs>
<linearGradient id="paint0_linear_1253_7145" x1="10.902" y1="35.926" x2="13.754" y2="35.282" gradientUnits="userSpaceOnUse">
<stop offset="0.2" stop-color="#636466"/>
<stop offset="0.3" stop-color="#6A6B6D"/>
<stop offset="0.5" stop-color="#7E7E80"/>
<stop offset="0.6" stop-color="#9E9FA0"/>
<stop offset="0.8" stop-color="#CBCCCC"/>
<stop offset="1" stop-color="white"/>
</linearGradient>
<linearGradient id="paint1_linear_1253_7145" x1="12.42" y1="36.892" x2="12.65" y2="38.548" gradientUnits="userSpaceOnUse">
<stop stop-color="white"/>
<stop offset="0.2" stop-color="#CBCCCC"/>
<stop offset="0.5" stop-color="#9E9FA0"/>
<stop offset="0.7" stop-color="#7E7E80"/>
<stop offset="0.8" stop-color="#6A6B6D"/>
<stop offset="1" stop-color="#636466"/>
</linearGradient>
<radialGradient id="paint2_radial_1253_7145" cx="0" cy="0" r="1" gradientUnits="userSpaceOnUse" gradientTransform="translate(26.9237 68.2824) scale(0.4968)">
<stop stop-color="#575757"/>
<stop offset="0.2" stop-color="#4B4B4B"/>
<stop offset="0.7" stop-color="#333333"/>
<stop offset="1" stop-color="#2B2B2B"/>
</radialGradient>
<linearGradient id="paint3_linear_1253_7145" x1="10.81" y1="35.466" x2="13.616" y2="34.822" gradientUnits="userSpaceOnUse">
<stop offset="0.2" stop-color="#636466"/>
<stop offset="0.3" stop-color="#6A6B6D"/>
<stop offset="0.5" stop-color="#7E7E80"/>
<stop offset="0.6" stop-color="#9E9FA0"/>
<stop offset="0.8" stop-color="#CBCCCC"/>
<stop offset="1" stop-color="white"/>
</linearGradient>
<linearGradient id="paint4_linear_1253_7145" x1="10.6259" y1="34.96" x2="13.4779" y2="34.316" gradientUnits="userSpaceOnUse">
<stop offset="0.2" stop-color="#636466"/>
<stop offset="0.3" stop-color="#6A6B6D"/>
<stop offset="0.5" stop-color="#7E7E80"/>
<stop offset="0.6" stop-color="#9E9FA0"/>
<stop offset="0.8" stop-color="#CBCCCC"/>
<stop offset="1" stop-color="white"/>
</linearGradient>
<radialGradient id="paint5_radial_1253_7145" cx="0" cy="0" r="1" gradientUnits="userSpaceOnUse" gradientTransform="translate(27.5863 67.6199) scale(1.0074 1.0074)">
<stop stop-color="#5E5E5E"/>
<stop offset="0.5" stop-color="#2C2C2C"/>
<stop offset="0.8" stop-color="#0C0C0C"/>
<stop offset="1"/>
</radialGradient>
<linearGradient id="paint6_linear_1253_7145" x1="12.0059" y1="31.188" x2="14.3979" y2="30.866" gradientUnits="userSpaceOnUse">
<stop/>
<stop offset="0.2" stop-color="#0C0C0C"/>
<stop offset="0.5" stop-color="#2C2C2C"/>
<stop offset="1" stop-color="#5E5E5E"/>
</linearGradient>
<linearGradient id="paint7_linear_1253_7145" x1="12.0059" y1="31.188" x2="14.3979" y2="30.866" gradientUnits="userSpaceOnUse">
<stop/>
<stop offset="0.2" stop-color="#0C0C0C"/>
<stop offset="0.5" stop-color="#2C2C2C"/>
<stop offset="1" stop-color="#5E5E5E"/>
</linearGradient>
<linearGradient id="paint8_linear_1253_7145" x1="12.7418" y1="9.84395" x2="15.1798" y2="9.84395" gradientUnits="userSpaceOnUse">
<stop stop-color="#ED1C24"/>
<stop offset="0.1" stop-color="#ED2722"/>
<stop offset="0.3" stop-color="#F0471C"/>
<stop offset="0.5" stop-color="#F47914"/>
<stop offset="0.8" stop-color="#FABF08"/>
<stop offset="1" stop-color="#FFF200"/>
</linearGradient>
<linearGradient id="paint9_linear_1253_7145" x1="13.9379" y1="10.074" x2="13.9379" y2="11.086" gradientUnits="userSpaceOnUse">
<stop/>
<stop offset="0.6" stop-color="#212121"/>
<stop offset="1" stop-color="#363636"/>
</linearGradient>
<linearGradient id="paint10_linear_1253_7145" x1="12.7419" y1="9.84403" x2="15.1799" y2="9.84403" gradientUnits="userSpaceOnUse">
<stop stop-color="#ED1C24"/>
<stop offset="0.1" stop-color="#ED2722"/>
<stop offset="0.3" stop-color="#F0471C"/>
<stop offset="0.5" stop-color="#F47914"/>
<stop offset="0.8" stop-color="#FABF08"/>
<stop offset="1" stop-color="#FFF200"/>
</linearGradient>
<linearGradient id="paint11_linear_1253_7145" x1="5.84191" y1="9.84401" x2="3.40391" y2="9.84401" gradientUnits="userSpaceOnUse">
<stop stop-color="#ED1C24"/>
<stop offset="0.1" stop-color="#ED2722"/>
<stop offset="0.3" stop-color="#F0471C"/>
<stop offset="0.5" stop-color="#F47914"/>
<stop offset="0.8" stop-color="#FABF08"/>
<stop offset="1" stop-color="#FFF200"/>
</linearGradient>
<linearGradient id="paint12_linear_1253_7145" x1="4.59993" y1="10.074" x2="4.59993" y2="11.086" gradientUnits="userSpaceOnUse">
<stop/>
<stop offset="0.6" stop-color="#212121"/>
<stop offset="1" stop-color="#363636"/>
</linearGradient>
<linearGradient id="paint13_linear_1253_7145" x1="5.84195" y1="9.84403" x2="3.40395" y2="9.84403" gradientUnits="userSpaceOnUse">
<stop stop-color="#ED1C24"/>
<stop offset="0.1" stop-color="#ED2722"/>
<stop offset="0.3" stop-color="#F0471C"/>
<stop offset="0.5" stop-color="#F47914"/>
<stop offset="0.8" stop-color="#FABF08"/>
<stop offset="1" stop-color="#FFF200"/>
</linearGradient>
<linearGradient id="paint14_linear_1253_7145" x1="9.10791" y1="46.092" x2="9.10791" y2="41.308" gradientUnits="userSpaceOnUse">
<stop stop-color="#171717"/>
<stop offset="1"/>
</linearGradient>
<linearGradient id="paint15_linear_1253_7145" x1="9.062" y1="33.626" x2="9.062" y2="42.826" gradientUnits="userSpaceOnUse">
<stop/>
<stop offset="0.3" stop-color="#0E0E0E"/>
<stop offset="1" stop-color="#363636"/>
</linearGradient>
<linearGradient id="paint16_linear_1253_7145" x1="5.61192" y1="22.954" x2="5.84192" y2="22.954" gradientUnits="userSpaceOnUse">
<stop stop-color="white"/>
<stop offset="0.2" stop-color="#CBCCCC"/>
<stop offset="0.4" stop-color="#9E9FA0"/>
<stop offset="0.5" stop-color="#7E7E80"/>
<stop offset="0.7" stop-color="#6A6B6D"/>
<stop offset="0.8" stop-color="#636466"/>
</linearGradient>
<linearGradient id="paint17_linear_1253_7145" x1="5.61194" y1="24.15" x2="5.97994" y2="24.15" gradientUnits="userSpaceOnUse">
<stop stop-color="white"/>
<stop offset="0.2" stop-color="#CBCCCC"/>
<stop offset="0.4" stop-color="#9E9FA0"/>
<stop offset="0.5" stop-color="#7E7E80"/>
<stop offset="0.7" stop-color="#6A6B6D"/>
<stop offset="0.8" stop-color="#636466"/>
</linearGradient>
<linearGradient id="paint18_linear_1253_7145" x1="4.46201" y1="25.53" x2="4.46201" y2="24.242" gradientUnits="userSpaceOnUse">
<stop/>
<stop offset="0.1" stop-color="#0D0D0D"/>
<stop offset="0.3" stop-color="#1B1B1B"/>
<stop offset="0.5" stop-color="#212121"/>
<stop offset="0.7" stop-color="#1B1B1B"/>
<stop offset="0.9" stop-color="#0C0C0C"/>
<stop offset="1"/>
</linearGradient>
<linearGradient id="paint19_linear_1253_7145" x1="6.43986" y1="25.576" x2="6.43986" y2="24.38" gradientUnits="userSpaceOnUse">
<stop stop-color="white"/>
<stop offset="0.2" stop-color="#CBCCCC"/>
<stop offset="0.4" stop-color="#9E9FA0"/>
<stop offset="0.5" stop-color="#7E7E80"/>
<stop offset="0.7" stop-color="#6A6B6D"/>
<stop offset="0.8" stop-color="#636466"/>
</linearGradient>
<linearGradient id="paint20_linear_1253_7145" x1="13.6621" y1="25.484" x2="13.6621" y2="24.012" gradientUnits="userSpaceOnUse">
<stop/>
<stop offset="0.1" stop-color="#0D0D0D"/>
<stop offset="0.3" stop-color="#1B1B1B"/>
<stop offset="0.5" stop-color="#212121"/>
<stop offset="0.7" stop-color="#1B1B1B"/>
<stop offset="0.9" stop-color="#0C0C0C"/>
<stop offset="1"/>
</linearGradient>
<linearGradient id="paint21_linear_1253_7145" x1="11.684" y1="25.53" x2="11.684" y2="24.334" gradientUnits="userSpaceOnUse">
<stop stop-color="white"/>
<stop offset="0.2" stop-color="#CBCCCC"/>
<stop offset="0.4" stop-color="#9E9FA0"/>
<stop offset="0.5" stop-color="#7E7E80"/>
<stop offset="0.7" stop-color="#6A6B6D"/>
<stop offset="0.8" stop-color="#636466"/>
</linearGradient>
<linearGradient id="paint22_linear_1253_7145" x1="5.842" y1="21.942" x2="4.37" y2="21.942" gradientUnits="userSpaceOnUse">
<stop/>
<stop offset="0.3" stop-color="#0D0D0D"/>
<stop offset="0.7" stop-color="#1B1B1B"/>
<stop offset="1" stop-color="#212121"/>
</linearGradient>
<linearGradient id="paint23_linear_1253_7145" x1="9.38403" y1="23" x2="13.018" y2="23" gradientUnits="userSpaceOnUse">
<stop/>
<stop offset="0.4" stop-color="#020202"/>
<stop offset="0.7" stop-color="#0C0C0C"/>
<stop offset="0.9" stop-color="#1C1C1C"/>
<stop offset="1" stop-color="#212121"/>
</linearGradient>
<linearGradient id="paint24_linear_1253_7145" x1="5.74998" y1="23" x2="8.73998" y2="23" gradientUnits="userSpaceOnUse">
<stop stop-color="#141414"/>
<stop offset="0.2" stop-color="#080808"/>
<stop offset="0.4" stop-color="#010101"/>
<stop offset="1"/>
</linearGradient>
<linearGradient id="paint25_linear_1253_7145" x1="13.3859" y1="32.936" x2="10.0739" y2="32.936" gradientUnits="userSpaceOnUse">
<stop offset="0.1" stop-color="#8B0304"/>
<stop offset="0.7" stop-color="#E91B22"/>
<stop offset="0.8" stop-color="#CF141A"/>
<stop offset="0.9" stop-color="#9A0608"/>
<stop offset="1" stop-color="#8B0304"/>
</linearGradient>
<linearGradient id="paint26_linear_1253_7145" x1="4.82996" y1="32.936" x2="8.73996" y2="32.936" gradientUnits="userSpaceOnUse">
<stop stop-color="#8B0304"/>
<stop offset="0.5" stop-color="#ED1C24"/>
<stop offset="0.6" stop-color="#E91B22"/>
<stop offset="0.7" stop-color="#E0181F"/>
<stop offset="0.8" stop-color="#CF141A"/>
<stop offset="0.9" stop-color="#9A0608"/>
<stop offset="1" stop-color="#8B0304"/>
</linearGradient>
<linearGradient id="paint27_linear_1253_7145" x1="4.73795" y1="19.136" x2="13.7999" y2="19.136" gradientUnits="userSpaceOnUse">
<stop stop-color="#8B0304"/>
<stop offset="0.2" stop-color="#C81218"/>
<stop offset="0.3" stop-color="#ED1C24"/>
<stop offset="0.4" stop-color="#F6851E"/>
<stop offset="0.5" stop-color="#F8991D"/>
<stop offset="0.6" stop-color="#EE2F22"/>
<stop offset="0.7" stop-color="#ED1C24"/>
<stop offset="0.8" stop-color="#D1151B"/>
<stop offset="0.9" stop-color="#9E080A"/>
<stop offset="1" stop-color="#8B0304"/>
</linearGradient>
<linearGradient id="paint28_linear_1253_7145" x1="7.58994" y1="14.076" x2="7.58994" y2="18.17" gradientUnits="userSpaceOnUse">
<stop stop-color="#840000"/>
<stop offset="0.2" stop-color="#B10C10"/>
<stop offset="0.3" stop-color="#D2141A"/>
<stop offset="0.4" stop-color="#E51A21"/>
<stop offset="0.5" stop-color="#ED1C24"/>
<stop offset="0.6" stop-color="#EE2F23"/>
<stop offset="0.9" stop-color="#F26221"/>
<stop offset="1" stop-color="#F47B20"/>
</linearGradient>
<linearGradient id="paint29_linear_1253_7145" x1="9.42995" y1="12.42" x2="9.52195" y2="16.882" gradientUnits="userSpaceOnUse">
<stop offset="0.2" stop-color="#ED1C24"/>
<stop offset="0.4" stop-color="#C81217"/>
<stop offset="0.8" stop-color="#950506"/>
<stop offset="1" stop-color="#820000"/>
</linearGradient>
<linearGradient id="paint30_linear_1253_7145" x1="10.5799" y1="-4.60002" x2="10.5799" y2="-4.60002" gradientUnits="userSpaceOnUse">
<stop stop-color="#840000"/>
<stop offset="0.2" stop-color="#B10C10"/>
<stop offset="0.3" stop-color="#D2141A"/>
<stop offset="0.4" stop-color="#E51A21"/>
<stop offset="0.5" stop-color="#ED1C24"/>
<stop offset="0.6" stop-color="#EE2F23"/>
<stop offset="0.9" stop-color="#F26221"/>
<stop offset="1" stop-color="#F47B20"/>
</linearGradient>
<linearGradient id="paint31_linear_1253_7145" x1="7.91187" y1="18.4" x2="10.1199" y2="18.4" gradientUnits="userSpaceOnUse">
<stop stop-color="white"/>
<stop offset="0.2" stop-color="#CBCCCC"/>
<stop offset="0.4" stop-color="#9E9FA0"/>
<stop offset="0.5" stop-color="#7E7E80"/>
<stop offset="0.7" stop-color="#6A6B6D"/>
<stop offset="0.8" stop-color="#636466"/>
</linearGradient>
<radialGradient id="paint32_radial_1253_7145" cx="0" cy="0" r="1" gradientUnits="userSpaceOnUse" gradientTransform="translate(23.7083 50.0664) scale(0.7452)">
<stop stop-color="#575757"/>
<stop offset="0.2" stop-color="#4B4B4B"/>
<stop offset="0.7" stop-color="#333333"/>
<stop offset="1" stop-color="#2B2B2B"/>
</radialGradient>
<linearGradient id="paint33_linear_1253_7145" x1="9.2" y1="-0.138" x2="9.2" y2="6.808" gradientUnits="userSpaceOnUse">
<stop stop-color="#171717"/>
<stop offset="1"/>
</linearGradient>
<linearGradient id="paint34_linear_1253_7145" x1="9.24595" y1="4.23202" x2="9.24595" y2="5.75002" gradientUnits="userSpaceOnUse">
<stop stop-color="#EF4123"/>
<stop offset="0.2" stop-color="#EB3E22"/>
<stop offset="0.4" stop-color="#E1381E"/>
<stop offset="0.6" stop-color="#D02D19"/>
<stop offset="0.8" stop-color="#B81E12"/>
<stop offset="0.9" stop-color="#990B08"/>
<stop offset="1" stop-color="#8D0405"/>
</linearGradient>
<linearGradient id="paint35_linear_1253_7145" x1="9.24595" y1="4.27802" x2="9.24595" y2="5.75002" gradientUnits="userSpaceOnUse">
<stop stop-color="#ED1C24"/>
<stop offset="0.3" stop-color="#C61217"/>
<stop offset="0.8" stop-color="#9D080A"/>
<stop offset="1" stop-color="#8D0405"/>
</linearGradient>
<linearGradient id="paint36_linear_1253_7145" x1="4.27797" y1="13.524" x2="13.938" y2="13.524" gradientUnits="userSpaceOnUse">
<stop stop-color="#121212"/>
<stop offset="0.2" stop-color="#0E0E0E"/>
<stop offset="0.4" stop-color="#040404"/>
<stop offset="0.5" stop-color="#020202"/>
<stop offset="0.8" stop-color="#0E0E0E"/>
<stop offset="1" stop-color="#121212"/>
</linearGradient>
<linearGradient id="paint37_linear_1253_7145" x1="9.24601" y1="13.11" x2="9.24601" y2="4.232" gradientUnits="userSpaceOnUse">
<stop stop-color="#880102"/>
<stop offset="0.3" stop-color="#C81217"/>
<stop offset="0.5" stop-color="#ED1C24"/>
<stop offset="0.7" stop-color="#F2656B"/>
<stop offset="0.8" stop-color="#F9B7BA"/>
<stop offset="0.9" stop-color="#FDEBEB"/>
<stop offset="1" stop-color="white"/>
</linearGradient>
<linearGradient id="paint38_linear_1253_7145" x1="10.9479" y1="7.08402" x2="12.0979" y2="7.17602" gradientUnits="userSpaceOnUse">
<stop stop-color="#880102"/>
<stop offset="1" stop-color="#880102"/>
</linearGradient>
<linearGradient id="paint39_linear_1253_7145" x1="6.34794" y1="6.992" x2="7.95794" y2="6.992" gradientUnits="userSpaceOnUse">
<stop stop-color="#880102"/>
<stop offset="1" stop-color="#880102"/>
</linearGradient>
<linearGradient id="paint40_linear_1253_7145" x1="6.07201" y1="9.38394" x2="4.92201" y2="9.29194" gradientUnits="userSpaceOnUse">
<stop stop-color="#880102"/>
<stop offset="1" stop-color="#880102"/>
</linearGradient>
<linearGradient id="paint41_linear_1253_7145" x1="12.328" y1="9.43" x2="13.616" y2="9.2" gradientUnits="userSpaceOnUse">
<stop stop-color="#880102"/>
<stop offset="1" stop-color="#880102"/>
</linearGradient>
<linearGradient id="paint42_linear_1253_7145" x1="4.82987" y1="11.27" x2="5.88787" y2="10.764" gradientUnits="userSpaceOnUse">
<stop stop-color="#ED1C24"/>
<stop offset="0.3" stop-color="#C8141A"/>
<stop offset="1" stop-color="#670000"/>
</linearGradient>
<linearGradient id="paint43_linear_1253_7145" x1="13.6619" y1="11.224" x2="12.3279" y2="10.764" gradientUnits="userSpaceOnUse">
<stop stop-color="#ED1C24"/>
<stop offset="0.3" stop-color="#C8141A"/>
<stop offset="1" stop-color="#670000"/>
</linearGradient>
<linearGradient id="paint44_linear_1253_7145" x1="3.67996" y1="12.834" x2="3.17396" y2="11.408" gradientUnits="userSpaceOnUse">
<stop offset="0.2" stop-color="#636466"/>
<stop offset="0.3" stop-color="#6A6B6D"/>
<stop offset="0.5" stop-color="#7E7E80"/>
<stop offset="0.6" stop-color="#9E9FA0"/>
<stop offset="0.8" stop-color="#CBCCCC"/>
<stop offset="1" stop-color="white"/>
</linearGradient>
<linearGradient id="paint45_linear_1253_7145" x1="3.67996" y1="12.834" x2="3.17396" y2="11.408" gradientUnits="userSpaceOnUse">
<stop offset="0.2" stop-color="#636466"/>
<stop offset="0.3" stop-color="#6A6B6D"/>
<stop offset="0.5" stop-color="#7E7E80"/>
<stop offset="0.6" stop-color="#9E9FA0"/>
<stop offset="0.8" stop-color="#CBCCCC"/>
<stop offset="1" stop-color="white"/>
</linearGradient>
<linearGradient id="paint46_linear_1253_7145" x1="6.21002" y1="12.282" x2="5.42802" y2="10.488" gradientUnits="userSpaceOnUse">
<stop/>
<stop offset="0.2" stop-color="#060606"/>
<stop offset="0.6" stop-color="#171717"/>
<stop offset="1" stop-color="#363636"/>
</linearGradient>
<linearGradient id="paint47_linear_1253_7145" x1="14.904" y1="12.742" x2="15.272" y2="11.454" gradientUnits="userSpaceOnUse">
<stop offset="0.2" stop-color="#636466"/>
<stop offset="0.3" stop-color="#6A6B6D"/>
<stop offset="0.5" stop-color="#7E7E80"/>
<stop offset="0.6" stop-color="#9E9FA0"/>
<stop offset="0.8" stop-color="#CBCCCC"/>
<stop offset="1" stop-color="white"/>
</linearGradient>
<linearGradient id="paint48_linear_1253_7145" x1="14.9039" y1="12.742" x2="15.2719" y2="11.454" gradientUnits="userSpaceOnUse">
<stop offset="0.2" stop-color="#636466"/>
<stop offset="0.3" stop-color="#6A6B6D"/>
<stop offset="0.5" stop-color="#7E7E80"/>
<stop offset="0.6" stop-color="#9E9FA0"/>
<stop offset="0.8" stop-color="#CBCCCC"/>
<stop offset="1" stop-color="white"/>
</linearGradient>
<linearGradient id="paint49_linear_1253_7145" x1="12.3279" y1="12.328" x2="12.9259" y2="10.488" gradientUnits="userSpaceOnUse">
<stop/>
<stop offset="0.2" stop-color="#060606"/>
<stop offset="0.6" stop-color="#171717"/>
<stop offset="1" stop-color="#363636"/>
</linearGradient>
<linearGradient id="paint50_linear_1253_7145" x1="12.88" y1="12.328" x2="12.42" y2="13.248" gradientUnits="userSpaceOnUse">
<stop stop-color="white"/>
<stop offset="0.2" stop-color="#CBCCCC"/>
<stop offset="0.4" stop-color="#9E9FA0"/>
<stop offset="0.5" stop-color="#7E7E80"/>
<stop offset="0.7" stop-color="#6A6B6D"/>
<stop offset="0.8" stop-color="#636466"/>
</linearGradient>
<linearGradient id="paint51_linear_1253_7145" x1="12.88" y1="12.328" x2="12.42" y2="13.248" gradientUnits="userSpaceOnUse">
<stop stop-color="white"/>
<stop offset="0.2" stop-color="#CBCCCC"/>
<stop offset="0.4" stop-color="#9E9FA0"/>
<stop offset="0.5" stop-color="#7E7E80"/>
<stop offset="0.7" stop-color="#6A6B6D"/>
<stop offset="0.8" stop-color="#636466"/>
</linearGradient>
<linearGradient id="paint52_linear_1253_7145" x1="5.61183" y1="12.328" x2="6.02583" y2="13.294" gradientUnits="userSpaceOnUse">
<stop stop-color="white"/>
<stop offset="0.2" stop-color="#CBCCCC"/>
<stop offset="0.4" stop-color="#9E9FA0"/>
<stop offset="0.5" stop-color="#7E7E80"/>
<stop offset="0.7" stop-color="#6A6B6D"/>
<stop offset="0.8" stop-color="#636466"/>
</linearGradient>
<linearGradient id="paint53_linear_1253_7145" x1="5.61198" y1="12.328" x2="6.02598" y2="13.294" gradientUnits="userSpaceOnUse">
<stop stop-color="white"/>
<stop offset="0.2" stop-color="#CBCCCC"/>
<stop offset="0.4" stop-color="#9E9FA0"/>
<stop offset="0.5" stop-color="#7E7E80"/>
<stop offset="0.7" stop-color="#6A6B6D"/>
<stop offset="0.8" stop-color="#636466"/>
</linearGradient>
<linearGradient id="paint54_linear_1253_7145" x1="9.15388" y1="12.3739" x2="9.15388" y2="13.4779" gradientUnits="userSpaceOnUse">
<stop offset="0.2" stop-color="#2B2B2B"/>
<stop offset="0.4" stop-color="#232323"/>
<stop offset="0.6" stop-color="#0F0F0F"/>
<stop offset="0.8"/>
</linearGradient>
<linearGradient id="paint55_linear_1253_7145" x1="9.10801" y1="11.776" x2="9.10801" y2="15.226" gradientUnits="userSpaceOnUse">
<stop stop-color="#636466"/>
<stop offset="0.2" stop-color="#696B6D"/>
<stop offset="0.3" stop-color="#7D7E81"/>
<stop offset="0.4" stop-color="#9C9EA1"/>
<stop offset="0.5" stop-color="#97999C"/>
<stop offset="0.6" stop-color="#7A7C7E"/>
<stop offset="0.7" stop-color="#636466"/>
<stop offset="0.8" stop-color="#48494A"/>
<stop offset="0.9" stop-color="#29292A"/>
<stop offset="1"/>
</linearGradient>
<linearGradient id="paint56_linear_1253_7145" x1="6.94596" y1="13.018" x2="6.94596" y2="14.306" gradientUnits="userSpaceOnUse">
<stop offset="0.3" stop-color="#171717"/>
<stop offset="0.4" stop-color="#1E1E1E"/>
<stop offset="0.5" stop-color="#323232"/>
<stop offset="0.8" stop-color="#525252"/>
<stop offset="1" stop-color="#808080"/>
</linearGradient>
<linearGradient id="paint57_linear_1253_7145" x1="6.94586" y1="12.972" x2="6.94586" y2="13.938" gradientUnits="userSpaceOnUse">
<stop stop-color="#282828"/>
<stop offset="0.4" stop-color="#121212"/>
<stop offset="0.7" stop-color="#040404"/>
<stop offset="1"/>
</linearGradient>
<linearGradient id="paint58_linear_1253_7145" x1="11.408" y1="13.018" x2="11.408" y2="14.306" gradientUnits="userSpaceOnUse">
<stop offset="0.3" stop-color="#171717"/>
<stop offset="0.4" stop-color="#1E1E1E"/>
<stop offset="0.5" stop-color="#323232"/>
<stop offset="0.8" stop-color="#525252"/>
<stop offset="1" stop-color="#808080"/>
</linearGradient>
<linearGradient id="paint59_linear_1253_7145" x1="11.4079" y1="12.972" x2="11.4079" y2="13.938" gradientUnits="userSpaceOnUse">
<stop stop-color="#282828"/>
<stop offset="0.4" stop-color="#121212"/>
<stop offset="0.7" stop-color="#040404"/>
<stop offset="1"/>
</linearGradient>
<linearGradient id="paint60_linear_1253_7145" x1="9.15397" y1="13.018" x2="9.15397" y2="14.306" gradientUnits="userSpaceOnUse">
<stop offset="0.3" stop-color="#171717"/>
<stop offset="0.4" stop-color="#1E1E1E"/>
<stop offset="0.5" stop-color="#323232"/>
<stop offset="0.8" stop-color="#525252"/>
<stop offset="1" stop-color="#808080"/>
</linearGradient>
<linearGradient id="paint61_linear_1253_7145" x1="9.15389" y1="12.972" x2="9.15389" y2="13.938" gradientUnits="userSpaceOnUse">
<stop stop-color="#282828"/>
<stop offset="0.4" stop-color="#121212"/>
<stop offset="0.7" stop-color="#040404"/>
<stop offset="1"/>
</linearGradient>
<linearGradient id="paint62_linear_1253_7145" x1="2.39968" y1="13.8005" x2="2.72168" y2="14.7665" gradientUnits="userSpaceOnUse">
<stop stop-color="#0C0C0C"/>
<stop offset="0.2" stop-color="#2C2C2C"/>
<stop offset="0.4" stop-color="#5E5E5E"/>
<stop offset="0.5" stop-color="#464646"/>
<stop offset="0.6" stop-color="#303030"/>
<stop offset="0.7" stop-color="#202020"/>
<stop offset="0.8" stop-color="#161616"/>
<stop offset="1" stop-color="#141414"/>
</linearGradient>
<linearGradient id="paint63_linear_1253_7145" x1="4.46195" y1="12.696" x2="4.96795" y2="14.168" gradientUnits="userSpaceOnUse">
<stop stop-color="#141414"/>
<stop offset="0.2" stop-color="#161616"/>
<stop offset="0.3" stop-color="#202020"/>
<stop offset="0.4" stop-color="#303030"/>
<stop offset="0.5" stop-color="#464646"/>
<stop offset="0.6" stop-color="#5E5E5E"/>
<stop offset="0.8" stop-color="#2C2C2C"/>
<stop offset="0.9" stop-color="#0C0C0C"/>
<stop offset="1"/>
</linearGradient>
<linearGradient id="paint64_linear_1253_7145" x1="4.69193" y1="13.386" x2="4.32393" y2="12.558" gradientUnits="userSpaceOnUse">
<stop stop-color="#1A1A1A"/>
<stop offset="1" stop-color="#212121"/>
</linearGradient>
<radialGradient id="paint65_radial_1253_7145" cx="0" cy="0" r="1" gradientUnits="userSpaceOnUse" gradientTransform="translate(19.596 45.1673) scale(0.3864 0.386399)">
<stop stop-color="#8C8C8C"/>
<stop offset="0.4" stop-color="#6B6B6B"/>
<stop offset="0.8" stop-color="#535353"/>
<stop offset="1" stop-color="#4A4A4A"/>
</radialGradient>
<linearGradient id="paint66_linear_1253_7145" x1="3.42487" y1="14.4034" x2="3.58675" y2="14.8963" gradientUnits="userSpaceOnUse">
<stop stop-color="#1A1A1A"/>
<stop offset="1" stop-color="#212121"/>
</linearGradient>
<linearGradient id="paint67_linear_1253_7145" x1="4.82016" y1="13.572" x2="4.95816" y2="13.986" gradientUnits="userSpaceOnUse">
<stop stop-color="#8C8C8C"/>
<stop offset="0.2" stop-color="#777777"/>
<stop offset="0.5" stop-color="#4F4F4F"/>
<stop offset="0.8" stop-color="#373737"/>
<stop offset="1" stop-color="#2E2E2E"/>
</linearGradient>
<linearGradient id="paint68_linear_1253_7145" x1="15.7137" y1="14.7369" x2="16.1" y2="13.7781" gradientUnits="userSpaceOnUse">
<stop stop-color="#0C0C0C"/>
<stop offset="0.2" stop-color="#2C2C2C"/>
<stop offset="0.4" stop-color="#5E5E5E"/>
<stop offset="0.5" stop-color="#464646"/>
<stop offset="0.6" stop-color="#303030"/>
<stop offset="0.7" stop-color="#202020"/>
<stop offset="0.8" stop-color="#161616"/>
<stop offset="1" stop-color="#141414"/>
</linearGradient>
<linearGradient id="paint69_linear_1253_7145" x1="13.4611" y1="14.1995" x2="14.0562" y2="12.7444" gradientUnits="userSpaceOnUse">
<stop stop-color="#141414"/>
<stop offset="0.2" stop-color="#161616"/>
<stop offset="0.3" stop-color="#202020"/>
<stop offset="0.4" stop-color="#303030"/>
<stop offset="0.5" stop-color="#464646"/>
<stop offset="0.6" stop-color="#5E5E5E"/>
<stop offset="0.8" stop-color="#2C2C2C"/>
<stop offset="0.9" stop-color="#0C0C0C"/>
<stop offset="1"/>
</linearGradient>
<linearGradient id="paint70_linear_1253_7145" x1="12.2185" y1="11.3735" x2="12.4346" y2="10.9019" gradientUnits="userSpaceOnUse">
<stop stop-color="#1A1A1A"/>
<stop offset="1" stop-color="#212121"/>
</linearGradient>
<linearGradient id="paint71_linear_1253_7145" x1="13.8345" y1="13.2845" x2="14.0146" y2="12.887" gradientUnits="userSpaceOnUse">
<stop stop-color="#8C8C8C"/>
<stop offset="0.2" stop-color="#777777"/>
<stop offset="0.5" stop-color="#4F4F4F"/>
<stop offset="0.8" stop-color="#373737"/>
<stop offset="1" stop-color="#2E2E2E"/>
</linearGradient>
<linearGradient id="paint72_linear_1253_7145" x1="14.5254" y1="14.3101" x2="14.7746" y2="13.7121" gradientUnits="userSpaceOnUse">
<stop stop-color="#212121"/>
<stop offset="1" stop-color="#1A1A1A"/>
</linearGradient>
<linearGradient id="paint73_linear_1253_7145" x1="13.754" y1="13.432" x2="13.524" y2="13.984" gradientUnits="userSpaceOnUse">
<stop stop-color="#8C8C8C"/>
<stop offset="0.2" stop-color="#777777"/>
<stop offset="0.5" stop-color="#4F4F4F"/>
<stop offset="0.8" stop-color="#373737"/>
<stop offset="1" stop-color="#2E2E2E"/>
</linearGradient>
<linearGradient id="paint74_linear_1253_7145" x1="7.45203" y1="6.946" x2="11.132" y2="6.946" gradientUnits="userSpaceOnUse">
<stop/>
<stop offset="0.2" stop-color="#0E0E0E"/>
<stop offset="0.5" stop-color="#363636"/>
<stop offset="0.8" stop-color="#0F0F0F"/>
<stop offset="1"/>
</linearGradient>
<linearGradient id="paint75_linear_1253_7145" x1="6.67" y1="9.88999" x2="11.684" y2="9.88999" gradientUnits="userSpaceOnUse">
<stop/>
<stop offset="0.2" stop-color="#0E0E0E"/>
<stop offset="0.5" stop-color="#363636"/>
<stop offset="0.8" stop-color="#0F0F0F"/>
<stop offset="1"/>
</linearGradient>
<linearGradient id="paint76_linear_1253_7145" x1="6.20996" y1="9.56803" x2="12.052" y2="9.56803" gradientUnits="userSpaceOnUse">
<stop/>
<stop offset="0.3" stop-color="#0E0E0E"/>
<stop offset="1" stop-color="#363636"/>
</linearGradient>
<radialGradient id="paint77_radial_1253_7145" cx="0" cy="0" r="1" gradientUnits="userSpaceOnUse" gradientTransform="translate(25.4472 41.7312) scale(3.1188 3.1188)">
<stop stop-color="#363636"/>
<stop offset="0.2" stop-color="#202020"/>
<stop offset="0.5" stop-color="#0E0E0E"/>
<stop offset="0.7" stop-color="#030303"/>
<stop offset="1"/>
</radialGradient>
<radialGradient id="paint78_radial_1253_7145" cx="0" cy="0" r="1" gradientUnits="userSpaceOnUse" gradientTransform="translate(20.907 40.6824) scale(1.518)">
<stop stop-color="#171717"/>
<stop offset="0.7" stop-color="#1D1B1B"/>
<stop offset="1" stop-color="#231F20"/>
</radialGradient>
<linearGradient id="paint79_linear_1253_7145" x1="5.24401" y1="9.56803" x2="6.07201" y2="8.18803" gradientUnits="userSpaceOnUse">
<stop stop-color="#171717"/>
<stop offset="0.4" stop-color="#1D1D1D"/>
<stop offset="0.9" stop-color="#2F2F2F"/>
<stop offset="1" stop-color="#363636"/>
</linearGradient>
<linearGradient id="paint80_linear_1253_7145" x1="4.7527" y1="9.40623" x2="5.49471" y2="8.26009" gradientUnits="userSpaceOnUse">
<stop stop-color="#171717"/>
<stop offset="0.4" stop-color="#1D1D1D"/>
<stop offset="0.9" stop-color="#2F2F2F"/>
<stop offset="1" stop-color="#363636"/>
</linearGradient>
<linearGradient id="paint81_linear_1253_7145" x1="3.12805" y1="8.28001" x2="5.79605" y2="8.28001" gradientUnits="userSpaceOnUse">
<stop stop-color="#ED1C24"/>
<stop offset="0.4" stop-color="#C51217"/>
<stop offset="0.8" stop-color="#9C070A"/>
<stop offset="1" stop-color="#8D0405"/>
</linearGradient>
<linearGradient id="paint82_linear_1253_7145" x1="3.772" y1="8.51" x2="0.782" y2="7.774" gradientUnits="userSpaceOnUse">
<stop stop-color="#8D0405"/>
<stop offset="0.3" stop-color="#B10D10"/>
<stop offset="0.6" stop-color="#D1151B"/>
<stop offset="0.8" stop-color="#E51A21"/>
<stop offset="1" stop-color="#ED1C24"/>
</linearGradient>
<linearGradient id="paint83_linear_1253_7145" x1="1.05803" y1="6.71601" x2="2.62203" y2="8.97001" gradientUnits="userSpaceOnUse">
<stop stop-color="white"/>
<stop offset="0.8" stop-color="white"/>
</linearGradient>
<radialGradient id="paint84_radial_1253_7145" cx="0" cy="0" r="1" gradientUnits="userSpaceOnUse" gradientTransform="translate(36.4963 40.6824) rotate(180) scale(1.518)">
<stop stop-color="#171717"/>
<stop offset="0.7" stop-color="#1D1B1B"/>
<stop offset="1" stop-color="#231F20"/>
</radialGradient>
<linearGradient id="paint85_linear_1253_7145" x1="13.3399" y1="9.56803" x2="12.4659" y2="8.18803" gradientUnits="userSpaceOnUse">
<stop stop-color="#171717"/>
<stop offset="0.4" stop-color="#1D1D1D"/>
<stop offset="0.9" stop-color="#2F2F2F"/>
<stop offset="1" stop-color="#363636"/>
</linearGradient>
<linearGradient id="paint86_linear_1253_7145" x1="21.8293" y1="9.20793" x2="21.0873" y2="8.0618" gradientUnits="userSpaceOnUse">
<stop stop-color="#171717"/>
<stop offset="0.4" stop-color="#1D1D1D"/>
<stop offset="0.9" stop-color="#2F2F2F"/>
<stop offset="1" stop-color="#363636"/>
</linearGradient>
<linearGradient id="paint87_linear_1253_7145" x1="15.4099" y1="-4.59999" x2="12.7879" y2="-4.59999" gradientUnits="userSpaceOnUse">
<stop stop-color="#ED1C24"/>
<stop offset="0.4" stop-color="#C51217"/>
<stop offset="0.8" stop-color="#9C070A"/>
<stop offset="1" stop-color="#8D0405"/>
</linearGradient>
<linearGradient id="paint88_linear_1253_7145" x1="14.766" y1="8.51" x2="17.756" y2="7.774" gradientUnits="userSpaceOnUse">
<stop stop-color="#8D0405"/>
<stop offset="0.3" stop-color="#B10D10"/>
<stop offset="0.6" stop-color="#D1151B"/>
<stop offset="0.8" stop-color="#E51A21"/>
<stop offset="1" stop-color="#ED1C24"/>
</linearGradient>
<linearGradient id="paint89_linear_1253_7145" x1="17.5259" y1="6.71601" x2="15.9159" y2="8.97001" gradientUnits="userSpaceOnUse">
<stop stop-color="white"/>
<stop offset="0.8" stop-color="white"/>
</linearGradient>
<linearGradient id="paint90_linear_1253_7145" x1="9.1079" y1="38.916" x2="9.1079" y2="33.396" gradientUnits="userSpaceOnUse">
<stop stop-color="#E31A21"/>
<stop offset="1" stop-color="#5E0000"/>
</linearGradient>
<linearGradient id="paint91_linear_1253_7145" x1="9.06192" y1="38.916" x2="9.06192" y2="33.626" gradientUnits="userSpaceOnUse">
<stop stop-color="#ED1C24"/>
<stop offset="0.3" stop-color="#C61217"/>
<stop offset="0.8" stop-color="#9D080A"/>
<stop offset="1" stop-color="#8D0405"/>
</linearGradient>
<linearGradient id="paint92_linear_1253_7145" x1="6.57788" y1="34.086" x2="11.8219" y2="34.086" gradientUnits="userSpaceOnUse">
<stop stop-color="#97C93D"/>
<stop offset="1" stop-color="#62942E"/>
</linearGradient>
<linearGradient id="paint93_linear_1253_7145" x1="5.24388" y1="28.842" x2="13.2479" y2="28.842" gradientUnits="userSpaceOnUse">
<stop/>
<stop offset="0.1" stop-color="#0D0D0D"/>
<stop offset="0.3" stop-color="#1B1B1B"/>
<stop offset="0.5" stop-color="#212121"/>
<stop offset="0.7" stop-color="#1B1B1B"/>
<stop offset="0.9" stop-color="#0C0C0C"/>
<stop offset="1"/>
</linearGradient>
<linearGradient id="paint94_linear_1253_7145" x1="5.2439" y1="28.52" x2="13.2479" y2="28.52" gradientUnits="userSpaceOnUse">
<stop/>
<stop offset="0.1" stop-color="#0D0D0D"/>
<stop offset="0.3" stop-color="#1B1B1B"/>
<stop offset="0.5" stop-color="#212121"/>
<stop offset="0.7" stop-color="#1B1B1B"/>
<stop offset="0.9" stop-color="#0C0C0C"/>
<stop offset="1"/>
</linearGradient>
<linearGradient id="paint95_linear_1253_7145" x1="5.24397" y1="28.75" x2="13.248" y2="28.75" gradientUnits="userSpaceOnUse">
<stop/>
<stop offset="0.1" stop-color="#0D0D0D"/>
<stop offset="0.3" stop-color="#1B1B1B"/>
<stop offset="0.5" stop-color="#212121"/>
<stop offset="0.7" stop-color="#1B1B1B"/>
<stop offset="0.9" stop-color="#0C0C0C"/>
<stop offset="1"/>
</linearGradient>
<linearGradient id="paint96_linear_1253_7145" x1="5.2439" y1="24.426" x2="13.2479" y2="24.426" gradientUnits="userSpaceOnUse">
<stop/>
<stop offset="0.1" stop-color="#0D0D0D"/>
<stop offset="0.3" stop-color="#1B1B1B"/>
<stop offset="0.5" stop-color="#212121"/>
<stop offset="0.7" stop-color="#1B1B1B"/>
<stop offset="0.9" stop-color="#0C0C0C"/>
<stop offset="1"/>
</linearGradient>
<linearGradient id="paint97_linear_1253_7145" x1="5.24388" y1="33.902" x2="13.2479" y2="33.902" gradientUnits="userSpaceOnUse">
<stop/>
<stop offset="0.1" stop-color="#0D0D0D"/>
<stop offset="0.3" stop-color="#1B1B1B"/>
<stop offset="0.5" stop-color="#212121"/>
<stop offset="0.7" stop-color="#1B1B1B"/>
<stop offset="0.9" stop-color="#0C0C0C"/>
<stop offset="1"/>
</linearGradient>
<linearGradient id="paint98_linear_1253_7145" x1="14.582" y1="9.43003" x2="14.352" y2="10.166" gradientUnits="userSpaceOnUse">
<stop stop-color="white"/>
<stop offset="0.8" stop-color="white"/>
</linearGradient>
<linearGradient id="paint99_linear_1253_7145" x1="4.00195" y1="9.43003" x2="4.27795" y2="10.212" gradientUnits="userSpaceOnUse">
<stop stop-color="white"/>
<stop offset="0.8" stop-color="white"/>
</linearGradient>
<linearGradient id="paint100_linear_1253_7145" x1="5.84194" y1="21.942" x2="4.36994" y2="21.942" gradientUnits="userSpaceOnUse">
<stop/>
<stop offset="0.3" stop-color="#0D0D0D"/>
<stop offset="0.7" stop-color="#1B1B1B"/>
<stop offset="1" stop-color="#212121"/>
</linearGradient>
<linearGradient id="paint101_linear_1253_7145" x1="5.42794" y1="29.302" x2="11.1319" y2="29.348" gradientUnits="userSpaceOnUse">
<stop stop-color="white"/>
<stop offset="0.8" stop-color="white"/>
</linearGradient>
</defs>
</svg>
