<svg width="335" height="335" viewBox="0 0 335 335" fill="none" xmlns="http://www.w3.org/2000/svg">
<path d="M166.354 315.128C246.91 315.128 312.213 276.378 312.213 228.577C312.213 180.777 246.91 142.027 166.354 142.027C85.7987 142.027 20.4954 180.777 20.4954 228.577C20.4954 276.378 85.7987 315.128 166.354 315.128Z" fill="#F5F5F5"/>
<path d="M197.791 206.574L110.255 257.139C109.729 257.407 109.147 257.546 108.557 257.546C107.966 257.546 107.384 257.407 106.858 257.139L96.4799 251.417C95.5419 250.875 95.5419 249.997 96.4799 249.461L184.042 198.889C184.568 198.622 185.15 198.482 185.741 198.482C186.331 198.482 186.913 198.622 187.439 198.889L197.824 204.611C198.729 205.187 198.729 206.032 197.791 206.574Z" fill="#E0E0E0"/>
<path d="M223.304 286.968C242.372 286.968 257.829 278.569 257.829 268.208C257.829 257.847 242.372 249.448 223.304 249.448C204.236 249.448 188.779 257.847 188.779 268.208C188.779 278.569 204.236 286.968 223.304 286.968Z" fill="#E0E0E0"/>
<path d="M269.929 219.599C278.026 219.599 284.589 216.032 284.589 211.633C284.589 207.233 278.026 203.667 269.929 203.667C261.833 203.667 255.27 207.233 255.27 211.633C255.27 216.032 261.833 219.599 269.929 219.599Z" fill="#E0E0E0"/>
<path d="M59.7706 228.577C72.6477 228.577 83.0866 222.905 83.0866 215.907C83.0866 208.91 72.6477 203.238 59.7706 203.238C46.8935 203.238 36.4546 208.91 36.4546 215.907C36.4546 222.905 46.8935 228.577 59.7706 228.577Z" fill="#E0E0E0"/>
<path d="M250.506 43.6036L255.022 46.23V42.6254C255.022 40.5417 256.724 39.8248 258.808 41.0241L258.962 41.1179C259.92 41.6918 260.745 42.4639 261.38 43.3825C261.494 39.8784 264.449 38.6925 268.08 40.7695L268.355 40.9303C272.033 43.0542 275.055 47.8045 275.055 51.4761V57.7473L279.222 60.1593C280.991 61.1777 282.438 63.4557 282.438 65.2245C282.438 66.9933 280.991 67.5963 279.222 66.5645L273.675 63.3619L262.801 57.084L250.506 50.0222C248.737 49.0038 247.29 46.7258 247.29 44.957C247.29 43.1882 248.737 42.5852 250.506 43.6036Z" fill="#E0E0E0"/>
<path d="M282.452 36.8834L285.567 38.679V36.1799C285.567 34.7461 286.747 34.2503 288.18 35.0811L288.288 35.1414C288.949 35.54 289.517 36.0744 289.956 36.7092C290.036 34.2905 292.073 33.4731 294.559 34.9069L294.746 35.0141C297.286 36.4814 299.363 39.751 299.363 42.2903V46.6118L302.237 48.2734C302.853 48.6438 303.373 49.1529 303.757 49.7601C304.141 50.3674 304.378 51.0559 304.448 51.7708C304.448 52.9902 303.456 53.4056 302.237 52.7021L298.405 50.4978L290.901 46.2299L282.452 41.3523C281.837 40.9835 281.316 40.4756 280.932 39.8695C280.548 39.2633 280.311 38.5757 280.241 37.8616C280.241 36.602 281.233 36.1799 282.452 36.8834Z" fill="#E0E0E0"/>
<path d="M52.7626 135.447C53.9664 135.328 55.1796 135.546 56.2667 136.077C58.3705 137.095 60.1125 138.717 61.9818 140.097C63.8511 141.477 66.0018 142.777 68.32 142.837C70.6382 142.898 73.1775 141.457 73.5996 139.159C73.6261 138.753 73.7283 138.355 73.9011 137.986C74.133 137.692 74.4555 137.482 74.8188 137.388C75.182 137.295 75.5659 137.324 75.9111 137.471C76.5873 137.777 77.2314 138.149 77.834 138.583C80.1991 139.976 83.194 139.661 85.874 139.253C88.1319 138.924 90.9861 137.913 90.9794 135.641C90.9794 134.154 89.6394 133.049 88.6478 131.97C87.6562 130.891 86.7852 129.156 87.7232 127.997C88.0831 127.605 88.5484 127.326 89.0632 127.193C91.8906 126.275 95.3545 127.501 97.7732 125.732C99.542 124.392 99.9574 121.712 99.0261 119.749C98.5092 118.772 97.7861 117.919 96.9069 117.249C96.0277 116.579 95.0133 116.109 93.9341 115.87C92.038 115.387 89.626 115.166 88.9158 113.337C88.2994 111.736 89.5456 109.987 90.9258 109.022C92.306 108.058 94.0279 107.347 95.0061 105.94C95.4867 105.188 95.7531 104.319 95.7767 103.426C95.8004 102.534 95.5802 101.652 95.1401 100.875C94.6821 100.111 94.0651 99.4553 93.331 98.9512C92.5969 98.4472 91.7628 98.1071 90.8856 97.954C90.0015 97.8881 89.1309 97.6986 88.2994 97.3912C87.5088 96.9892 86.9125 95.9909 87.3413 95.2137C87.5959 94.7447 88.1386 94.5035 88.4468 94.068C89.0431 93.2305 88.5272 91.9843 87.683 91.388C86.7807 90.878 85.8074 90.5054 84.7953 90.2825C82.7451 89.6125 80.7753 87.6025 81.3649 85.5389C81.9545 83.4753 84.9427 82.6847 85.8137 80.6077C86.5909 78.7786 85.3648 76.6346 83.7166 75.5157C82.0684 74.3968 80.0182 73.9747 78.2226 73.1238C76.427 72.2729 74.685 70.7721 74.5376 68.7822C74.3902 66.7923 75.8776 65.0369 77.1573 63.4222C78.437 61.8075 79.4554 59.5429 78.37 57.821C77.2846 56.0991 75.02 56.0656 73.1373 55.4693C71.9996 55.1025 70.9524 54.4991 70.0644 53.6989C69.1765 52.8987 68.4678 51.9197 67.985 50.8262C67.4892 49.6738 67.248 48.4209 66.645 47.3221C64.8226 43.8984 60.1326 42.4043 56.528 42.8197C54.6386 43.0743 54.0088 43.7443 53.0909 45.1513C52.5616 45.9754 52.0189 46.3908 51.8313 47.5231C51.5566 49.178 52.4343 51.2751 50.8732 52.5414C48.5014 54.4576 44.8432 51.8714 45.004 56.1661C44.9968 57.9828 45.2657 59.7901 45.8013 61.5261C46.4713 63.3284 47.7376 64.1056 46.6656 66.129C45.272 68.742 44.3608 68.7286 41.5736 68.7219C39.5636 68.7219 37.8685 68.608 36.3878 70.1423C33.7815 72.8223 35.3292 75.2678 37.6407 77.3448C40.2738 79.7032 38.8802 80.7417 38.5385 83.7969C38.371 85.2709 38.706 85.7198 37.3928 86.698C34.9004 88.5472 33.5135 87.9241 34.2103 91.5421C34.8803 94.8452 33.8619 93.7129 31.001 94.9457C28.4617 96.0378 26.7867 98.7714 24.7298 100.473C23.3898 101.572 21.3798 102.416 21.2726 104.339C21.0314 108.024 25.6142 107.22 27.7917 108.098C31.3494 109.538 30.2908 114.201 27.5103 115.95C24.569 117.793 20.281 118.483 20.0465 122.697C19.8656 125.933 21.7014 126.65 24.2139 127.729C26.2239 128.593 25.9626 128.848 25.9559 131.24C25.9559 136.064 27.5773 137.43 32.3343 136.64C33.6341 136.425 35.624 135.876 36.9238 136.265C38.7395 136.814 38.1298 137.263 38.1767 138.784C38.3107 142.676 42.8667 141.578 44.7628 139.909C46.9738 137.973 49.7543 135.742 52.7626 135.447Z" fill="#0F73F7"/>
<path opacity="0.15" d="M89.0163 127.233C91.1871 126.53 93.7063 127.079 95.8771 126.563C94.6115 126.269 93.3262 126.067 92.0313 125.96C90.497 125.893 88.966 126.152 87.5387 126.719C86.1115 127.286 84.8203 128.148 83.7501 129.25C84.8849 130.653 85.477 132.417 85.4184 134.221C80.0584 135.682 74.6984 128.459 69.593 130.657C69.9079 133.263 69.593 136.767 67.0671 137.357C65.573 137.692 64.0722 136.687 63.1476 135.474C62.223 134.261 61.6535 132.794 60.7222 131.575C59.418 129.997 57.5742 128.96 55.5487 128.666C53.5233 128.371 51.4606 128.84 49.761 129.98C48.3674 130.992 46.6254 132.519 45.2385 131.508C43.7444 130.429 44.6556 127.488 43.0074 126.677C41.9086 126.128 40.3743 126.992 39.4564 126.188C39.1145 125.816 38.8947 125.348 38.8266 124.848C38.1566 122.094 37.6072 118.912 39.3425 116.674C40.8835 114.664 44.1464 113.458 43.798 110.965C43.4965 108.835 40.7897 108.185 38.6457 107.937C36.5017 107.689 33.8016 106.684 33.9088 104.533C34.016 102.383 36.8769 101.405 37.299 99.3342C37.4732 98.4498 37.1784 97.4649 37.5804 96.6542C38.1901 95.4415 39.9321 95.3946 40.9304 94.4968C42.7595 92.8754 41.3391 89.847 41.855 87.4618C42.2235 85.7734 43.5903 84.4468 44.0392 82.7718C44.9504 79.4218 41.9153 76.2728 38.7462 74.9127C37.4949 74.4733 36.2916 73.9076 35.155 73.2243L35.0411 73.1372C35.1148 74.6447 36.2337 76.045 37.6407 77.3046C40.2738 79.663 38.8802 80.7015 38.5385 83.7567C38.371 85.2307 38.706 85.6796 37.3928 86.6578C34.9004 88.507 33.5135 87.8839 34.2103 91.5019C34.8803 94.805 33.8619 93.6727 31.001 94.9055C28.4617 95.9976 26.7867 98.7312 24.7298 100.433C23.3898 101.532 21.3798 102.376 21.2726 104.299C21.0314 107.984 25.6142 107.18 27.7917 108.058C31.3494 109.498 30.2908 114.161 27.5103 115.91C24.569 117.753 20.281 118.443 20.0465 122.657C19.8656 125.893 21.7014 126.61 24.2139 127.689C26.2239 128.553 25.9626 128.808 25.9559 131.199C25.9559 136.023 27.5773 137.39 32.3343 136.6C33.6341 136.385 35.624 135.836 36.9238 136.224C38.7395 136.774 38.1298 137.223 38.1767 138.744C38.3107 142.636 42.8667 141.538 44.7628 139.869C46.9738 137.953 49.7543 135.722 52.7559 135.427C53.9597 135.308 55.1729 135.526 56.26 136.057C58.3638 137.075 60.1058 138.697 61.9751 140.077C63.8444 141.457 65.9951 142.757 68.3133 142.817C70.6315 142.878 73.1708 141.437 73.5929 139.139C73.6193 138.733 73.7216 138.335 73.8944 137.966C74.1263 137.672 74.4488 137.462 74.8121 137.368C75.1753 137.275 75.5592 137.304 75.9044 137.451C76.5806 137.757 77.2247 138.129 77.8273 138.563C80.1924 139.956 83.1873 139.641 85.8673 139.233C88.1252 138.904 90.9794 137.893 90.9727 135.621C90.9727 134.134 89.6327 133.029 88.6411 131.95C87.6495 130.871 86.7785 129.136 87.7165 127.977C88.0738 127.615 88.5233 127.358 89.0163 127.233Z" fill="black"/>
<path d="M43.3826 90.5103L58.0288 119.548V106.188L59.5229 71.4622L61.687 106.188V115.173L77.767 87.033L61.687 121.578V218.219C61.67 218.379 61.6116 218.531 61.5176 218.662C61.4236 218.792 61.2973 218.896 61.151 218.963C60.7497 219.164 60.3069 219.269 59.8579 219.269C59.4088 219.269 58.966 219.164 58.5648 218.963C58.4169 218.898 58.289 218.795 58.1947 218.664C58.1004 218.534 58.0431 218.38 58.0288 218.219V126.958L43.3826 90.5103Z" fill="#455A64"/>
<path d="M273.065 95.4883C269.045 93.1634 265.36 93.0763 262.727 94.8183L257.602 97.8199C254.439 99.3073 252.476 103.093 252.57 108.607V110.851C252.724 120.104 265.916 145.691 267.551 148.847L267.256 149.162L267.611 148.961L267.719 149.162C267.719 149.162 268.033 148.894 268.569 148.405L273.065 145.812C273.065 145.812 287.577 133.853 287.577 124.024V121.779C287.577 111.89 281.078 100.118 273.065 95.4883ZM267.035 107.22C269.169 108.565 270.956 110.394 272.253 112.557C273.55 114.721 274.319 117.159 274.499 119.675C274.507 120.2 274.469 120.725 274.385 121.243C273.92 121.08 273.472 120.873 273.045 120.627C270.937 119.247 269.185 117.39 267.93 115.206C266.675 113.022 265.953 110.573 265.822 108.058H265.782C265.785 107.609 265.823 107.16 265.896 106.718C266.284 106.854 266.662 107.015 267.028 107.2L267.035 107.22Z" fill="#0F73F7"/>
<path opacity="0.2" d="M252.59 110.818C252.757 120.687 267.739 149.129 267.739 149.129C267.739 149.129 282.07 136.961 281.882 127.099V124.854C281.715 114.985 275.022 103.341 266.928 98.845C258.834 94.3493 252.402 98.6976 252.57 108.573L252.59 110.818ZM259.859 111.535C259.786 106.939 263.008 104.976 267.049 107.22C269.182 108.565 270.97 110.394 272.266 112.557C273.563 114.721 274.332 117.159 274.512 119.675C274.593 124.272 271.37 126.235 267.323 123.99C265.186 122.647 263.394 120.82 262.094 118.656C260.794 116.492 260.022 114.053 259.839 111.535H259.859Z" fill="black"/>
<path d="M184.136 39.0075L114.389 79.6095C113.369 80.204 112.523 81.0558 111.935 82.0799C111.347 83.104 111.038 84.2644 111.039 85.4452V249.18C111.038 249.617 111.153 250.046 111.371 250.424C111.59 250.803 111.904 251.117 112.283 251.334C112.662 251.552 113.092 251.666 113.528 251.664C113.965 251.662 114.394 251.545 114.771 251.324L183.694 211.204C184.741 210.595 185.609 209.722 186.212 208.672C186.815 207.622 187.132 206.432 187.131 205.221V40.7294C187.126 40.3811 187.03 40.0401 186.853 39.7399C186.677 39.4397 186.425 39.1906 186.123 39.017C185.821 38.8434 185.479 38.7512 185.131 38.7495C184.782 38.7479 184.44 38.8368 184.136 39.0075Z" fill="#455A64"/>
<path d="M187.124 40.7226V40.9437C187.124 40.8164 187.124 40.6891 187.124 40.5618C187.131 40.6152 187.131 40.6692 187.124 40.7226Z" fill="#37474F"/>
<path d="M182.052 62.31L116.52 100.433C115.762 100.875 115.133 101.507 114.695 102.268C114.258 103.029 114.028 103.891 114.027 104.768V226.802C114.027 227.016 114.084 227.226 114.191 227.411C114.298 227.596 114.453 227.749 114.638 227.855C114.824 227.962 115.035 228.017 115.249 228.015C115.462 228.014 115.672 227.956 115.856 227.847L181.959 189.409C182.546 189.07 183.034 188.581 183.373 187.993C183.712 187.405 183.89 186.738 183.888 186.059V63.3887C183.893 63.1718 183.84 62.9575 183.734 62.768C183.628 62.5784 183.474 62.4206 183.287 62.3106C183.1 62.2007 182.887 62.1427 182.67 62.1426C182.453 62.1425 182.24 62.2003 182.052 62.31Z" fill="white"/>
<path d="M114.758 251.324C114.654 251.388 114.544 251.442 114.429 251.485C114.57 251.431 114.65 251.391 114.758 251.324Z" fill="#37474F"/>
<path d="M187.084 40.3006C187.013 39.9962 186.872 39.7126 186.673 39.4723C186.473 39.2319 186.22 39.0414 185.934 38.9158C185.648 38.7903 185.336 38.7332 185.024 38.7492C184.712 38.7651 184.408 38.8535 184.136 39.0075L114.396 79.6095C113.379 80.2065 112.536 81.0579 111.948 82.08C111.361 83.1021 111.05 84.2596 111.046 85.4385V249.18C111.048 249.584 111.148 249.982 111.338 250.339C111.528 250.696 111.802 251.002 112.136 251.229C112.47 251.457 112.855 251.6 113.257 251.645C113.659 251.691 114.066 251.638 114.443 251.491C110.577 253.394 105.565 250.238 105.565 250.238C104.255 249.553 103.162 248.517 102.406 247.247C101.65 245.976 101.262 244.521 101.284 243.043V79.308C101.286 78.1278 101.596 76.9687 102.184 75.9452C102.771 74.9218 103.616 74.0694 104.634 73.4723L174.374 32.877C174.374 32.877 177.222 31.0747 182.186 34.217C182.186 34.217 186.615 36.5821 187.084 40.3006Z" fill="#263238"/>
<path d="M187.084 40.3006C187.013 39.9963 186.872 39.7126 186.673 39.4723C186.473 39.2319 186.22 39.0414 185.934 38.9158C185.648 38.7903 185.336 38.7332 185.024 38.7492C184.712 38.7651 184.408 38.8535 184.136 39.0075L114.396 79.6095C113.454 80.153 112.661 80.9191 112.084 81.8406L102.148 75.9848C102.735 74.9426 103.588 74.0754 104.62 73.4723L174.374 32.877C174.374 32.877 177.222 31.0747 182.186 34.217C182.186 34.217 186.615 36.5821 187.084 40.3006Z" fill="#37474F"/>
<path d="M139.896 79.4689C139.814 80.3141 139.534 81.1281 139.078 81.845C138.623 82.562 138.006 83.1618 137.276 83.5961C135.829 84.4336 134.656 83.9378 134.656 82.4906C134.74 81.6448 135.02 80.8303 135.475 80.1124C135.93 79.3945 136.547 78.7932 137.276 78.3567C138.723 77.5259 139.896 78.0217 139.896 79.4689Z" fill="#37474F"/>
<path d="M153.664 218.132C153.664 220.738 151.554 224.061 148.974 225.569C146.395 227.076 144.284 226.179 144.284 223.559C144.284 220.939 146.395 217.629 148.974 216.129C151.554 214.628 153.664 215.532 153.664 218.132Z" fill="#37474F"/>
<path d="M103.682 107.394C103.753 108.127 103.995 108.832 104.388 109.454C104.781 110.075 105.315 110.595 105.947 110.972C107.2 111.696 108.218 111.267 108.218 110.014C108.147 109.281 107.904 108.576 107.51 107.954C107.115 107.333 106.58 106.813 105.947 106.436C104.694 105.713 103.682 106.142 103.682 107.394Z" fill="#455A64"/>
<path d="M103.682 122.684C103.753 123.416 103.995 124.121 104.388 124.743C104.781 125.364 105.315 125.885 105.947 126.262C107.2 126.985 108.218 126.556 108.218 125.304C108.147 124.571 107.904 123.865 107.51 123.243C107.115 122.622 106.58 122.102 105.947 121.726C104.694 121.002 103.682 121.431 103.682 122.684Z" fill="#455A64"/>
<path d="M150.16 66.0218C150.122 66.4139 149.993 66.7916 149.782 67.1245C149.572 67.4574 149.286 67.736 148.948 67.938C148.278 68.3266 147.735 68.0988 147.735 67.4288C147.774 67.037 147.904 66.6597 148.114 66.327C148.325 65.9943 148.61 65.7154 148.948 65.5126C149.618 65.124 150.16 65.3518 150.16 66.0218Z" fill="#37474F"/>
<path d="M144.988 78.4638L161.323 68.9565C161.754 68.7041 162.113 68.3431 162.362 67.9094C162.611 67.4757 162.742 66.9844 162.743 66.4842C162.744 66.262 162.686 66.0436 162.575 65.851C162.464 65.6584 162.305 65.4985 162.112 65.3876C161.92 65.2767 161.701 65.2187 161.479 65.2195C161.257 65.2203 161.039 65.2799 160.847 65.3921L144.506 74.8994C144.074 75.1519 143.716 75.5128 143.466 75.9465C143.217 76.3802 143.086 76.8716 143.085 77.3717C143.086 77.5941 143.145 77.8125 143.256 78.0048C143.368 78.1972 143.528 78.3567 143.721 78.4674C143.914 78.5781 144.133 78.6361 144.355 78.6354C144.577 78.6348 144.796 78.5756 144.988 78.4638Z" fill="#37474F"/>
<path d="M133.055 90.8186V121.069C133.057 122.431 132.607 123.755 131.776 124.835L114.034 148.01V104.768C114.031 103.891 114.26 103.029 114.696 102.268C115.133 101.507 115.761 100.874 116.52 100.433L133.055 90.8186Z" fill="#E0E0E0"/>
<path d="M139.273 120.855L158.79 109.532C159.416 109.166 159.935 108.642 160.296 108.013C160.657 107.384 160.847 106.672 160.847 105.947V74.6782L137.437 88.2926V119.783C137.44 119.997 137.497 120.206 137.605 120.391C137.713 120.576 137.867 120.73 138.051 120.838C138.236 120.946 138.446 121.005 138.66 121.007C138.874 121.01 139.085 120.958 139.273 120.855Z" fill="#E0E0E0"/>
<path d="M160.8 115.562V133.605C160.799 133.982 160.7 134.352 160.512 134.678C160.324 135.005 160.053 135.277 159.728 135.467L147.333 142.71C147.05 142.877 146.814 143.115 146.651 143.4C146.488 143.686 146.402 144.009 146.402 144.338V156.076C146.4 156.474 146.295 156.864 146.096 157.208C145.898 157.553 145.613 157.839 145.269 158.04L138.429 162.013C138.325 162.077 138.206 162.113 138.084 162.115C137.962 162.117 137.842 162.085 137.736 162.024C137.631 161.963 137.544 161.874 137.485 161.767C137.427 161.659 137.398 161.538 137.404 161.416V129.31C137.403 128.81 137.534 128.319 137.783 127.887C138.032 127.454 138.391 127.094 138.824 126.844L159.46 114.798C159.595 114.717 159.748 114.673 159.905 114.671C160.063 114.67 160.217 114.71 160.354 114.787C160.49 114.865 160.603 114.978 160.682 115.114C160.76 115.25 160.801 115.405 160.8 115.562Z" fill="#E0E0E0"/>
<path d="M149.778 144.351L160.076 138.355C160.152 138.312 160.237 138.289 160.324 138.289C160.411 138.289 160.497 138.311 160.572 138.355C160.647 138.398 160.71 138.461 160.753 138.536C160.797 138.611 160.82 138.697 160.82 138.784V147.949C160.82 148.26 160.738 148.565 160.583 148.835C160.428 149.104 160.205 149.328 159.936 149.484L149.886 155.333C149.805 155.378 149.713 155.402 149.62 155.401C149.527 155.4 149.436 155.375 149.356 155.329C149.275 155.282 149.208 155.215 149.161 155.135C149.115 155.055 149.089 154.963 149.088 154.87V145.578C149.087 145.331 149.15 145.088 149.271 144.873C149.392 144.658 149.567 144.478 149.778 144.351Z" fill="#E0E0E0"/>
<path d="M149.779 161.979L160.076 155.983C160.151 155.939 160.236 155.917 160.323 155.916C160.409 155.916 160.494 155.938 160.569 155.981C160.644 156.024 160.707 156.085 160.751 156.159C160.795 156.234 160.819 156.318 160.82 156.405V165.57C160.821 165.881 160.74 166.187 160.585 166.457C160.429 166.726 160.205 166.95 159.936 167.105L149.886 172.954C149.805 173.001 149.713 173.026 149.619 173.027C149.525 173.027 149.433 173.002 149.352 172.955C149.271 172.908 149.204 172.841 149.158 172.759C149.111 172.678 149.087 172.585 149.088 172.492V163.205C149.086 162.958 149.149 162.715 149.27 162.5C149.391 162.285 149.566 162.106 149.779 161.979Z" fill="#E0E0E0"/>
<path d="M149.779 176.022L160.076 169.992C160.152 169.949 160.237 169.926 160.324 169.926C160.411 169.926 160.497 169.949 160.572 169.992C160.647 170.036 160.71 170.098 160.753 170.174C160.797 170.249 160.82 170.334 160.82 170.421V185.161C160.82 185.472 160.738 185.777 160.583 186.047C160.428 186.316 160.205 186.54 159.936 186.696L149.886 192.545C149.805 192.592 149.713 192.617 149.619 192.618C149.525 192.618 149.433 192.593 149.352 192.546C149.271 192.499 149.204 192.431 149.158 192.35C149.111 192.268 149.087 192.176 149.088 192.082V177.249C149.087 177.002 149.15 176.759 149.271 176.544C149.392 176.329 149.567 176.149 149.779 176.022Z" fill="#E0E0E0"/>
<path d="M163.359 192.103V200.23L139.018 214.4V206.106C139.019 205.636 139.143 205.174 139.378 204.767C139.613 204.36 139.951 204.022 140.358 203.787L162.341 191.52C162.443 191.457 162.561 191.424 162.68 191.422C162.8 191.42 162.918 191.451 163.022 191.51C163.126 191.57 163.212 191.656 163.272 191.76C163.331 191.865 163.361 191.983 163.359 192.103Z" fill="#E0E0E0"/>
<path d="M133.055 132.58V170.964C133.054 171.521 132.907 172.067 132.628 172.549C132.349 173.031 131.949 173.432 131.467 173.711L114.047 183.848V155.829L132.137 132.251C132.209 132.178 132.3 132.126 132.4 132.103C132.5 132.08 132.605 132.086 132.702 132.121C132.798 132.155 132.883 132.217 132.946 132.298C133.009 132.38 133.046 132.477 133.055 132.58Z" fill="#E0E0E0"/>
<path d="M183.895 63.3888V81.4788L166.991 91.1201C166.844 91.2049 166.677 91.2494 166.508 91.2494C166.338 91.2493 166.172 91.2045 166.025 91.1196C165.878 91.0347 165.757 90.9126 165.672 90.7657C165.587 90.6187 165.543 90.4521 165.543 90.2826V71.9246L182.052 62.3101C182.24 62.2009 182.453 62.1435 182.67 62.1438C182.888 62.1441 183.101 62.2021 183.288 62.3118C183.476 62.4215 183.631 62.5791 183.737 62.7683C183.844 62.9575 183.898 63.1716 183.895 63.3888Z" fill="#E0E0E0"/>
<path d="M183.895 92.7349V135.534L166.609 145.584C166.501 145.647 166.379 145.679 166.255 145.68C166.131 145.68 166.009 145.648 165.901 145.586C165.793 145.524 165.703 145.435 165.641 145.328C165.578 145.221 165.544 145.099 165.543 144.975V112.192C165.544 111.623 165.659 111.061 165.882 110.538C166.106 110.015 166.433 109.543 166.843 109.15L183.895 92.7349Z" fill="#E0E0E0"/>
<path d="M183.888 84.0046L166.468 94.7715C166.183 94.9468 165.948 95.1922 165.785 95.4843C165.622 95.7763 165.537 96.1053 165.537 96.4398V103.327C165.536 103.443 165.569 103.556 165.632 103.653C165.695 103.749 165.785 103.825 165.891 103.87C165.998 103.916 166.115 103.928 166.228 103.907C166.342 103.885 166.446 103.83 166.528 103.75L183.888 87.2474V84.0046Z" fill="#E0E0E0"/>
<path d="M146.402 165.39V192.96C146.401 193.447 146.273 193.926 146.03 194.348C145.786 194.77 145.436 195.121 145.015 195.365L123.796 207.7C123.694 207.759 123.578 207.79 123.46 207.79C123.342 207.79 123.227 207.759 123.125 207.699C123.023 207.64 122.938 207.555 122.88 207.453C122.821 207.351 122.79 207.235 122.791 207.117V185.818C122.791 185.505 122.872 185.198 123.027 184.927C123.182 184.655 123.406 184.429 123.675 184.27L136.512 176.786C136.784 176.63 137.009 176.404 137.166 176.132C137.322 175.86 137.404 175.552 137.403 175.239V170.093C137.403 169.769 137.487 169.451 137.648 169.17C137.809 168.889 138.042 168.655 138.321 168.492L145.021 164.599C145.16 164.516 145.319 164.471 145.481 164.469C145.643 164.467 145.803 164.509 145.943 164.59C146.084 164.67 146.201 164.787 146.281 164.927C146.362 165.068 146.403 165.228 146.402 165.39Z" fill="#E0E0E0"/>
<path d="M134.382 208.953V217.08L115.85 227.854C115.665 227.96 115.455 228.015 115.242 228.014C115.029 228.013 114.82 227.957 114.636 227.849C114.452 227.742 114.299 227.588 114.194 227.403C114.088 227.218 114.033 227.008 114.034 226.795V189.892L116.372 188.552C116.473 188.496 116.587 188.468 116.703 188.469C116.818 188.471 116.931 188.502 117.031 188.56C117.13 188.618 117.213 188.701 117.272 188.8C117.33 188.9 117.362 189.012 117.364 189.128V214.943C117.364 215.118 117.41 215.29 117.497 215.442C117.584 215.594 117.709 215.72 117.86 215.809C118.011 215.898 118.182 215.945 118.357 215.947C118.532 215.949 118.705 215.906 118.858 215.821L132.794 208.049C132.954 207.958 133.135 207.911 133.319 207.911C133.503 207.912 133.684 207.96 133.844 208.051C134.004 208.142 134.138 208.273 134.232 208.431C134.326 208.589 134.378 208.769 134.382 208.953Z" fill="#E0E0E0"/>
<path d="M183.895 142.114V184.491L168.311 193.63C168.14 193.732 167.944 193.787 167.745 193.789C167.546 193.791 167.35 193.739 167.176 193.641C167.003 193.542 166.86 193.399 166.76 193.226C166.66 193.054 166.608 192.858 166.609 192.659V153.859C166.611 153.349 166.745 152.849 166.999 152.408C167.253 151.966 167.617 151.598 168.056 151.34L183.895 142.114Z" fill="#E0E0E0"/>
<path d="M120.406 211.633H119.736V184.424C119.737 184.063 119.831 183.708 120.008 183.392C120.185 183.077 120.44 182.812 120.747 182.622L134.67 174.247C134.872 174.123 135.04 173.95 135.157 173.744C135.274 173.538 135.337 173.305 135.34 173.068V126.985C135.342 126.516 135.466 126.056 135.701 125.651C135.936 125.245 136.274 124.908 136.68 124.674L161.644 109.692C162.084 109.427 162.448 109.053 162.702 108.606C162.955 108.158 163.089 107.654 163.091 107.14V93.4517H163.761V107.14C163.759 107.769 163.594 108.387 163.283 108.934C162.972 109.481 162.525 109.938 161.986 110.262L137.028 125.243C136.726 125.422 136.476 125.677 136.304 125.983C136.131 126.289 136.041 126.634 136.043 126.985V173.068C136.041 173.421 135.949 173.767 135.776 174.074C135.602 174.382 135.353 174.639 135.052 174.823L121.163 183.198C120.955 183.328 120.785 183.509 120.667 183.724C120.55 183.938 120.49 184.18 120.493 184.424L120.406 211.633Z" fill="#0F73F7"/>
<path opacity="0.4" d="M120.406 211.633H119.736V184.424C119.737 184.063 119.831 183.708 120.008 183.392C120.185 183.077 120.44 182.812 120.747 182.622L134.67 174.247C134.872 174.123 135.04 173.95 135.157 173.744C135.274 173.538 135.337 173.305 135.34 173.068V126.985C135.342 126.516 135.466 126.056 135.701 125.651C135.936 125.245 136.274 124.908 136.68 124.674L161.644 109.692C162.084 109.427 162.448 109.053 162.702 108.606C162.955 108.158 163.089 107.654 163.091 107.14V93.4517H163.761V107.14C163.759 107.769 163.594 108.387 163.283 108.934C162.972 109.481 162.525 109.938 161.986 110.262L137.028 125.243C136.726 125.422 136.476 125.677 136.304 125.983C136.131 126.289 136.041 126.634 136.043 126.985V173.068C136.041 173.421 135.949 173.767 135.776 174.074C135.602 174.382 135.353 174.639 135.052 174.823L121.163 183.198C120.955 183.328 120.785 183.509 120.667 183.724C120.55 183.938 120.49 184.18 120.493 184.424L120.406 211.633Z" fill="black"/>
<path d="M121.88 210.38C121.822 210.965 121.629 211.529 121.315 212.025C121.001 212.522 120.574 212.938 120.071 213.241C119.066 213.817 118.255 213.476 118.255 212.471C118.312 211.886 118.507 211.323 118.822 210.827C119.138 210.331 119.565 209.916 120.071 209.616C121.069 209.04 121.88 209.382 121.88 210.38Z" fill="#0F73F7"/>
<path d="M165.108 92.4065C165.05 92.9912 164.856 93.5542 164.542 94.0509C164.228 94.5475 163.802 94.9641 163.299 95.2674C162.294 95.8436 161.483 95.5019 161.483 94.4969C161.541 93.9121 161.735 93.349 162.051 92.8532C162.366 92.3573 162.794 91.9427 163.299 91.6427C164.297 91.0665 165.108 91.4082 165.108 92.4065Z" fill="#0F73F7"/>
<path d="M169.088 81.9143C169.843 80.7841 170.337 79.5002 170.535 78.1556C170.917 74.8927 168.398 73.4656 164.92 74.9798C161.443 76.494 158.301 80.3398 157.919 83.6161C157.826 84.108 157.837 84.614 157.953 85.1011C158.068 85.5883 158.285 86.0457 158.589 86.4435L158.629 86.477C158.734 86.594 158.851 86.6996 158.978 86.7919L162.622 90.0816C162.864 90.296 163.406 90.0816 163.721 89.6059L168.525 82.6848C168.719 82.4302 168.9 82.1756 169.068 81.9143H169.088ZM164.579 77.8943C166.334 77.1305 167.6 77.8474 167.413 79.4956C167.225 81.1438 165.644 83.0935 163.889 83.8506C162.133 84.6077 160.867 83.8975 161.055 82.2493C161.242 80.6011 162.81 78.6648 164.579 77.9077V77.8943Z" fill="#0F73F7"/>
<path d="M147.715 167.071L141.015 170.931C140.833 171.034 140.681 171.184 140.577 171.366C140.472 171.547 140.417 171.753 140.418 171.962V179.386C140.418 179.434 140.431 179.481 140.454 179.523C140.478 179.565 140.512 179.6 140.554 179.624C140.595 179.648 140.642 179.661 140.69 179.662C140.738 179.663 140.785 179.651 140.827 179.627L143.105 178.287L143.896 179.627C143.905 179.645 143.92 179.661 143.938 179.671C143.955 179.682 143.976 179.687 143.996 179.687C144.017 179.687 144.037 179.682 144.055 179.671C144.073 179.661 144.087 179.645 144.097 179.627L144.82 177.336L147.5 175.808C147.719 175.68 147.901 175.497 148.028 175.278C148.155 175.058 148.223 174.809 148.224 174.555V167.353C148.228 167.292 148.214 167.231 148.185 167.178C148.156 167.124 148.112 167.08 148.059 167.051C148.005 167.021 147.945 167.007 147.884 167.011C147.823 167.015 147.764 167.036 147.715 167.071Z" fill="#0F73F7"/>
<path d="M142.522 174.87V175.654L142.107 175.888V175.111L141.236 174.173L141.678 173.919L142.348 174.622L143.018 173.162L143.42 172.927L142.522 174.87Z" fill="white"/>
<path d="M143.728 174.87C143.669 174.877 143.609 174.87 143.553 174.849C143.497 174.828 143.447 174.794 143.407 174.749C143.322 174.641 143.281 174.505 143.293 174.368C143.293 174.189 143.331 174.013 143.407 173.852C143.485 173.669 143.594 173.502 143.728 173.356C143.863 173.208 144.019 173.082 144.191 172.981C144.332 172.891 144.493 172.836 144.66 172.82C144.719 172.817 144.777 172.826 144.833 172.847C144.888 172.868 144.939 172.9 144.981 172.94C145.063 173.05 145.104 173.186 145.095 173.322C145.092 173.5 145.053 173.675 144.981 173.838C144.816 174.206 144.54 174.514 144.191 174.716C144.053 174.808 143.893 174.861 143.728 174.87ZM144.552 174.019C144.658 173.877 144.716 173.706 144.72 173.53C144.72 173.369 144.673 173.269 144.579 173.228C144.518 173.209 144.454 173.204 144.391 173.214C144.328 173.225 144.268 173.25 144.217 173.289C144.069 173.375 143.944 173.497 143.856 173.644C143.767 173.782 143.718 173.942 143.715 174.106C143.715 174.267 143.762 174.368 143.856 174.414C143.917 174.433 143.982 174.436 144.045 174.425C144.108 174.413 144.167 174.387 144.217 174.347C144.357 174.262 144.472 174.142 144.552 173.999V174.019Z" fill="white"/>
<path d="M147.119 171.292V172.987L146.743 173.202V172.987C146.675 173.101 146.594 173.207 146.502 173.302C146.412 173.395 146.308 173.474 146.194 173.537C146.119 173.596 146.033 173.638 145.94 173.659C145.847 173.679 145.751 173.679 145.658 173.657C145.531 173.61 145.464 173.456 145.464 173.215V172.244L145.859 172.016V172.927C145.859 173.081 145.892 173.175 145.966 173.208C146.04 173.242 146.134 173.208 146.261 173.155C146.399 173.076 146.514 172.963 146.596 172.827C146.678 172.691 146.722 172.536 146.723 172.378V171.52L147.119 171.292Z" fill="white"/>
<path d="M240.302 258.339C240.508 258.698 240.617 259.104 240.617 259.518C240.708 260.767 240.708 262.021 240.617 263.27C240.503 263.846 239.277 264.684 237.716 264.509C236.155 264.335 235.11 263.169 234.366 261.983C233.622 260.798 230.252 256.798 229.642 255.826C229.033 254.855 228.081 252.275 229.267 251.217C230.266 250.325 234.004 252.362 235.002 253.488C236.001 254.613 240.302 258.339 240.302 258.339Z" fill="#263238"/>
<path d="M224.39 270.157C224.745 270.728 224.993 271.36 225.12 272.02C225.361 273.099 225.75 275.685 225.549 276.462C225.448 276.837 224.108 277.802 222.788 277.869C222.004 277.909 221.06 277.943 220.296 277.969C219.731 277.982 219.176 278.125 218.675 278.385C217.304 279.092 215.897 279.728 214.46 280.288C211.954 281.246 208.665 281.628 207.09 281.286C205.516 280.944 203.646 279.946 202.896 278.968C202.743 278.72 202.669 278.433 202.682 278.142C202.695 277.852 202.795 277.572 202.97 277.34C204.906 275.725 208.122 274.928 210.112 274.104C212.811 272.931 215.404 271.53 217.864 269.916C218.353 269.541 224.39 270.157 224.39 270.157Z" fill="#263238"/>
<path d="M224.39 266.479V270.158C223.984 270.638 223.476 271.023 222.904 271.285C222.332 271.547 221.709 271.679 221.08 271.672C220.431 271.74 219.776 271.61 219.202 271.299C218.628 270.988 218.162 270.511 217.864 269.93C217.96 268.782 217.989 267.63 217.951 266.479H224.39Z" fill="#FFA8A7"/>
<path d="M240.302 256.121V258.339C240.302 258.339 239.974 259.505 237.75 259.578C236.769 259.634 235.801 259.334 235.023 258.734L234.56 255.471L240.302 256.121Z" fill="#FFA8A7"/>
<path d="M210.755 188.143C210.755 188.143 211.539 223.251 212.557 229.683C213.261 234.085 217.917 267.431 217.917 267.431C218.934 267.964 220.066 268.238 221.214 268.228C222.362 268.219 223.489 267.927 224.497 267.377C224.497 267.377 224.497 266.204 224.658 264.295C224.818 262.385 226.272 246.098 226.125 239.974C226.071 236.42 225.372 232.906 224.061 229.602L226.125 199.332L227.083 199.452C227.083 199.452 227.036 202.682 227.438 208.417C227.438 208.417 228.202 219.974 228.47 222.246C228.979 226.48 231.82 241.897 232.651 245.984C233.401 249.649 234.621 256.416 234.621 256.416C236.409 258.198 240.309 256.791 240.309 256.791C240.309 256.791 240.503 252.195 240.704 249.388C240.905 246.58 241.763 233.978 241.421 230.668C240.945 226.058 239.063 221.623 239.23 220.45C240.208 213.663 240.302 184.773 240.302 184.773L210.755 188.143Z" fill="#0F73F7"/>
<path opacity="0.4" d="M210.755 188.143C210.755 188.143 211.539 223.251 212.557 229.683C213.261 234.085 217.917 267.431 217.917 267.431C218.934 267.964 220.066 268.238 221.214 268.228C222.362 268.219 223.489 267.927 224.497 267.377C224.497 267.377 224.497 266.204 224.658 264.295C224.818 262.385 226.272 246.098 226.125 239.974C226.071 236.42 225.372 232.906 224.061 229.602L226.125 199.332L227.083 199.452C227.083 199.452 227.036 202.682 227.438 208.417C227.438 208.417 228.202 219.974 228.47 222.246C228.979 226.48 231.82 241.897 232.651 245.984C233.401 249.649 234.621 256.416 234.621 256.416C236.409 258.198 240.309 256.791 240.309 256.791C240.309 256.791 240.503 252.195 240.704 249.388C240.905 246.58 241.763 233.978 241.421 230.668C240.945 226.058 239.063 221.623 239.23 220.45C240.208 213.663 240.302 184.773 240.302 184.773L210.755 188.143Z" fill="black"/>
<path opacity="0.4" d="M226.125 199.298L227.083 199.426C227.083 199.426 227.029 202.856 227.458 208.953C227.458 208.953 227.646 211.861 227.874 215.117L229.442 199.593C232.357 197.885 234.898 195.606 236.912 192.893C230.547 197.771 226.125 199.278 226.125 199.278V199.298Z" fill="black"/>
<path d="M242.024 146.475C241.104 145.215 239.81 144.277 238.326 143.795L239.505 179.527C239.505 179.527 248.215 175.641 248.483 173.336C248.744 171.272 243.639 148.74 242.024 146.475Z" fill="#37474F"/>
<path d="M212.859 127.099C212.819 125.618 212.819 123.749 212.859 123.039C213.033 120.392 213.824 119.341 213.824 119.341C217.06 115.113 228.919 116.064 229.763 118.443C230.607 120.821 232.256 133.806 228.597 136.124C228.973 138.134 230.024 143.105 230.024 143.105C227.07 145.785 220.879 144.935 220.879 144.935C221.06 144.03 220.209 140.405 219.78 138.563C217.248 138.864 215.043 138.831 214.326 138.295C214.271 138.255 214.221 138.208 214.179 138.154C213.63 137.37 213.241 134.389 213.027 130.784C212.357 130.871 211.318 130.958 211.184 130.697C211.05 130.436 212.236 128.198 212.859 127.099Z" fill="#FFA8A7"/>
<path d="M219.639 127.34C219.639 127.34 219.304 125.015 221.649 124.794C223.994 124.573 225.428 127.555 224.283 129.732C223.137 131.91 221.649 132.05 221.649 132.05C221.498 133.489 221.498 134.94 221.649 136.379C221.71 136.778 221.916 137.141 222.227 137.398C222.539 137.655 222.934 137.788 223.338 137.772C225.013 137.725 228.028 137.477 230.252 136.392C233.502 134.804 235.719 131.514 236.952 126.838C238.185 122.161 238.379 117.766 234.942 117.605C234.942 117.605 234.909 116.299 236.838 115.783C236.838 115.783 234.688 114.798 233.763 116.593C233.657 115.57 233.253 114.601 232.6 113.807C231.947 113.012 231.075 112.427 230.091 112.125C226.661 111.099 222.407 112.627 218.701 113.465C214.996 114.302 210.125 113.86 209.703 114.389C209.281 114.918 207.466 125.283 217.743 124.801C217.71 124.781 218.186 127.3 219.639 127.34Z" fill="#263238"/>
<path d="M214.326 138.295C215.043 138.831 217.247 138.864 219.78 138.563C220.321 138.222 220.779 137.764 221.12 137.223C220.932 137.29 216.892 139.039 214.326 138.295Z" fill="#F28F8F"/>
<path d="M210.675 163.674V188.27C210.675 188.27 219.452 191.727 227.773 190.501C236.095 189.275 240.503 184.645 240.503 184.645C240.503 184.645 240.872 152.204 240.275 148.264C239.679 144.325 237.019 142.455 234.982 142.007C232.946 141.558 229.897 142.402 229.897 142.402C227.185 143.879 224.117 144.575 221.033 144.412C218.695 145.189 216.135 146.422 213.998 147.226C207.908 149.604 210.675 163.674 210.675 163.674Z" fill="#0F73F7"/>
<path opacity="0.4" d="M210.675 163.674V188.27C210.675 188.27 219.452 191.727 227.773 190.501C236.095 189.275 240.503 184.645 240.503 184.645C240.503 184.645 240.872 152.204 240.275 148.264C239.679 144.325 237.019 142.455 234.982 142.007C232.946 141.558 229.897 142.402 229.897 142.402C227.185 143.879 224.117 144.575 221.033 144.412C218.695 145.189 216.135 146.422 213.998 147.226C207.908 149.604 210.675 163.674 210.675 163.674Z" fill="white"/>
<path d="M194.501 162.02L188.893 145.169L197.817 140.204L198.528 140.372L203.419 157.055L194.501 162.02Z" fill="#37474F"/>
<path d="M195.211 162.187L189.603 145.337L198.528 140.372L204.136 157.222L195.211 162.187Z" fill="#455A64"/>
<path d="M195.405 160.465L190.782 146.556L198.467 142.234L203.09 156.144L195.405 160.465Z" fill="white"/>
<path d="M190.467 149.33C190.467 149.33 190.896 148.995 191.097 150.194C191.298 151.393 192.437 155.628 194.447 156.988C194.447 156.988 194.896 157.175 194.91 156.773C194.922 155.838 195.074 154.91 195.358 154.02C195.76 152.974 196.819 152.264 197.315 152.445C197.811 152.626 197.268 154.536 197.315 155.266C197.362 155.996 198.347 157.685 198.394 158.468C198.44 159.252 198.313 159.808 198.394 160.177C199.117 161.146 199.897 162.07 200.732 162.944L196.37 168.465C196.37 168.465 193.536 164.699 192.806 163.956C192.075 163.212 190.796 161.751 190.434 160.425C189.923 158.559 189.551 156.658 189.322 154.737C189.322 153.591 189.308 149.691 190.467 149.33Z" fill="#FFA8A7"/>
<path d="M215.74 146.509L218.594 146.114C218.594 146.114 220.852 146.241 220.316 153.008C219.78 159.775 213.047 178.079 211.365 180.304C209.107 183.292 206.521 181.476 206.005 180.786C205.489 180.096 199.868 173.771 196.451 168.465C196.451 168.465 197.248 163.46 201.094 162.891L205.556 167.5C205.556 167.5 206.936 162.334 208.383 156.78C209.71 151.795 211.05 147.568 215.74 146.509Z" fill="#37474F"/>
</svg>
