<svg width="328" height="233" viewBox="0 0 328 233" fill="none" xmlns="http://www.w3.org/2000/svg">
<g filter="url(#filter0_d_833_6979)">
<rect width="272.383" height="63.5296" rx="17.28" transform="matrix(0.997564 -0.0697565 0.139173 0.990268 23.457 19.0008)" fill="white"/>
</g>
<circle cx="19.0589" cy="19.0589" r="19.0589" transform="matrix(0.997564 -0.0697565 0.139173 0.990268 44.239 30.2535)" fill="#E0E0E0"/>
<rect width="48.4413" height="19.0589" rx="2.16" transform="matrix(0.997564 -0.0697565 0.139173 0.990268 230.936 26.7276)" fill="#D9D9D9"/>
<rect width="48.4413" height="6.35296" rx="2.16" transform="matrix(0.997564 -0.0697565 0.139173 0.990268 89.261 31.8697)" fill="#D9D9D9"/>
<rect width="34.1471" height="6.35296" rx="2.16" transform="matrix(0.997564 -0.0697565 0.139173 0.990268 90.8081 42.8787)" fill="#D9D9D9"/>
<path fill-rule="evenodd" clip-rule="evenodd" d="M96.4495 58.9223L94.4233 60.0972L94.5557 57.8009L92.6864 56.2544L94.9498 55.808L95.7091 53.6544L97.0531 55.661L99.3967 55.7852L97.9943 57.5605L98.7633 59.7937L96.4495 58.9223Z" fill="#D9D9D9"/>
<path fill-rule="evenodd" clip-rule="evenodd" d="M104.278 58.3749L102.252 59.5499L102.384 57.2535L100.515 55.7071L102.778 55.2607L103.538 53.107L104.882 55.1136L107.225 55.2378L105.823 57.0131L106.592 59.2464L104.278 58.3749Z" fill="#D9D9D9"/>
<path fill-rule="evenodd" clip-rule="evenodd" d="M112.111 57.8275L110.084 59.0025L110.217 56.7062L108.348 55.1597L110.611 54.7133L111.37 52.5596L112.714 54.5662L115.058 54.6905L113.655 56.4657L114.424 58.699L112.111 57.8275Z" fill="#D9D9D9"/>
<path fill-rule="evenodd" clip-rule="evenodd" d="M119.936 57.2799L117.909 58.4549L118.042 56.1586L116.173 54.6121L118.436 54.1657L119.195 52.012L120.539 54.0186L122.883 54.1429L121.48 55.9181L122.249 58.1514L119.936 57.2799Z" fill="#D9D9D9"/>
<path fill-rule="evenodd" clip-rule="evenodd" d="M127.764 56.733L125.738 57.908L125.87 55.6117L124.001 54.0652L126.265 53.6188L127.024 51.4651L128.368 53.4718L130.711 53.596L129.309 55.3712L130.078 57.6045L127.764 56.733Z" fill="#D9D9D9"/>
<g opacity="0.56" filter="url(#filter1_d_833_6979)">
<rect width="272.383" height="63.5296" rx="17.28" transform="matrix(0.997564 -0.0697565 0.139173 0.990268 34.0713 94.4937)" fill="white"/>
<circle cx="19.0589" cy="19.0589" r="19.0589" transform="matrix(0.997564 -0.0697565 0.139173 0.990268 54.853 105.747)" fill="#E0E0E0"/>
<rect width="48.4413" height="19.0589" rx="2.16" transform="matrix(0.997564 -0.0697565 0.139173 0.990268 241.55 102.221)" fill="#D9D9D9"/>
<rect width="48.4413" height="6.35296" rx="2.16" transform="matrix(0.997564 -0.0697565 0.139173 0.990268 99.8772 107.363)" fill="#D9D9D9"/>
<rect width="34.1471" height="6.35296" rx="2.16" transform="matrix(0.997564 -0.0697565 0.139173 0.990268 101.424 118.372)" fill="#D9D9D9"/>
<path fill-rule="evenodd" clip-rule="evenodd" d="M107.071 134.415L105.045 135.59L105.177 133.293L103.308 131.747L105.571 131.3L106.33 129.147L107.674 131.153L110.018 131.278L108.616 133.053L109.385 135.286L107.071 134.415Z" fill="#D9D9D9"/>
<path fill-rule="evenodd" clip-rule="evenodd" d="M114.899 133.867L112.873 135.042L113.006 132.746L111.136 131.2L113.4 130.753L114.159 128.599L115.503 130.606L117.847 130.73L116.444 132.506L117.213 134.739L114.899 133.867Z" fill="#D9D9D9"/>
<path fill-rule="evenodd" clip-rule="evenodd" d="M122.732 133.32L120.706 134.495L120.838 132.199L118.969 130.652L121.232 130.206L121.991 128.052L123.335 130.059L125.679 130.183L124.277 131.958L125.046 134.191L122.732 133.32Z" fill="#D9D9D9"/>
<path fill-rule="evenodd" clip-rule="evenodd" d="M130.557 132.772L128.531 133.947L128.663 131.651L126.794 130.105L129.057 129.658L129.817 127.504L131.161 129.511L133.504 129.635L132.102 131.411L132.871 133.644L130.557 132.772Z" fill="#D9D9D9"/>
<path fill-rule="evenodd" clip-rule="evenodd" d="M138.386 132.225L136.359 133.4L136.492 131.104L134.622 129.558L136.886 129.111L137.645 126.958L138.989 128.964L141.333 129.088L139.93 130.864L140.699 133.097L138.386 132.225Z" fill="#D9D9D9"/>
</g>
<g opacity="0.32">
<rect width="272.383" height="63.5296" rx="17.28" transform="matrix(0.997564 -0.0697565 0.139173 0.990268 44.678 169.987)" fill="white"/>
<circle cx="19.0589" cy="19.0589" r="19.0589" transform="matrix(0.997564 -0.0697565 0.139173 0.990268 65.4597 181.24)" fill="#E0E0E0"/>
<rect width="48.4413" height="19.0589" rx="2.16" transform="matrix(0.997564 -0.0697565 0.139173 0.990268 252.156 177.714)" fill="#D9D9D9"/>
<rect width="48.4413" height="6.35296" rx="2.16" transform="matrix(0.997564 -0.0697565 0.139173 0.990268 110.479 182.856)" fill="#D9D9D9"/>
<rect width="34.1471" height="6.35296" rx="2.16" transform="matrix(0.997564 -0.0697565 0.139173 0.990268 112.026 193.866)" fill="#D9D9D9"/>
<path fill-rule="evenodd" clip-rule="evenodd" d="M117.668 209.908L115.642 211.083L115.774 208.786L113.905 207.24L116.169 206.793L116.928 204.64L118.272 206.646L120.615 206.771L119.213 208.546L119.982 210.779L117.668 209.908Z" fill="#D9D9D9"/>
<path fill-rule="evenodd" clip-rule="evenodd" d="M125.497 209.36L123.471 210.535L123.603 208.239L121.734 206.692L123.997 206.246L124.757 204.092L126.1 206.099L128.444 206.223L127.042 207.998L127.811 210.232L125.497 209.36Z" fill="#D9D9D9"/>
<path fill-rule="evenodd" clip-rule="evenodd" d="M133.329 208.813L131.303 209.988L131.436 207.691L129.566 206.145L131.83 205.698L132.589 203.545L133.933 205.551L136.277 205.676L134.874 207.451L135.643 209.684L133.329 208.813Z" fill="#D9D9D9"/>
<path fill-rule="evenodd" clip-rule="evenodd" d="M141.154 208.265L139.128 209.44L139.261 207.144L137.391 205.597L139.655 205.151L140.414 202.997L141.758 205.004L144.102 205.128L142.699 206.903L143.468 209.137L141.154 208.265Z" fill="#D9D9D9"/>
<path fill-rule="evenodd" clip-rule="evenodd" d="M148.983 207.718L146.957 208.893L147.089 206.597L145.22 205.05L147.483 204.604L148.243 202.45L149.587 204.457L151.93 204.581L150.528 206.356L151.297 208.59L148.983 207.718Z" fill="#D9D9D9"/>
</g>
<defs>
<filter id="filter0_d_833_6979" x="5.58572" y="1.51299" width="316.304" height="125.326" filterUnits="userSpaceOnUse" color-interpolation-filters="sRGB">
<feFlood flood-opacity="0" result="BackgroundImageFix"/>
<feColorMatrix in="SourceAlpha" type="matrix" values="0 0 0 0 0 0 0 0 0 0 0 0 0 0 0 0 0 0 127 0" result="hardAlpha"/>
<feMorphology radius="3.24" operator="dilate" in="SourceAlpha" result="effect1_dropShadow_833_6979"/>
<feOffset dy="25.92"/>
<feGaussianBlur stdDeviation="8.64"/>
<feColorMatrix type="matrix" values="0 0 0 0 0.0335225 0 0 0 0 0.0773004 0 0 0 0 0.361857 0 0 0 0.24 0"/>
<feBlend mode="normal" in2="BackgroundImageFix" result="effect1_dropShadow_833_6979"/>
<feBlend mode="normal" in="SourceGraphic" in2="effect1_dropShadow_833_6979" result="shape"/>
</filter>
<filter id="filter1_d_833_6979" x="-1.04904e-05" y="68.3659" width="327.104" height="130.726" filterUnits="userSpaceOnUse" color-interpolation-filters="sRGB">
<feFlood flood-opacity="0" result="BackgroundImageFix"/>
<feColorMatrix in="SourceAlpha" type="matrix" values="0 0 0 0 0 0 0 0 0 0 0 0 0 0 0 0 0 0 127 0" result="hardAlpha"/>
<feOffset dx="-10.8" dy="17.28"/>
<feGaussianBlur stdDeviation="12.96"/>
<feComposite in2="hardAlpha" operator="out"/>
<feColorMatrix type="matrix" values="0 0 0 0 0 0 0 0 0 0 0 0 0 0 0 0 0 0 0.25 0"/>
<feBlend mode="normal" in2="BackgroundImageFix" result="effect1_dropShadow_833_6979"/>
<feBlend mode="normal" in="SourceGraphic" in2="effect1_dropShadow_833_6979" result="shape"/>
</filter>
</defs>
</svg>
