<svg width="40" height="37" viewBox="0 0 40 37" fill="none" xmlns="http://www.w3.org/2000/svg">
<path d="M24.5108 33.3032H2.51341C1.12475 33.3032 0 32.1784 0 30.7897V5.1777C0 4.6813 0.201073 4.19746 0.552951 3.84558L3.29257 1.10592C3.64293 0.754781 4.0592 0.476321 4.51749 0.286534C4.97578 0.0967472 5.46704 -0.000627532 5.96307 3.04307e-06H29.2247C30.2301 3.04307e-06 31.1852 0.395871 31.8952 1.10592L34.6348 3.84558C34.9867 4.19746 35.1878 4.6813 35.1878 5.1777V17.459L24.5108 33.3032Z" fill="#CB8252"/>
<path d="M35.0181 4.39853H0.175954C0.263924 4.19746 0.389579 4.00895 0.552951 3.84558L3.29257 1.10592C3.64293 0.754781 4.0592 0.476321 4.51749 0.286534C4.97578 0.0967472 5.46704 -0.000627532 5.96307 3.04307e-06H29.2247C30.2301 3.04307e-06 31.1852 0.395871 31.8952 1.10592L34.6348 3.84558C34.7982 4.00895 34.9239 4.19746 35.0181 4.39853Z" fill="#A56A43"/>
<path d="M21.3641 4.39893V15.7094L17.594 13.196L13.8238 15.7094V4.39893H21.3641Z" fill="#F0C419"/>
<path d="M13.8238 4.39893L15.0806 0H20.1074L21.3641 4.39893H13.8238Z" fill="#F29C1F"/>
<path d="M13.8238 21.9926H3.77014C3.07608 21.9926 2.51344 22.5552 2.51344 23.2493V29.5329C2.51344 30.227 3.07608 30.7896 3.77014 30.7896H13.8238C14.5178 30.7896 15.0805 30.227 15.0805 29.5329V23.2493C15.0805 22.5552 14.5178 21.9926 13.8238 21.9926Z" fill="#F0C419"/>
<path d="M12.5671 27.0194H5.02687C4.86022 27.0194 4.70039 26.9531 4.58256 26.8353C4.46472 26.7175 4.39851 26.5576 4.39851 26.391C4.39851 26.2243 4.46472 26.0645 4.58256 25.9467C4.70039 25.8288 4.86022 25.7626 5.02687 25.7626H12.5671C12.7338 25.7626 12.8936 25.8288 13.0114 25.9467C13.1293 26.0645 13.1955 26.2243 13.1955 26.391C13.1955 26.5576 13.1293 26.7175 13.0114 26.8353C12.8936 26.9531 12.7338 27.0194 12.5671 27.0194Z" fill="#F9EAB0"/>
<path d="M27.5518 13.5488C33.2414 13.5488 37.8535 18.1609 37.8535 23.8506C37.8535 29.5403 33.2414 34.1523 27.5518 34.1523C21.8621 34.1523 17.25 29.5403 17.25 23.8506C17.25 18.1609 21.8621 13.5488 27.5518 13.5488ZM27.5518 19.0586C27.0225 19.0586 26.5938 19.4883 26.5938 20.0176V23.8506C26.5938 24.1048 26.6943 24.3486 26.874 24.5283L28.791 26.4453C29.1653 26.8192 29.7723 26.8195 30.1465 26.4453C30.5206 26.0712 30.5204 25.4641 30.1465 25.0898L28.5098 23.4541V20.0176C28.5098 19.4883 28.081 19.0586 27.5518 19.0586Z" fill="#0F73F7"/>
</svg>
