<svg width="124" height="124" viewBox="0 0 124 124" fill="none" xmlns="http://www.w3.org/2000/svg">
<path d="M48.9781 6.74924C55.3273 -2.24974 68.6727 -2.24975 75.0219 6.74924L75.4298 7.32744C78.9766 12.3545 85.1003 14.8911 91.163 13.8443L91.8603 13.724C102.713 11.8503 112.15 21.2869 110.276 32.1397L110.156 32.837C109.109 38.8997 111.645 45.0234 116.673 48.5702L117.251 48.9781C126.25 55.3273 126.25 68.6727 117.251 75.0219L116.673 75.4298C111.645 78.9766 109.109 85.1003 110.156 91.163L110.276 91.8603C112.15 102.713 102.713 112.15 91.8603 110.276L91.163 110.156C85.1003 109.109 78.9766 111.645 75.4298 116.673L75.0219 117.251C68.6727 126.25 55.3273 126.25 48.9781 117.251L48.5702 116.673C45.0234 111.645 38.8997 109.109 32.837 110.156L32.1397 110.276C21.2869 112.15 11.8503 102.713 13.724 91.8603L13.8443 91.163C14.8911 85.1003 12.3545 78.9766 7.32744 75.4298L6.74924 75.0219C-2.24975 68.6727 -2.24975 55.3273 6.74924 48.9781L7.32744 48.5702C12.3545 45.0234 14.8911 38.8997 13.8443 32.837L13.724 32.1397C11.8503 21.2869 21.2869 11.8503 32.1397 13.724L32.837 13.8443C38.8997 14.8911 45.0234 12.3545 48.5702 7.32745L48.9781 6.74924Z" fill="#CFE3FD"/>
<rect width="86" height="86" transform="translate(19 19)" fill="#CFE3FD"/>
<path d="M84.4736 41.4731C85.914 40.0329 88.249 40.033 89.6895 41.4731C91.1299 42.9136 91.1299 45.2495 89.6895 46.6899L53.8564 82.5229C53.209 83.1738 52.3428 83.5541 51.4326 83.5991L51.25 83.604H51.2344C50.2528 83.5991 49.3137 83.2059 48.6211 82.5034H48.6201L34.2871 67.9478V67.9468C32.8563 66.4951 32.8776 64.1609 34.3262 62.7319L34.3271 62.731C35.776 61.3067 38.1147 61.3188 39.543 62.771L51.2656 74.6802L84.4736 41.4731Z" fill="#0F73F7" stroke="#0F73F7" stroke-width="2"/>
</svg>
